<?xml version="1.0" encoding="utf-8"?>
<!-- Generator: Adobe Illustrator 20.1.0, SVG Export Plug-In . SVG Version: 6.00 Build 0)  -->
<svg version="1.1" id="Слой_5" xmlns="http://www.w3.org/2000/svg" xmlns:xlink="http://www.w3.org/1999/xlink" x="0px" y="0px"
	 width="103.3634186px" height="129.4989319px" viewBox="0 0 103.3634186 129.4989319"
	 enable-background="new 0 0 103.3634186 129.4989319" xml:space="preserve">
<path fill-rule="evenodd" clip-rule="evenodd" fill="#FDBF00" d="M51.6810875,7.7620168
	C23.1391792,7.7620168,0,30.8999577,0,59.4443436c0,28.5431442,23.1391792,51.6810913,51.6810875,51.6810913
	c28.5431099,0,51.6823311-23.1379471,51.6823311-51.6810913C103.3634186,30.8999577,80.2241974,7.7620168,51.6810875,7.7620168"/>
<path d="M94.2077332,42.2351303c0.1609268,0,0.249649,0.0823822,0.236969,0.2383232
	c-0.0088577,0.1279411-0.050705,0.2547226-0.0836563,0.378952c-0.1039276,0.381424-0.3383789,0.7008133-0.4955215,1.0581818
	c-0.0342331,0.0785904-0.1064377,0.1685524-0.183754,0.1977119c-0.3295212,0.1229134-0.5044174,0.4081154-0.6134033,0.6894455
	c-0.1571426,0.4081116-0.373848,0.761692-0.6970291,1.0379181c-0.3776703,0.3231773-0.5703201,0.77314-0.8402786,1.1660118
	c-0.2471008,0.3561325-0.5145111,0.6817856-0.8262787,0.9758034c-0.4778061,0.4499588-0.896019,0.9429283-1.1469498,1.5626755
	c-0.1292953,0.3218651-0.392868,0.5386086-0.6691742,0.7236366c-0.1622086,0.1077499-0.282608,0.2306633-0.3700562,0.4004517
	c-0.2065659,0.3992195-0.5056534,0.6869698-0.8820877,0.9619598c-0.9530258,0.6983376-1.9681625,1.3370399-2.7387085,2.2647285
	c-0.1787262,0.2167397-0.3548584,0.4334068-0.4511948,0.6995773c-0.1457367,0.4004517-0.4270706,0.6945496-0.7629318,0.9327927
	c-0.1622086,0.1153336-0.2597885,0.2509346-0.3409348,0.423275c-0.186264,0.3890839-0.425827,0.7375565-0.8415146,0.9201088
	c-0.2458267,0.1089897-0.3573685,0.3624725-0.5779037,0.5119972c-0.6906815,0.4663582-1.3839111,0.9365463-1.9719849,1.5359917
	c-0.3003616,0.3067017-0.5956573,0.6108513-0.7604141,1.0214767c-0.1343231,0.333313-0.3941116,0.5817337-0.6640778,0.8060532
	c-0.1482849,0.1216393-0.2610626,0.2509346-0.3434448,0.4245491c-0.190094,0.4067993-0.4245453,0.7794075-0.8542023,0.9821854
	c-0.240799,0.1140556-0.3459625,0.3700562-0.5614243,0.5297508c-0.666626,0.4942818-1.3839569,0.9276886-1.9846725,1.5094223
	c-0.3066711,0.2965317-0.6209869,0.5855179-0.7920914,0.9923172c-0.133049,0.3155594-0.3852539,0.5500107-0.6298447,0.7680283
	c-0.1596985,0.1419449-0.275032,0.2876816-0.3599243,0.4764938c-0.1774445,0.3916397-0.3890839,0.7642059-0.7971573,0.9581299
	c-0.2534866,0.1191254-0.3257294,0.3903198-0.528511,0.5601501c-0.6361847,0.5348129-1.3814011,0.9150391-1.9935303,1.4802551
	c-0.3383789,0.3130493-0.713501,0.5867996-0.8998032,1.0367203c-0.1166077,0.2788162-0.3548584,0.4866638-0.5728378,0.6754837
	c-0.2103958,0.1812363-0.3193893,0.392868-0.4321671,0.6286011c-0.1685486,0.3485107-0.3548584,0.6919632-0.7312546,0.8782654
	c-0.2889481,0.1444931-0.4144135,0.4587784-0.6400146,0.6754761c-0.3231812,0.3130493-0.7071991,0.5310287-1.0557098,0.7959213
	c-0.4828339,0.3675003-0.9657059,0.7375946-1.433342,1.1254044c-0.0849342,0.0684204-0.1673126,0.1596527-0.2040558,0.2585144
	c-0.1381531,0.3637466-0.4372368,0.6007156-0.6957855,0.8567581c-0.1786842,0.1774063-0.3028755,0.3611603-0.4042854,0.5816879
	c-0.1761322,0.3865356-0.3662643,0.7578659-0.7692719,0.9847412c-0.2737503,0.1520691-0.4182053,0.4625626-0.6171951,0.6957474
	c-0.287674,0.3345871-0.6793098,0.5082016-0.9961472,0.7870255c-0.2116356,0.1850662-0.4473686,0.3751602-0.6894035,0.5373611
	c-0.4423027,0.2990875-0.8935013,0.569046-1.1571198,1.0797653c-0.1267014,0.2496948-0.3966637,0.4360046-0.6260529,0.619751
	c-0.1381493,0.1127777-0.2255974,0.240799-0.2851601,0.3979416c-0.1723404,0.4575043-0.3928719,0.8668518-0.8262787,1.1482239
	c-0.1736565,0.1127777-0.2611046,0.3548508-0.4093895,0.5170593c-0.4105873,0.4499207-0.9112129,0.7958832-1.3877068,1.1710434
	c-0.4195213,0.3307571-0.8605461,0.6260529-1.292717,0.9365463c-0.0595589,0.0418472-0.1305313,0.096344-0.1507988,0.1596985
	c-0.1026459,0.3016357-0.335865,0.5107574-0.5778999,0.6590042c-0.4689484,0.2877121-0.5728722,0.7959137-0.8313866,1.2090607
	c-0.1280174,0.2053299-0.2496948,0.4017639-0.4638443,0.541153c-0.2826462,0.1863098-0.4042816,0.522171-0.6273308,0.7731018
	c-0.3130455,0.3485107-0.6970634,0.6019592-1.0405083,0.9073868c-0.4499207,0.4017715-1.0138588,0.679306-1.4599915,1.0683899
	c-0.4207573,0.3662643-0.7844696,0.8161469-1.2293243,1.1735611c-0.0760384,0.0608368-0.0811043,0.2040558-0.1318092,0.3029099
	c-0.1938858,0.3751221-0.3358269,0.7857513-0.7249107,1.0303345c-0.2129135,0.1330872-0.2559967,0.4004974-0.4080734,0.5905914
	c-0.3396568,0.4232712-0.7756157,0.7413864-1.1697655,1.1051331c-0.4448547,0.4118652-0.9124908,0.806015-1.4840469,1.0493317
	c-0.0785904,0.0329514-0.1508369,0.1153259-0.192646,0.1926422c-0.192646,0.3586884-0.5272369,0.569046-0.8453102,0.7819595
	c-0.1647606,0.1115417-0.2750282,0.2243195-0.3485527,0.4055557c-0.1774063,0.4296188-0.3979378,0.8187027-0.7616501,1.1406021
	c-0.2572746,0.2268372-0.4119034,0.5677719-0.6146812,0.8554459c-0.0975838,0.1381531-0.2141533,0.2547607-0.3751221,0.3231812
	c-0.1951599,0.0823822-0.3726082,0.0342255-0.5246849-0.0823822c-0.1698265-0.1305313-0.0189896-0.2648544,0.0215454-0.3979416
	c0.0709686-0.2306671,0.1634827-0.4587784,0.1977119-0.6957474c0.045639-0.3193893,0.1672745-0.6045456,0.2978058-0.8922272
	c0.1825142-0.4042816,0.3726082-0.7997055,0.4131813-1.2584839c0.0278854-0.3079376,0.1533508-0.6019974,0.3181114-0.8820496
	c0.1951599-0.3320389,0.3523026-0.6805878,0.3485107-1.098793c-0.003788-0.3320389,0.1748962-0.6425323,0.3472366-0.9264526
	c0.1698303-0.2787781,0.3117714-0.5854874,0.2940178-0.8858414c-0.0329514-0.5905914,0.2927818-1.0037689,0.6362267-1.3700333
	c0.2420731-0.2585144,0.5398827-0.5094452,0.8465843-0.6932373c0.2597885-0.1545868,0.5056534-0.3206253,0.6970253-0.536087
	c0.5880737-0.662796,1.2825813-1.2343979,1.7071304-2.0378571c0.1115074-0.2091217,0.2471428-0.4119034,0.4486465-0.5626984
	c0.2775421-0.2066116,0.3852539-0.5424347,0.570282-0.8187408c0.1571808-0.2356949,0.3295212-0.4105911,0.6134071-0.5284729
	c0.3320351-0.136879,0.6666222-0.3168335,0.8947372-0.6374664c0.2078476-0.2902222,0.5855217-0.3611984,0.8465843-0.6121292
	c0.3206673-0.3092117,0.5956535-0.6590042,0.9327965-0.9492264c0.4397507-0.3802338,0.6919556-0.9150467,1.0632896-1.3446655
	c0.3561287-0.4131775,0.619709-0.8706741,0.9023552-1.3231125c0.1039238-0.1634827,0.2306252-0.2724762,0.4042816-0.3637161
	c0.3764-0.196434,0.7540741-0.392868,1.0176544-0.7566223c0.1748924-0.240799,0.4930038-0.3104935,0.7338028-0.4853897
	c0.3675423-0.2661285,0.6412926-0.6146393,0.9707756-0.909935c0.4397888-0.3954239,0.7819595-0.8846054,1.1431541-1.3560638
	c0.3143234-0.4119034,0.6286087-0.8136368,0.8453102-1.2876129c0.1102676-0.240799,0.2991219-0.4106293,0.5449867-0.5360947
	c0.3142853-0.1596909,0.6197128-0.3523407,0.8262825-0.6489105c0.149559-0.2154236,0.3941498-0.2674103,0.5931396-0.3979416
	c0.4346809-0.2851181,0.8174248-0.6361847,1.1773453-1.0037231c0.3485107-0.3561325,0.7261848-0.6894455,1.008831-1.1102066
	c0.1647224-0.2458649,0.3345528-0.4891739,0.5677681-0.6830978c0.1457329-0.1178513,0.2065697-0.3003616,0.2711983-0.4777679
	c0.1507988-0.4106293,0.3852539-0.7528,0.7857475-0.9758835c0.2750282-0.1533127,0.5297508-0.3510284,0.7021294-0.627327
	c0.1888199-0.3028793,0.5322647-0.4067993,0.8098068-0.5741119c0.3726044-0.2230453,0.6742401-0.5221329,0.9847336-0.8022232
	c0.3954315-0.3586502,0.798439-0.7223969,1.1076508-1.1697693c0.1356049-0.19767,0.2775421-0.3915939,0.4815979-0.5373306
	c0.1875839-0.1330795,0.2674103-0.3523407,0.3396606-0.5639725c0.1432114-0.4169693,0.3662643-0.7667618,0.7578583-0.994873
	c0.1761703-0.10392,0.3472748-0.2268372,0.4626083-0.3979416c0.2483749-0.3637085,0.5918274-0.6070633,0.9580917-0.8364487
	c0.9036331-0.5639801,1.6843109-1.2673454,2.3255615-2.1189995c0.0811462-0.1064758,0.1622467-0.2065697,0.2775803-0.2724724
	c0.2065735-0.1203995,0.3117752-0.3143234,0.380188-0.5310249c0.1482849-0.4803238,0.4296188-0.8617859,0.845314-1.14188
	c0.1419373-0.0963058,0.2598267-0.2116394,0.3548508-0.3510666c0.2661743-0.3903198,0.6057892-0.6945076,1.0151367-0.9352684
	c0.8871613-0.5234451,1.6412277-1.2039948,2.295166-1.9986382c0.0823822-0.0987778,0.1698303-0.2015038,0.2763062-0.2698822
	c0.2154236-0.1394653,0.3459625-0.335865,0.4271011-0.5690842c0.1545944-0.4524345,0.4232788-0.8212509,0.8047409-1.1101646
	c0.0722427-0.0557709,0.1596909-0.1127777,0.2014999-0.1901321c0.3992157-0.7350044,1.0848694-1.1545639,1.7565613-1.5879707
	c0.5969315-0.3877678,1.1063766-0.8719177,1.5841827-1.3928108c0.1508026-0.1647606,0.2863998-0.3396568,0.4841156-0.4562263
	c0.1850204-0.1089897,0.2737503-0.29533,0.3523407-0.4879417c0.1774063-0.4371948,0.4308929-0.8199348,0.8072891-1.1165047
	c0.1279755-0.1014099,0.2395172-0.240799,0.3155594-0.3865318c0.3054276-0.5830078,0.8022232-0.9631958,1.3421021-1.3002968
	c0.6501541-0.4055595,1.2445679-0.8782616,1.7743149-1.432106c0.1938858-0.2015038,0.3675003-0.4182472,0.6209869-0.5563965
	c0.149559-0.0810661,0.2319031-0.2332191,0.2990875-0.3916359c0.1926422-0.4511223,0.4562607-0.850338,0.8453064-1.1608315
	c0.2230835-0.1800003,0.3295212-0.4474068,0.4955597-0.67173c0.1419449-0.1913719,0.3016357-0.3015976,0.5475006-0.3282089
	c0.6830673-0.0760345,1.3281479-0.3142815,1.9833603-0.5031776c0.2712402-0.0772743,0.5437088-0.1304932,0.8174591-0.1622086
	c0.4638519-0.0532188,0.8744736-0.286438,1.333252-0.3422089C94.1025314,42.2782936,94.1544724,42.251606,94.2077332,42.2351303"/>
<path d="M63.2913666,22.3661098c-0.1115417,0.4220352-0.1203995,0.9391384-0.4474068,1.3548317
	c-0.1748962,0.2243214-0.2851219,0.4740162-0.323143,0.760376c-0.0659027,0.5006256-0.2027779,0.9758797-0.4892159,1.4054966
	c-0.100132,0.1495991-0.1685524,0.3396549-0.1888161,0.5196533c-0.045639,0.3953495-0.1964378,0.7476902-0.3700943,1.1000328
	c-0.1634865,0.3295212-0.3193512,0.664072-0.3839798,1.0379162c-0.1292953,0.7465305-0.4853859,1.4143925-0.916317,2.011322
	c-0.4030075,0.5588722-0.8858414,1.0696316-1.5284119,1.4067345c-0.5741081,0.3016758-1.1228485,0.660284-1.4688454,1.2445278
	c-0.088726,0.1495972-0.2471428,0.2230835-0.3928757,0.3029099c-0.2585526,0.1407051-0.4663963,0.3523445-0.527195,0.6247787
	c-0.1052017,0.4702263-0.4156952,0.7984314-0.7388725,1.0848694c-0.3396568,0.2991219-0.5411606,0.6983414-0.85672,1.0138626
	c-0.1787224,0.1786842-0.3536186,0.3650246-0.5310249,0.5487366c-0.3561325,0.3650284-0.7743378,0.6159592-1.2179184,0.8415184
	c-0.3244553,0.1647644-0.5500145,0.4448547-0.7756119,0.7110252c-0.1470108,0.1748962-0.2889519,0.3282089-0.5006256,0.425827
	c-0.283886,0.1280174-0.5056572,0.3497887-0.5854836,0.6425705c-0.1203995,0.4371948-0.4068375,0.760376-0.7135391,1.0366783
	c-0.3510246,0.3180733-0.5183411,0.760376-0.8617859,1.0772133c-0.1546288,0.1444931-0.287674,0.3231773-0.4410248,0.4828339
	c-0.4017715,0.4182434-0.8516541,0.7503204-1.3763351,0.9923553c-0.0798683,0.0380592-0.1343613,0.1280174-0.2065697,0.1863441
	c-0.3815041,0.3117294-0.6628342,0.7401085-1.1431541,0.94664c-0.1989899,0.0849342-0.3688202,0.2838821-0.4410286,0.4904938
	c-0.1850662,0.5297852-0.576664,0.8934975-0.9454422,1.2774773c-0.2192535,0.2281113-0.3320732,0.5246811-0.5272331,0.7743759
	c-0.2382469,0.3067055-0.5271988,0.562664-0.7642059,0.8655777c-0.2027817,0.2598267-0.5056534,0.4676743-0.7781677,0.6019554
	c-0.4524345,0.2243233-0.7578621,0.5804558-1.0987549,0.908741c-0.1140938,0.1102257-0.2344551,0.1812363-0.3738823,0.2267952
	c-0.3029137,0.0976219-0.5500183,0.3118095-0.6602821,0.5690842c-0.2281151,0.5310249-0.6476364,0.8883934-1.0050049,1.3053246
	c-0.192646,0.2243233-0.3054276,0.5006256-0.4752541,0.7414246c-0.2268753,0.3219414-0.5183411,0.5753479-0.7490044,0.8846054
	c-0.2015038,0.2686462-0.4891777,0.4689102-0.7553482,0.6400146c-0.4245491,0.2737503-0.7946053,0.5893517-1.1355362,0.9530602
	c-0.0785522,0.0836182-0.1736183,0.1444206-0.2813339,0.1711044c-0.4524727,0.1140175-0.7515564,0.4156952-0.9112511,0.8250427
	c-0.1064377,0.2711983-0.3358269,0.3865318-0.5107193,0.5715599c-0.3979416,0.4169312-0.6564903,0.9327164-0.9885292,1.3953629
	c-0.2496529,0.3471985-0.532299,0.656414-0.8415184,0.94664c-0.5082054,0.479084-1.1165447,0.8402443-1.5816669,1.3687553
	c-0.0747604,0.0848961-0.1584187,0.1495247-0.2749882,0.1761322c-0.4904537,0.1102676-0.8187008,0.4195213-1.0100708,0.8719559
	c-0.0633907,0.1507988-0.1875801,0.2192574-0.291502,0.3219032c-0.2990856,0.2965698-0.6045113,0.5766258-0.806015,0.9695015
	c-0.2864361,0.5589104-0.6818638,1.0544319-1.1304703,1.4992867c-0.3928738,0.3903198-0.8465843,0.7109833-1.2394981,1.1038589
	c-0.2674065,0.2661285-0.5145092,0.576622-0.9568119,0.6260529c-0.2306652,0.0266113-0.4676743,0.2420731-0.5525684,0.4359589
	c-0.1673145,0.3827438-0.4663982,0.6171951-0.7642059,0.8529282c-0.4081116,0.3244553-0.6032715,0.7920914-0.8618221,1.2103348
	c-0.3675022,0.5931015-0.8301105,1.1000366-1.3433838,1.5448914c-0.3244171,0.2800903-0.5981674,0.6032333-0.9150028,0.8871536
	c-0.1559048,0.139389-0.2965698,0.2496567-0.5082073,0.3079376c-0.4004936,0.1115494-0.7388725,0.3383789-0.9264126,0.7350845
	c-0.0481911,0.1026459-0.095068,0.2065735-0.2002659,0.2597885c-0.6273308,0.3181152-0.9847374,0.8896713-1.2964687,1.471405
	c-0.333313,0.6197052-0.8073292,1.1139908-1.2952309,1.5866928c-0.2927799,0.2851562-0.5639782,0.5880737-0.8453484,0.8808136
	c-0.1736183,0.1812363-0.3573685,0.3155594-0.5968914,0.3903198c-0.3979397,0.1229553-0.7502813,0.3143234-0.9251757,0.7287369
	c-0.0532179,0.1254654-0.1584177,0.2015076-0.2750273,0.2649002c-0.3459587,0.1875381-0.6260529,0.4537048-0.8883944,0.7401047
	c-0.0773134,0.0836563-0.1457319,0.1559067-0.2636175,0.188858c-0.8224897,0.2204971-1.6450186,0.437233-2.4852619,0.5842438
	c-0.3459587,0.0607986-0.6843767,0.1622086-1.0252695,0.2496567c-0.1672754,0.0443573-0.3396559,0.0848923-0.4499216-0.0912399
	c-0.0963039-0.1546249-0.0773134-0.333313,0.0228195-0.476532c0.1064758-0.149559,0.1711035-0.3345871,0.3383789-0.4385071
	c0.2686834-0.1647644,0.3979397-0.4271011,0.5119963-0.7084351c0.1254663-0.3092575,0.2763033-0.5982056,0.5931396-0.7756119
	c0.1938848-0.1077576,0.3472357-0.2877197,0.4511595-0.4866638c0.3396549-0.6488724,0.8504143-1.1723175,1.2762403-1.7578049
	c0.2521696-0.345993,0.5576353-0.6590424,0.761652-1.0303726c0.4283791-0.7768936,1.148222-1.3078766,1.6425056-2.0277634
	c0.1406651-0.2040176,0.3763971-0.3814621,0.6070242-0.4752502c0.3383789-0.1355972,0.5525684-0.368782,0.7148151-0.6653519
	c0.2167034-0.397934,0.5829678-0.669136,0.8427563-1.0303345c0.4004936-0.5589142,0.8237667-1.1013489,1.2065086-1.6716309
	c0.2813702-0.4207535,0.6843758-0.6666183,1.1127548-0.8845978c0.2217693-0.1115494,0.3928738-0.2547607,0.5512924-0.4486465
	c0.2344551-0.286438,0.5335388-0.515831,0.8820515-0.6564941c0.1267414-0.050705,0.244627-0.1026459,0.3143215-0.2129135
	c0.3231792-0.5018616,0.7185669-0.9416504,1.1266804-1.3737793c0.4612923-0.4904938,0.7920513-1.0785294,1.1532497-1.6386795
	c0.2965698-0.4587746,0.7097092-0.7553444,1.1646976-1.0012131c0.1875801-0.1014061,0.332037-0.2154655,0.4587784-0.38274
	c0.2281132-0.3003578,0.5373688-0.5082054,0.8820896-0.6463585c0.141943-0.0570068,0.2851219-0.1000938,0.3700562-0.2255592
	c0.3244553-0.476532,0.7008533-0.9061852,1.1165447-1.3053627c0.4486065-0.4271049,0.760376-0.9606819,1.0683556-1.4903908
	c0.3067036-0.5284729,0.7173309-0.9416161,1.2470798-1.2394981c0.1672745-0.0937538,0.3028736-0.2128754,0.4156933-0.3623962
	c0.239521-0.3244972,0.5753479-0.5145531,0.9365463-0.66539c0.1381512-0.0570068,0.291502-0.0899582,0.3776741-0.2230835
	c0.3333111-0.515789,0.7679939-0.9454041,1.2090607-1.3610954c0.4689102-0.4448547,0.7756119-0.9923592,1.100029-1.5321999
	c0.2230453-0.3713722,0.4727402-0.7072372,0.8440704-0.9492722c0.2952957-0.1913719,0.5563622-0.4119034,0.7768936-0.7059212
	c0.2065697-0.2775421,0.5335388-0.4625664,0.8820496-0.5525284c0.1546288-0.0392952,0.2800941-0.0976181,0.3662643-0.2268753
	c0.3460007-0.5094452,0.8060532-0.913765,1.2508698-1.3269081c0.433445-0.4004517,0.7439384-0.8757057,1.0214806-1.3801231
	c0.2471428-0.4460945,0.5475006-0.8428345,0.96064-1.1431961c0.2281151-0.1659966,0.429657-0.3560524,0.5867996-0.5892715
	c0.1736183-0.2585106,0.4283371-0.4587784,0.7020912-0.5272331c0.3967018-0.0988579,0.6666222-0.3345528,0.8846016-0.6298828
	c0.2915039-0.3941116,0.6881676-0.6691017,1.0328903-0.9986229c0.4245872-0.4068756,0.7692719-0.8593102,1.049366-1.3649635
	c0.2661324-0.4778061,0.5829659-0.9074249,1.0240326-1.23563c0.1837502-0.135601,0.3142815-0.3206291,0.4346809-0.5056534
	c0.1825142-0.2776184,0.425827-0.4791222,0.7299767-0.57798c0.3485527-0.1127815,0.6362267-0.2990456,0.8491402-0.5867195
	c0.2915039-0.3928719,0.7008514-0.6564903,1.0582199-0.9733276c0.4524765-0.4017677,0.8212547-0.8542061,1.1152725-1.3738594
	c0.2496529-0.4423027,0.5462227-0.8427582,0.9327545-1.1722794c0.2015419-0.1735802,0.3345909-0.3992157,0.4778061-0.6158791
	c0.1786842-0.2763062,0.4106293-0.4853897,0.7198448-0.5893517c0.3472748-0.1165695,0.6311569-0.3180733,0.8554802-0.5969276
	c0.2851219-0.3535805,0.670414-0.5842476,1.0113068-0.8668156c0.5234451-0.4360352,0.9315224-0.9492702,1.2800331-1.5233822
	c0.2218094-0.3675022,0.5183411-0.6793098,0.7768898-1.0176506c0.4967995-0.6527004,0.9758415-1.3054028,1.7818947-1.6083145
	c0.5031395-0.5259209,1.1101646-0.9276905,1.6589432-1.3966007c0.3067017-0.2623043,0.572834-0.5804539,0.7933655-0.9314804
	c0.2863998-0.4562263,0.6640739-0.8542042,0.9580917-1.2965069c0.4740143-0.7084732,0.9822235-1.3382778,1.7565613-1.7235718
	c0.1102638-0.0557709,0.1863022-0.1812363,0.2813301-0.2699604c0.1356392-0.1292553,0.292778-0.1546268,0.4600563-0.0684566
	C63.2799568,22.0011597,63.2938805,22.1506824,63.2913666,22.3661098"/>
<path d="M35.8961716,110.3939896c0.0430832-0.3117371,0.1343193-0.6336746,0.3130035-0.9200745
	c0.2420769-0.3878098,0.3776741-0.8047791,0.3713341-1.2622757c-0.0025139-0.1799622,0.0798645-0.3168411,0.1622467-0.4638443
	c0.2204933-0.3865356,0.4169312-0.7756195,0.4980354-1.2280502c0.1077499-0.6007233,0.3599205-1.1596298,0.5880699-1.7261276
	c0.233181-0.580452,0.4080772-1.1849594,0.5677681-1.7945786c0.1343231-0.5094833,0.3941536-0.9771194,0.9733315-1.1114426
	c0.4055176-0.0937881,0.5854797-0.4397888,0.8389626-0.6970596c0.1685524-0.1698303,0.3029137-0.3548584,0.5284729-0.4752579
	c0.240799-0.1292572,0.4144173-0.3548508,0.5779037-0.5880356c0.533577-0.7578583,1.0633278-1.5208282,1.6462936-2.2406693
	c0.333313-0.4131393,0.7654839-0.7464523,1.1583557-1.1102066c0.0671806-0.0608368,0.1507988-0.1292496,0.2344551-0.1406631
	c0.3371048-0.0494308,0.566494-0.2636185,0.7845116-0.4917297c0.2813301-0.2902298,0.5246429-0.6134033,0.9048691-0.7997131
	c0.1571426-0.0785446,0.2965698-0.236969,0.3903236-0.3915939c0.4233093-0.7008514,1.0227547-1.2698593,1.4524117-1.9682007
	c0.3599205-0.5842438,0.8820496-1.0455322,1.3851891-1.5119324c0.0671806-0.0620728,0.1457329-0.1305313,0.2306671-0.1495209
	c0.4841118-0.1128159,0.7768898-0.476532,1.0898972-0.8111191c0.1026459-0.1102676,0.1964378-0.2116394,0.3434448-0.2699203
	c0.3244553-0.1255035,0.5475044-0.3890839,0.7350845-0.6603241c0.2559967-0.3675003,0.5373268-0.7122192,0.8541641-1.0239944
	c0.1495628-0.1482849,0.2509689-0.3269653,0.3485527-0.5006256c0.3903198-0.6868896,0.9466782-1.2343903,1.478981-1.7996063
	c0.0760384-0.0798264,0.1596947-0.178688,0.2585487-0.2078476c0.4828377-0.150795,0.7971573-0.5196152,1.14188-0.8516541
	c0.0266113-0.0266037,0.0456009-0.0671768,0.0772743-0.0798645c0.8858833-0.3725662,1.2686234-1.2698593,1.9441414-1.8629608
	c0.1482468-0.1305695,0.2395248-0.3295212,0.3446846-0.5044174c0.3764381-0.622261,0.8529282-1.1672058,1.3320122-1.7109222
	c0.096302-0.1089859,0.2090836-0.2230453,0.3396149-0.2838821c0.4271049-0.2002258,0.75914-0.5196152,1.0848732-0.8465881
	c0.0950241-0.0950623,0.193882-0.1711044,0.3142815-0.2243195c0.3979416-0.1799622,0.7135391-0.4600525,0.9669838-0.8110809
	c0.0329552-0.045639,0.046917-0.1077499,0.086174-0.1419449c0.861824-0.7591782,1.4257622-1.7514954,2.0974922-2.6589127
	c0.3624344-0.4904556,0.903595-0.7654877,1.3383179-1.1659393c0.2851181-0.2623444,0.5918198-0.4942856,0.9416122-0.6742401
	c0.4904556-0.2522125,0.7452164-0.7642059,1.145668-1.1190643c0.6489105-0.5715561,1.0696716-1.3231125,1.5728073-2.0100098
	c0.2863998-0.392868,0.558876-0.7895737,0.9809113-1.051918c0.0316772-0.0189896,0.0633545-0.0405273,0.0874481-0.0671387
	c0.4245453-0.4473724,0.8883896-0.8440704,1.4473038-1.1165466c0.4841156-0.2344589,0.7312546-0.7223969,1.1216125-1.0607758
	c0.6932373-0.6007156,1.1710052-1.3763351,1.6792068-2.1278534c0.2078476-0.3079758,0.425827-0.6083374,0.7325287-0.8339005
	c0.1039276-0.0760727,0.2027817-0.1647568,0.2889557-0.2623367c0.3548508-0.4144592,0.7616882-0.7642479,1.2635498-0.9872932
	c0.4942856-0.2192574,0.7794113-0.6742058,1.1672134-1.0125847c0.7173309-0.6248169,1.2318802-1.4194603,1.7920303-2.1823883
	c0.6007156-0.8212509,1.2343903-1.6310539,2.1747665-2.1227875c0.2915039-0.1533508,0.5982056-0.3041878,0.7895737-0.6019936
	c0.0367432-0.0595627,0.1077194-0.1089897,0.1736221-0.134285c0.1318054-0.0494308,0.2547226-0.0164757,0.3586426,0.0823021
	c0.0773163,0.0722466,0.0836563,0.1533508,0.0557709,0.2522087c-0.1660385,0.5994835-0.4080734,1.1596298-0.9036331,1.5601234
	c-0.1989517,0.1584206-0.3269653,0.3447227-0.4245453,0.5715599c-0.1495209,0.3421669-0.326973,0.6602821-0.622261,0.9112129
	c-0.4017334,0.3409309-0.6374664,0.8174629-0.9137726,1.2534218c-0.2775421,0.4359589-0.5842438,0.8415184-0.9150009,1.23946
	c-0.3852921,0.4638443-0.7642059,0.9454422-0.999939,1.5144882c-0.0671768,0.1571426-0.1508331,0.2978058-0.3092575,0.3814621
	c-0.3333054,0.1736145-0.5208511,0.4752502-0.6513824,0.8072891c-0.1457748,0.3738861-0.3548584,0.6881714-0.666626,0.9441681
	c-0.1115417,0.0899963-0.1913681,0.2256012-0.2712326,0.3485107c-0.373848,0.5741119-0.7679977,1.1317444-1.2052307,1.6602173
	c-0.2344589,0.2826462-0.3966675,0.6235428-0.6298828,0.906189c-0.4562302,0.5512924-0.7058868,1.2610016-1.3167801,1.6918945
	c-0.1241837,0.0887222-0.157135,0.2458649-0.2166977,0.3827362c-0.1482849,0.3434448-0.3295212,0.6628342-0.6286087,0.9074249
	c-0.2192535,0.178688-0.3624725,0.4232712-0.4790421,0.6792755c-0.1913681,0.4156876-0.4727402,0.7490005-0.8808136,0.965744
	c-0.2281113,0.1203995-0.3307648,0.3459625-0.4803238,0.5335388c-0.3751221,0.476532-0.812355,0.9201126-1.1064148,1.4435196
	c-0.3586426,0.6412506-0.9314804,1.088623-1.3319702,1.6817627c-0.1381149,0.2014999-0.4017334,0.2483749-0.5816879,0.4194794
	c-0.4917374,0.4676361-0.9986649,0.9276886-1.6323395,1.2001648c-0.2648926,0.1153336-0.3726044,0.3599243-0.529747,0.5576324
	c-0.3548584,0.4473724-0.8313828,0.798439-1.0950012,1.3104324c-0.333313,0.6489105-0.8427963,1.1583557-1.2901649,1.7134781
	c-0.2268372,0.2813263-0.5563583,0.4803162-0.8389664,0.7147751c-0.0570488,0.046875-0.1470108,0.0696945-0.1799622,0.1279831
	c-0.2838821,0.4803162-0.7895775,0.6400146-1.2382202,0.8871536c-0.3485146,0.1926498-0.5284729,0.5601501-0.8047371,0.8288345
	c-0.0785904,0.0760345-0.1216774,0.1989899-0.2091255,0.253479c-0.433445,0.2674103-0.6336708,0.7008591-0.8757477,1.1190643
	c-0.1811981,0.3168335-0.4321671,0.5943756-0.6501465,0.8909454c-0.3447227,0.4625702-0.8035011,0.8072891-1.2242622,1.1913071
	c-0.054493,0.0494308-0.1355972,0.0848923-0.1659966,0.1457367c-0.240799,0.4689102-0.7033691,0.633667-1.1355362,0.8339386
	c-0.3878059,0.1799545-0.5855217,0.5538025-0.8858795,0.823761c-0.0912399,0.0823822-0.1305351,0.2243271-0.2610664,0.276268
	c-0.3941498,0.1584167-0.5576363,0.5373688-0.7680321,0.8542023c-0.1419449,0.2129135-0.2978096,0.4232788-0.4194832,0.6400146
	c-0.3915977,0.6957474-0.9859772,1.1913071-1.5474396,1.7222977c-0.0532188,0.050705-0.1254654,0.09758-0.1507988,0.1622467
	c-0.1698303,0.4232712-0.569046,0.6070633-0.9289665,0.7515182c-0.4778061,0.1913681-0.7452164,0.5829697-1.0937271,0.8985672
	c-0.0798302,0.0722046-0.1267433,0.1913681-0.2382469,0.2230453c-0.4004936,0.1115036-0.5855217,0.4714279-0.7731018,0.76548
	c-0.3168335,0.4993134-0.6577263,0.9796371-0.9948692,1.4625092c-0.1305313,0.1863022-0.2787781,0.3383789-0.4460907,0.4879379
	c-0.2902298,0.2572403-0.5956535,0.5107193-0.7844734,0.8605118c-0.1622467,0.3016357-0.4575386,0.4778061-0.7350807,0.5703201
	c-0.4942436,0.1647568-0.7540703,0.5829697-1.1304703,0.8706436c-0.0988579,0.0773087-0.1571426,0.2116699-0.290226,0.2509308
	c-0.4093513,0.1191559-0.6399765,0.4663925-0.8364525,0.7794418c-0.5436745,0.86306-1.1101646,1.6995163-1.8655128,2.3939819
	c-0.0266113,0.0241013-0.0595627,0.0494308-0.0760384,0.0798721c-0.3016357,0.5475006-0.76548,0.8757095-1.3306961,1.1304703
	c-0.2877121,0.1292496-0.4993515,0.4283371-0.7388725,0.6590042c-0.0950661,0.0899963-0.1748924,0.196434-0.3003616,0.2420731
	c-0.482872,0.1774063-0.7135353,0.5969315-1.0151367,0.9720535c-0.485424,0.6032715-0.7920876,1.3421021-1.4131126,1.8439713
	c-0.1723442,0.1381454-0.3104935,0.3218994-0.4423027,0.5006256c-0.1305351,0.1748886-0.287674,0.236969-0.4841118,0.1659927
	C35.8974075,110.772934,35.9227791,110.5802917,35.8961716,110.3939896"/>
<path d="M87.5183182,44.4413795c-0.0405731,0.3080215-0.1457748,0.6375427-0.4955597,0.8732338
	c-0.4587784,0.3118095-0.8376923,0.7261887-1.2065125,1.1343002c-0.3206253,0.3535767-0.7147751,0.5880356-1.1038589,0.8313866
	c-0.5918579,0.3687401-1.1583557,0.7439003-1.4675674,1.4029427c-0.0798721,0.1685524-0.2091217,0.3079414-0.3649902,0.4169312
	c-0.2534866,0.1761322-0.4410629,0.4144554-0.5234451,0.7046814c-0.1267014,0.4384346-0.4182053,0.75914-0.7642059,0.9910431
	c-0.4144135,0.2763023-0.6539383,0.6970215-0.999939,1.0290985c-0.2965317,0.2851219-0.6146393,0.5398445-0.9619141,0.7363205
	c-0.6412582,0.3624725-1.2406998,0.7514801-1.5955505,1.4244461c-0.0823822,0.1546288-0.2066116,0.2623787-0.3536224,0.3485527
	c-0.2522049,0.1508369-0.4422989,0.3789482-0.5056534,0.6450424c-0.1153336,0.4879379-0.437233,0.8263588-0.7933655,1.0975571
	c-0.3941498,0.2991219-0.6286087,0.718605-0.9669876,1.0569458c-0.2775421,0.2763023-0.570282,0.5500145-0.8934555,0.7299767
	c-0.6742477,0.3763962-1.3117065,0.7616882-1.712204,1.4524078c-0.0519409,0.0912399-0.1520767,0.1685524-0.247139,0.2167053
	c-0.323143,0.1622086-0.5335388,0.4271011-0.6133652,0.7578621c-0.1153336,0.4689102-0.4410706,0.7819557-0.7718277,1.0607758
	c-0.3726044,0.3142815-0.5943756,0.7426605-0.9403763,1.0734215c-0.3041534,0.2915039-0.5969315,0.5905876-0.9657059,0.8022614
	c-0.5943832,0.3408928-1.2001648,0.6678619-1.5677109,1.2850571c-0.0887222,0.1508408-0.2255936,0.2433548-0.3802261,0.3168411
	c-0.2863922,0.1368713-0.4967957,0.3776703-0.5652161,0.6602783c-0.1191177,0.4879379-0.4574966,0.8136368-0.7819519,1.1178207
	c-0.3421707,0.3193512-0.5538483,0.7286987-0.8846054,1.0506058c-0.3282471,0.3193893-0.627327,0.6539764-1.0252686,0.9036331
	c-0.5576363,0.3523407-1.1609116,0.6628342-1.5309639,1.2483521c-0.0735245,0.1152954-0.1748962,0.1964417-0.2990837,0.2382507
	c-0.3282471,0.1077118-0.5462265,0.3535767-0.6501503,0.6488724c-0.147007,0.4169693-0.3941498,0.7642059-0.7059212,1.0405045
	c-0.3383789,0.3003616-0.5703201,0.6818237-0.8313828,1.0290604c-0.4106293,0.5424347-0.9010811,0.9923553-1.4574394,1.333252
	c-0.4993515,0.3067017-0.9340324,0.6476364-1.2977829,1.0962753c-0.0532188,0.0658722-0.1545906,0.1089935-0.2407608,0.1317749
	c-0.3409309,0.0874481-0.5715981,0.345993-0.666626,0.6286011c-0.1521111,0.4448547-0.4587784,0.7654877-0.7566223,1.0734634
	c-0.3396568,0.3497925-0.5386086,0.7882996-0.8630638,1.143158c-0.2990837,0.3269653-0.5918617,0.6526642-0.9365463,0.9352646
	c-0.5373688,0.4410706-1.2014771,0.7249527-1.6146202,1.3193283c-0.0659027,0.0937881-0.1685486,0.1482849-0.2826042,0.1660004
	c-0.3485146,0.0544968-0.5842476,0.3105316-0.7071991,0.580452c-0.1736183,0.3852921-0.4169312,0.7033691-0.7109871,0.9758835
	c-0.3611565,0.334549-0.5614243,0.7768478-0.8389664,1.1608658c-0.3992157,0.5512924-0.8808136,1.0087967-1.4029427,1.4067764
	c-0.425827,0.3244171-0.8542061,0.6349106-1.2204704,1.0265427c-0.0671387,0.0709763-0.1545868,0.09375-0.2458649,0.1178513
	c-0.4498825,0.1191177-0.7565842,0.4220352-0.8972511,0.8415146c-0.1014099,0.3028793-0.3650246,0.4119034-0.5475006,0.608345
	c-0.3688164,0.397934-0.6057854,0.8807678-0.9162788,1.3142166c-0.1748962,0.2458649-0.4042854,0.4334488-0.572876,0.6767578
	c-0.0988159,0.1419449-0.2483788,0.1444931-0.4004517,0.1381531c-0.1774483-0.0088959-0.2763062-0.0912399-0.2737541-0.2775421
	c0.0012779-0.1508408,0.0253334-0.2940521,0.0836601-0.4347229c0.1697884-0.4118652,0.2889481-0.8376923,0.380188-1.2761993
	c0.0684166-0.3244553,0.2230453-0.6298828,0.3548546-0.9315186c0.1863022-0.4296188,0.3041496-0.8694077,0.4156914-1.3192902
	c0.0709724-0.2851562,0.1634865-0.5715561,0.2965698-0.8339005c0.236969-0.4676743,0.3560944-0.9682617,0.4828339-1.4701233
	c0.0544968-0.2129135,0.1520767-0.4195175,0.2560005-0.6146851c0.1584167-0.2965698,0.2585487-0.5943756,0.3117676-0.9365463
	c0.0735245-0.4701843,0.4587784-0.7629623,0.8871574-0.908699c0.283886-0.09758,0.4980736-0.2319412,0.6577301-0.4714584
	c0.3016357-0.4511642,0.7338066-0.7819595,1.1152687-1.1532898c0.4347229-0.4245529,0.7680359-0.9099426,1.0531578-1.4308319
	c0.2560349-0.4676361,0.5918617-0.8541641,1.0189629-1.1621475c0.1546288-0.1115417,0.2978096-0.2268372,0.3954277-0.386528
	c0.2483788-0.4030075,0.6247787-0.6286087,1.0594978-0.7642059c0.1292572-0.0392914,0.2547226-0.0671768,0.330761-0.1825104
	c0.3523407-0.5310287,0.8605461-0.9150085,1.3193245-1.3345261c0.4359589-0.3991776,0.7667198-0.8579941,1.0506058-1.3547974
	c0.2344551-0.4105835,0.5056915-0.7806778,0.8579941-1.0886154c0.2382851-0.2104034,0.4575005-0.4321747,0.6311569-0.7021332
	c0.1660004-0.2585144,0.4118652-0.4689102,0.6919594-0.5398788c0.3713303-0.0950699,0.6361847-0.3054276,0.8529282-0.5816956
	c0.3130074-0.3954239,0.7350426-0.6691742,1.0975189-1.0050049c0.4308891-0.396698,0.7882996-0.8364487,1.0772476-1.3345261
	c0.2547226-0.4385071,0.5474663-0.8427963,0.9226265-1.1824493c0.1824722-0.1647568,0.3231773-0.3573685,0.4562225-0.5588684
	c0.1787262-0.2686844,0.3916359-0.522171,0.6983032-0.6222687c0.3675385-0.1203995,0.6666222-0.3219376,0.9061852-0.6070595
	c0.3244171-0.38657,0.7616501-0.6362267,1.1291924-0.9720535c0.4169693-0.3802261,0.7857513-0.7895775,1.0721817-1.2711716
	c0.2395248-0.4017334,0.5069351-0.7794075,0.8402481-1.1076508c0.1875381-0.183754,0.3358231-0.3954277,0.4689102-0.6209869
	c0.2230453-0.378952,0.5183411-0.6755219,0.9467163-0.8237686c0.1761322-0.0608368,0.333313-0.1559029,0.4612961-0.3003578
	c0.4068298-0.4626083,0.9327545-0.7857857,1.4029388-1.1723175c0.3624725-0.2977715,0.672966-0.6387405,0.9353104-1.0201645
	c0.3371048-0.4930458,0.6716919-0.9847755,1.0797653-1.4194221c0.2218094-0.2344551,0.3295212-0.538681,0.5208893-0.7908516
	c0.1267471-0.1635246,0.240799-0.330761,0.4347229-0.420723c0.4283447-0.1964722,0.7743378-0.5057297,1.1190643-0.820015
	c0.1913681-0.1736565,0.3992157-0.3231773,0.6197052-0.4663582c0.5639801-0.3650246,1.0480881-0.826355,1.4397278-1.3776474
	c0.3130112-0.4397507,0.6146469-0.8858452,0.996109-1.2736893c0.0887222-0.091198,0.1761703-0.1989517,0.2256012-0.3155212
	c0.2585449-0.6070633,0.7553482-0.9657478,1.253418-1.3675156c0.6209869-0.5031013,1.2724152-0.9606438,1.9022522-1.4485054
	c0.4068375-0.3155975,0.7477341-0.7223969,1.0354462-1.1583557c0.190094-0.2851982,0.4296188-0.3954277,0.7844696-0.4245872
	c0.4853897-0.040535,0.9834595-0.044323,1.4333801-0.3561325c0.2648621-0.1837883,0.6121292-0.2851219,1.0037308-0.2230835
	c0.3054276,0.0469513,0.6780319-0.0278473,0.9581299-0.225563c0.243309-0.1735764,0.5208511-0.249691,0.7831955-0.2521667
	c0.4955597-0.0037918,0.9416504-0.1698685,1.4017029-0.2978859C87.4802551,43.944622,87.5474396,44.0029488,87.5183182,44.4413795"
	/>
<path d="M16.793211,76.8977966c0.0025139,0-0.1102657-0.0075836-0.2129517-0.0443192
	c-0.2002277-0.0722504-0.234457-0.1964417-0.1254673-0.3941574c0.2167435-0.397934,0.5513325-0.723671,0.8846436-0.9847336
	c0.6298447-0.4930038,1.04426-1.1482239,1.5486774-1.7362595c0.2800922-0.3257294,0.4967957-0.6932297,0.7325287-1.0493622
	c0.1520748-0.2293854,0.3269691-0.4245529,0.5677681-0.5918655c0.2800941-0.1951599,0.4879398-0.5043793,0.7008533-0.7831955
	c0.1203995-0.155899,0.2331791-0.2699585,0.4435387-0.2915039c0.3092556-0.0329514,0.5842838-0.2255936,0.7566242-0.4359589
	c0.2978077-0.3675385,0.7249107-0.5677643,1.0189285-0.9302368c0.5715961-0.7046432,1.2268124-1.3408356,1.6703911-2.1481628
	c0.1406651-0.2534485,0.3092155-0.4891739,0.5804138-0.6590042c0.2813702-0.1761703,0.433445-0.5044174,0.623539-0.7768936
	c0.1355991-0.1951599,0.3029137-0.3142776,0.524683-0.3839722c0.3941498-0.1255112,0.7223969-0.3358688,0.9948711-0.6679077
	c0.2281132-0.2788162,0.5994434-0.4194794,0.8390045-0.7033615c0.5360546-0.6375046,1.1532497-1.2052727,1.5714951-1.9390373
	c0.1647625-0.2902298,0.3447227-0.5665321,0.6247768-0.7743797c0.242075-0.1799583,0.3523426-0.4752541,0.525959-0.716053
	c0.1634846-0.2255592,0.3307991-0.4093475,0.6286068-0.5082054c0.3421688-0.1140556,0.6894436-0.2901878,0.904871-0.6209869
	c0.1787224-0.2762642,0.5069695-0.3523026,0.7426987-0.5677681c0.3573723-0.3269691,0.6412544-0.716053,0.9910431-1.046814
	c0.378952-0.3574066,0.6780357-0.7832336,0.9315186-1.2394562c0.0963058-0.1748962,0.2103615-0.3434486,0.3890457-0.466362
	c0.2205315-0.1508369,0.3206635-0.4030037,0.4511986-0.628643c0.1977119-0.3434448,0.4334068-0.6197472,0.8326225-0.7768517
	c0.3155975-0.1242294,0.6387367-0.2965698,0.8326607-0.6247787c0.1292572-0.2192917,0.4067993-0.2383232,0.5981674-0.3916359
	c0.3776741-0.3016739,0.7034073-0.6552544,1.0278244-1.003727c0.3649864-0.3903961,0.7579002-0.7642441,1.0164108-1.24963
	c0.1191254-0.2255592,0.2712402-0.4410667,0.4841499-0.6070633c0.178688-0.139389,0.2572365-0.3599205,0.3586464-0.5576363
	c0.190094-0.3700523,0.4207611-0.6817856,0.8351784-0.8542023c0.3029099-0.1267052,0.5905838-0.3206291,0.7857475-0.6083031
	c0.1546249-0.2306633,0.433445-0.2749863,0.6450806-0.4232712c0.38274-0.2674103,0.6970634-0.6083031,1.0176888-0.9327965
	c0.3219032-0.3244171,0.670414-0.6362267,0.9188347-1.0366783c0.1850243-0.2978096,0.380188-0.5943794,0.6577263-0.8262825
	c0.1609726-0.1343613,0.2179794-0.3422089,0.3016396-0.5284729c0.1786842-0.3979797,0.4144135-0.7414246,0.8338966-0.9327927
	c0.1660385-0.0748024,0.3371429-0.182476,0.4524765-0.3193893c0.3662262-0.4359589,0.85923-0.6944733,1.3218384-0.9986229
	c0.2661324-0.1748962,0.472702-0.4207993,0.6881676-0.6387787c0.3219032-0.3244171,0.6894073-0.6146431,0.9428902-1.0126228
	c0.1774063-0.2800941,0.3713303-0.5550804,0.6400146-0.7679558c0.1457329-0.1166496,0.2103615-0.3016739,0.2749901-0.4778061
	c0.1711044-0.4664383,0.4283791-0.8593102,0.9010811-1.0836334c0.1470451-0.0696945,0.2813683-0.1900558,0.3840141-0.3168373
	c0.2763062-0.337101,0.623539-0.5740318,0.9872513-0.806015c0.8846436-0.5626602,1.6032104-1.3053246,2.245739-2.1278915
	c0.0684586-0.0874062,0.1216774-0.1976357,0.2091255-0.2571983c0.2623405-0.1774445,0.3941498-0.4309311,0.4993477-0.716053
	c0.1584206-0.4296913,0.4156952-0.7870598,0.8212128-1.0202789c0.2484207-0.1419411,0.4169693-0.3675041,0.5905876-0.5867195
	c0.1748962-0.2218475,0.3764-0.4119034,0.6501503-0.5069695c0.3459969-0.1216736,0.4967957-0.0177116,0.5031395,0.3384171
	c0.002552,0.1735802-0.0544968,0.3269691-0.1102676,0.4853897c-0.3320351,0.9441643-0.6754799,1.8857765-1.0265465,2.8210487
	c-0.2724724,0.7275009-0.5677681,1.4397621-0.7325287,2.2013779c-0.0227776,0.106514-0.0557327,0.2357712-0.1305313,0.3003578
	c-0.3244171,0.2826462-0.3700562,0.669178-0.4435768,1.0544739c-0.1444588,0.762928-0.4929695,1.4092865-1.0582237,1.9580231
	c-0.3751221,0.3637123-0.8212509,0.6146469-1.2166405,0.9403763c-0.5652542,0.4651222-1.2521439,0.8009872-1.5955925,1.5170403
	c-0.1077118,0.2243233-0.3181114,0.4194832-0.5221291,0.5715561c-0.2230835,0.1685524-0.3181114,0.3916397-0.4321671,0.6247787
	c-0.1799622,0.3599205-0.3422089,0.7275009-0.7350845,0.9429283c-0.287674,0.1596565-0.4397469,0.4879417-0.6666222,0.7274246
	c-0.2965317,0.3155975-0.6615601,0.529789-0.9872513,0.7882996c-0.4613304,0.3637123-0.949234,0.6995773-1.4194221,1.0557098
	c-0.0874443,0.0659027-0.1825142,0.1444931-0.2255974,0.2407951c-0.1774101,0.3865318-0.4993515,0.6425705-0.8047752,0.909977
	c-0.1482468,0.1292572-0.2356949,0.272438-0.3079414,0.4486465c-0.1774483,0.427063-0.378952,0.8224907-0.7946434,1.1025848
	c-0.2635803,0.1774445-0.4207611,0.5018616-0.6425285,0.7490044c-0.2889519,0.3206253-0.6527023,0.5373688-0.9669876,0.8161469
	c-0.4511948,0.4004555-0.9847374,0.7059212-1.4802551,1.0557098c-0.0582886,0.0418472-0.1216774,0.096302-0.1508408,0.1596527
	c-0.1850243,0.4068756-0.5360527,0.6578064-0.8693657,0.9188728c-0.1432152,0.1127815-0.2129135,0.2432747-0.2775803,0.3992157
	c-0.186264,0.4423027-0.3637085,0.8871574-0.8148689,1.1545677c-0.2078476,0.1229134-0.2560387,0.3928719-0.4195213,0.5791359
	c-0.4891777,0.5588722-1.1177826,0.9542999-1.6513252,1.4612312c-0.2484169,0.2370071-0.5817299,0.3852921-0.8846016,0.5614243
	c-0.1001358,0.0583229-0.2040558,0.1128197-0.2484207,0.2141876c-0.1736183,0.3979416-0.5462227,0.5994453-0.8592682,0.8503761
	c-0.1710663,0.1368752-0.2686462,0.2800941-0.3510284,0.4740181c-0.1748924,0.4055214-0.3472748,0.808567-0.7375946,1.0848312
	c-0.2534866,0.1799622-0.3738861,0.4980736-0.5703201,0.7426643c-0.2940178,0.3688164-0.6805496,0.6209869-1.0087967,0.9416466
	c-0.433445,0.4219971-0.913765,0.7946091-1.4726753,1.0506058c-0.0633507,0.0291595-0.1254654,0.090004-0.1584167,0.1521149
	c-0.2090874,0.3966675-0.5905895,0.6045074-0.9352722,0.8453064c-0.1318092,0.092514-0.2091217,0.1951599-0.2737503,0.3320389
	c-0.2002659,0.4334488-0.3763981,0.8757477-0.7908535,1.1811752c-0.1659985,0.1216736-0.238245,0.3687744-0.3611584,0.5512924
	c-0.3155994,0.4651184-0.7857876,0.7781296-1.1697655,1.1773453c-0.4245892,0.4422989-0.9188328,0.7806778-1.4587154,1.0823135
	c-0.2826462,0.1584167-0.4651203,0.5094833-0.764204,0.7021332c-0.1077538,0.0696945-0.2002659,0.1799622-0.3181133,0.2167053
	c-0.1825142,0.0608368-0.2623405,0.1913681-0.335865,0.3447189c-0.2002277,0.4156952-0.3878078,0.8313828-0.7692719,1.1368103
	c-0.1622086,0.1292572-0.2319031,0.372612-0.3510647,0.5601501c-0.3117695,0.4942856-0.7794056,0.8402405-1.187479,1.2432861
	c-0.2610645,0.2585144-0.4499207,0.5994492-0.817461,0.7413864c-0.0684185,0.0266113-0.1305332,0.1064377-0.1938839,0.1039276
	c-0.5424366-0.0190277-0.9733295,0.3320312-1.4802589,0.4334412c-0.4004936,0.0785522-0.8187008-0.00383-1.2090607,0.1520767
	c-0.0848942,0.0341873-0.1977119,0.0253372-0.2610645,0.0798264c-0.4004936,0.3409348-0.8922234,0.3256989-1.3674774,0.3574066
	c-0.3953876,0.0278854-0.7730618,0.0899658-1.1063747,0.3168411C17.273531,76.8825989,17.0986366,76.9193802,16.793211,76.8977966"
	/>
<path d="M23.5860844,60.3591919c-0.3675423,0.0076218-0.529789-0.2585106-0.3434849-0.5854797
	c0.3485508-0.6159592,0.7300148-1.2103386,1.2268124-1.71978c0.1977139-0.2027817,0.3371029-0.4448166,0.4930058-0.6767998
	c0.1761322-0.2597504,0.3244171-0.5372887,0.5931015-0.7286606c0.2015038-0.1432571,0.3029137-0.3713684,0.3903599-0.5994835
	c0.1216373-0.3180733,0.27878-0.6058235,0.5981674-0.7718239c0.1533527-0.0798264,0.2610664-0.2179794,0.3434467-0.3586845
	c0.5791779-0.9821434,1.3763351-1.8008461,2.0226917-2.7336388c0.3687801-0.5335007,0.714777-1.0861092,1.1976509-1.5309639
	c0.09758-0.089962,0.1596565-0.2001877,0.2179794-0.3193092c0.2192574-0.4525146,0.4853878-0.8681297,0.904871-1.1710434
	c0.1153336-0.0836945,0.2179794-0.2141876,0.2724743-0.3459969c0.2496567-0.5981674,0.6983013-1.0455742,1.1178226-1.5144882
	c0.334549-0.3763962,0.6311188-0.7807198,0.8998032-1.2052307c0.2902298-0.4562263,0.659008-0.8478622,0.9898033-1.2686577
	c0.5005875-0.6374626,0.9530258-1.3116684,1.4701271-1.9415512c0.2382469-0.290226,0.425827-0.6412544,0.6653481-0.9479561
	c0.615921-0.7882996,1.2191925-1.5854187,1.8262177-2.3813782c0.2015419-0.2660904,0.3776741-0.5537682,0.7287369-0.6602821
	c0.0823822-0.0252914,0.1444969-0.1127777,0.2179794-0.1697884c0.3814659-0.287674,0.6843796-0.6628342,1.1165466-0.9048691
	c0.27882-0.1546288,0.4917336-0.4372749,0.7109871-0.6957893c0.5500145-0.6501465,1.0721474-1.3180084,1.5461617-2.0277977
	c0.1926079-0.287674,0.4511604-0.5410805,0.6653481-0.8224907c0.1584206-0.2078438,0.3383789-0.4042435,0.5715599-0.5259171
	c0.4194832-0.2167435,0.7604141-0.5310287,1.098793-0.8453102c0.2091217-0.1951599,0.4714661-0.2915421,0.6970253-0.4537506
	c0.4169693-0.3003616,0.6450806-0.7641659,1.0240326-1.0924511c0.3383789-0.2940178,0.5741119-0.6690998,0.816185-1.0455761
	c0.3219032-0.4979954,0.705883-0.9555359,1.0645638-1.4282379c0.0443649-0.0595608,0.089962-0.1254654,0.1507988-0.1647606
	c0.6552162-0.4245892,1.1697655-1.0316525,1.857933-1.4169445c0.425827-0.2382469,0.7312546-0.615881,1.0632896-0.9682236
	c0.3941498-0.4182453,0.7819557-0.8275948,1.1038589-1.3116665c0.3282471-0.4930458,0.6552162-1.0075951,1.0557098-1.432106
	c0.5436745-0.576664,1.1279182-1.1343002,1.8224258-1.5448875c0.4017715-0.2370071,0.7857475-0.4841499,1.0747375-0.8681278
	c0.1660004-0.2192936,0.3890457-0.3992157,0.6007195-0.581768c0.1571426-0.1355991,0.2851219-0.2889118,0.3903236-0.467598
	c0.1609688-0.2725124,0.3548546-0.5222073,0.5690422-0.7566624c0.1127815-0.1229134,0.2217712-0.2534065,0.3079796-0.3953495
	c0.6222649-1.0189648,1.4675751-1.8047123,2.4916039-2.4079857c0.2863998-0.1711044,0.5652161-0.3535786,0.7705116-0.6324348
	c0.0976181-0.1330471,0.2306633-0.2432747,0.3599586-0.3484735c0.3497887-0.283884,0.6032372-0.6463585,0.8858414-0.9923563
	c0.714817-0.8719187,1.2914391-1.8566179,2.1177635-2.6398897c0.4486389-0.4270639,0.9935913-0.713501,1.529686-1.0049648
	c0.2559967-0.1394672,0.5487366,0.1013317,0.4967957,0.3928738c-0.0367432,0.2154264-0.1267395,0.4258261-0.2218094,0.6260147
	c-0.243309,0.5196543-0.4993134,1.0215178-0.5753479,1.6133432c-0.0443649,0.3511028-0.3016357,0.6704149-0.4308929,1.0164127
	c-0.3422089,0.9201088-0.6704559,1.8452454-0.9961472,2.7729359c-0.2395248,0.6831017-0.4790421,1.3586216-0.8643341,1.9833984
	c-0.2243271,0.3637886-0.6020012,0.5424728-0.8364563,0.8808136c-0.3434448,0.4955215-0.8858795,0.7654819-1.3471718,1.1291943
	c-0.3802261,0.2991219-0.7781677,0.5690823-1.1634216,0.8593082c-0.235733,0.1799221-0.4613304,0.3839798-0.6134071,0.6424923
	c-0.3979416,0.67173-0.9847374,1.2077827-1.339592,1.9150181c-0.1330452,0.2674065-0.4473686,0.4232731-0.6438065,0.6754417
	c-0.3751221,0.4791222-0.8871193,0.813673-1.3535156,1.2002029c-0.4030075,0.3320751-0.8389664,0.6058254-1.2635536,0.9010811
	c-0.1064377,0.0734844-0.2141533,0.1546268-0.2952957,0.2547226c-0.4891777,0.6045094-1.0442581,1.1710396-1.4206963,1.8503513
	c-0.239521,0.434721-0.5956535,0.7464523-0.903595,1.1063747c-0.1571388,0.1837883-0.2344551,0.4537487-0.439785,0.5576344
	c-0.2914658,0.145731-0.5221329,0.3561306-0.7490082,0.5677681C51.4866638,32.3027458,51,32.625927,50.4816589,32.9072571
	c-0.0481529,0.0266113-0.0950661,0.0633545-0.1305313,0.1039619c-0.5475006,0.6298065-1.1748314,1.2014427-1.575325,1.9377594
	c-0.2255592,0.4156952-0.5677681,0.7186089-0.8351746,1.0886612c-0.0950279,0.1318092-0.2281151,0.2420387-0.2978096,0.3953514
	c-0.049427,0.1077499-0.1229515,0.1837883-0.2255974,0.2370071c-0.4017296,0.2078476-0.716053,0.5234451-0.9885292,0.8719177
	c-0.2078438,0.2687225-0.5272331,0.3447609-0.7908134,0.4942818c-0.333313,0.190136-0.6324348,0.4030075-0.8478622,0.6995773
	c-0.3054276,0.422039-0.7895775,0.6805496-1.0290985,1.1545677c-0.3447227,0.6805458-0.8782616,1.2254944-1.3205643,1.8351097
	c-0.2103577,0.28899-0.5766258,0.4511986-0.8212509,0.7299767c-0.0595627,0.0696945-0.1736183,0.1064377-0.2052956,0.1825523
	c-0.1736183,0.4270668-0.5982056,0.5652161-0.9416504,0.7286644c-0.4600182,0.2205315-0.7490044,0.5893478-1.0898972,0.918869
	c-0.0785904,0.0760384-0.1305351,0.2015038-0.2218094,0.240799c-0.333313,0.1457329-0.519577,0.4397507-0.6805496,0.7185287
	c-0.3421669,0.5931396-0.7882996,1.1076889-1.1621437,1.675457c-0.2167435,0.3282852-0.6210251,0.4625702-0.8440742,0.7920914
	c-0.049427,0.0734863-0.1622047,0.1102257-0.2014999,0.1863441c-0.2458687,0.4853859-0.7147789,0.6627541-1.1608696,0.8846016
	c-0.3536186,0.1748962-0.576664,0.5119972-0.8643379,0.7705116c-0.093792,0.0849304-0.1546288,0.2129517-0.27882,0.2648544
	c-0.3852921,0.1609688-0.6045074,0.5006256-0.7908134,0.8301468c-0.2268753,0.4055595-0.5601883,0.7325287-0.7768898,1.1380882
	c-0.2597885,0.4853897-0.7211208,0.7806435-1.0734615,1.1773071c-0.0607986,0.0696945-0.1609325,0.1166496-0.1964359,0.193924
	c-0.2356949,0.5171013-0.7185669,0.713501-1.1798992,0.9492722c-0.330759,0.1697884-0.5373287,0.4942055-0.8288326,0.717289
	c-0.100132,0.0760384-0.1609325,0.2154274-0.287674,0.2547226c-0.4283791,0.1331253-0.6564922,0.4993896-0.857996,0.8326988
	c-0.240797,0.3966675-0.5766621,0.7198448-0.7819576,1.1355362c-0.2445889,0.4942055-0.7122612,0.7920532-1.0569839,1.1975746
	c-0.0709705,0.0849342-0.1748562,0.1584167-0.2090836,0.2547607c-0.1495609,0.4067955-0.5082073,0.619709-0.8440723,0.7730637
	c-0.4587784,0.2078438-0.7439384,0.5944138-1.1228504,0.8795357C23.842083,60.2426224,23.7495689,60.3591919,23.5860844,60.3591919"
	/>
<path d="M47.1017761,78.6200104c-0.3206635-0.0037842-0.3878441-0.1089859-0.2268753-0.4029999
	c0.1280174-0.2331848,0.2268753-0.4815979,0.2293892-0.7388382c0.0063438-0.4866638,0.2256012-0.8884354,0.4423027-1.2939911
	c0.1229515-0.2319031,0.188858-0.470192,0.2484169-0.7274246c0.1267052-0.5373688,0.2889519-1.0759735,0.5119972-1.581665
	c0.2788162-0.6311188,0.4689102-1.2863388,0.6539383-1.9453812c0.1292572-0.4651184,0.2902298-0.9175568,0.5297508-1.335762
	c0.1850281-0.3206635,0.4296532-0.5855255,0.7300148-0.8250427c0.3015976-0.240799,0.6045113-0.4727402,0.9251366-0.6868896
	c0.4600563-0.3054657,0.6818237-0.8250427,1.0798035-1.188797c0.3459587-0.3168335,0.5677681-0.7274628,0.8313484-1.1089249
	c0.3282433-0.4714661,0.7059174-0.908699,1.0658417-1.3573074c0.1178856-0.1457672,0.2585487-0.2750244,0.4308929-0.3497849
	c0.2623405-0.1128235,0.4587784-0.3067093,0.6780319-0.4778137c0.3181152-0.2483749,0.5982056-0.5373688,0.9695396-0.7338028
	c0.5132713-0.2711983,0.7857475-0.8250427,1.2014389-1.2191544c0.6134071-0.5791779,0.9796333-1.3446579,1.5094223-1.9897385
	c0.2965279-0.3611984,0.5538025-0.7452164,0.9771156-0.9746056c0.0963058-0.0519409,0.1761322-0.135601,0.2623405-0.2065697
	c0.3713341-0.3041496,0.7172928-0.6311188,1.146946-0.8719177c0.3092194-0.1748962,0.6298447-0.3852959,0.8199768-0.7338066
	c0.0836182-0.1571426,0.2471046-0.2737503,0.3827019-0.3992157c0.6615601-0.6120911,1.0975571-1.3991547,1.6374397-2.1050758
	c0.1140594-0.1469688,0.1938858-0.3282051,0.3307571-0.4473305c0.6273346-0.5449486,1.1836929-1.1760674,1.9263916-1.5905228
	c0.3510284-0.1951599,0.7236328-0.3954277,0.9175568-0.7857475c0.0088577-0.0164757,0.0227814-0.0303993,0.0380173-0.0418472
	c0.6539383-0.5310249,1.1406021-1.2115746,1.6475372-1.8718567c0.0798264-0.1026459,0.1685486-0.2027397,0.2281113-0.3155975
	c0.4385071-0.8275185,1.149498-1.4029465,1.8414536-1.9947701c0.3574066-0.3053894,0.7692719-0.519577,1.2597656-0.5234451
	c0.2686462-0.0024757,0.472702-0.1850281,0.7274246-0.2509308c0.5373688-0.1380768,1.0696716-0.2698822,1.6247482-0.3357887
	c0.2838898-0.0329514,0.5677719-0.155941,0.8440323-0.2471428c0.7933731-0.2636147,1.6082764-0.4182434,2.4231873-0.583004
	c0.3573685-0.0722466,0.4106293,0.0164757,0.3016357,0.3865318c-0.0557709,0.1863403-0.1292953,0.3675766-0.2877121,0.4613304
	c-0.3890457,0.2294273-0.6590042,0.6007195-1.0455322,0.8313828c-0.423317,0.2521706-0.7604141,0.6007233-0.9847412,1.043026
	c-0.2382431,0.4689102-0.6577682,0.8060112-0.9061432,1.2597618c-0.3700562,0.6779976-1.0480881,1.0772133-1.4777451,1.6995163
	c-0.1381149,0.2001877-0.4105911,0.2356911-0.6070251,0.380188c-0.4004898,0.2978058-0.7477646,0.6602821-1.188797,0.9112129
	c-0.4055557,0.2306633-0.7540665,0.5487404-0.9885254,0.963192c-0.3649902,0.6463585-0.9365463,1.1405678-1.2812653,1.8109818
	c-0.1407089,0.2725105-0.4473724,0.4803581-0.672966,0.7223969c-0.1128235,0.1216736-0.2534866,0.2129517-0.3282471,0.3713684
	c-0.0557709,0.1191216-0.1609726,0.1913681-0.2775421,0.2610664c-0.378952,0.2268333-0.7261887,0.4929657-1.0468521,0.8072891
	c-0.2458649,0.239521-0.5728378,0.4004555-0.8744736,0.5778999c-0.2141495,0.1254654-0.3776321,0.2927399-0.5246811,0.4891777
	c-0.3649902,0.4879417-0.7958832,0.9365845-1.1013107,1.4587173c-0.3878021,0.6615562-0.9758377,1.146946-1.3965988,1.771759
	c-0.1394272,0.2065697-0.4017677,0.2458649-0.583004,0.4156952c-0.4942474,0.4651184-0.9999008,0.9276886-1.6348495,1.2065086
	c-0.2559967,0.1127777-0.3776741,0.3523407-0.5360909,0.5550766c-0.3611984,0.465126-0.8605499,0.8263245-1.1254044,1.3598633
	c-0.3244553,0.6564865-0.86306,1.1444321-1.296505,1.7134781c-0.2015038,0.2648544-0.5487404,0.4258194-0.7971573,0.672966
	c-0.0519447,0.0519409-0.1520767,0.0709686-0.1786842,0.1279755c-0.1913719,0.4042892-0.5956535,0.5716019-0.9441681,0.7325287
	c-0.5031395,0.2331848-0.7933655,0.6463623-1.1368103,1.0265503c-0.0608406,0.0684586-0.1014099,0.1660385-0.1761703,0.2103958
	c-0.4346848,0.2648544-0.6349487,0.7033691-0.8795395,1.1177826c-0.1951599,0.3295288-0.4612923,0.6172028-0.6881676,0.9302444
	c-0.3383789,0.4676361-0.8009453,0.8035049-1.2280502,1.1786194c-0.0418091,0.0367432-0.0988541,0.0659103-0.1216736,0.1127853
	c-0.2522087,0.482872-0.7375984,0.6438065-1.1798973,0.8605423c-0.3662643,0.178688-0.5411606,0.5512924-0.8415222,0.7958832
	c-0.0848923,0.0671844-0.1267395,0.2129135-0.2167015,0.2445908c-0.3700562,0.1305313-0.5589104,0.4524765-0.7211189,0.7452164
	c-0.3257332,0.5842438-0.7692719,1.0797653-1.1254044,1.6361237C47.6606483,78.5199203,47.4135094,78.6098785,47.1017761,78.6200104
	"/>
<path d="M55.3940125,44.1256294c-0.0342255,0.2421112-0.0646667,0.5069695-0.2053299,0.7312889
	c-0.2205353,0.3510284-0.3611984,0.7337685-0.4600563,1.1305084c-0.2483788,0.9948311-0.7388344,1.899704-1.0354042,2.8755836
	c-0.2053299,0.6755219-0.4283752,1.339592-0.7604141,1.9681587c-0.1102638,0.2052956-0.1457329,0.4613304-0.1672745,0.6983414
	c-0.0469131,0.4929657-0.3307991,0.8794975-0.6324348,1.2090187c-0.3535767,0.3852959-0.7312508,0.7870636-1.23946,0.9847755
	c-0.3447189,0.134285-0.5981674,0.3637123-0.8110809,0.6462822c-0.3345871,0.4423027-0.8427925,0.7312927-1.098793,1.2369461
	c-0.3345871,0.6640701-0.8529282,1.1938591-1.2838211,1.7882385c-0.2103996,0.2889481-0.5842438,0.4410248-0.8224907,0.7261848
	c-0.0456352,0.0557327-0.1419411,0.0772743-0.1736565,0.135601c-0.2661324,0.4955177-0.7679939,0.6615562-1.2229805,0.8960114
	c-0.3371048,0.1736183-0.5246849,0.5119972-0.8035011,0.7527962c-0.0963058,0.0823822-0.1507988,0.236969-0.2585144,0.2813301
	c-0.3561287,0.1508369-0.5538445,0.4651222-0.7109833,0.7604141c-0.3219032,0.6083412-0.7832336,1.1114807-1.1646996,1.672905
	c-0.2027817,0.3016396-0.5766258,0.4549904-0.8035011,0.7527962c-0.0557709,0.0709724-0.1685524,0.1064758-0.2052917,0.1825142
	c-0.2395248,0.4917336-0.7071991,0.6742058-1.1583557,0.8820534c-0.3662643,0.1698227-0.5601883,0.5310211-0.8630638,0.7731018
	c-0.09758,0.0773087-0.1508369,0.2255554-0.2763023,0.2661285c-0.3713303,0.1191254-0.5652161,0.4435806-0.7401085,0.7287369
	c-0.3193893,0.5208588-0.7071953,0.9923172-1.0240326,1.50811c-0.2319031,0.3802261-0.6526642,0.5437088-0.8871193,0.9049072
	c-0.0595627,0.0899582-0.193924,0.144455-0.2255974,0.2395248c-0.1482849,0.4385071-0.5411606,0.6374588-0.8947372,0.7870178
	c-0.468914,0.1977158-0.7502823,0.5804596-1.1152725,0.8782654c-0.0836563,0.0671768-0.1394272,0.1799622-0.2458649,0.2179794
	c-0.4701881,0.1723785-0.7008514,0.5766602-0.956852,0.9619141c-0.3256912,0.4904556-0.6615562,0.9733276-0.9961472,1.4587173
	c-0.0671387,0.0950699-0.1736164,0.1381531-0.286396,0.1571426c-0.8934994,0.1559067-1.7502193,0.4575424-2.6487465,0.6121292
	c-0.5563583,0.0950699-1.1089268,0.286438-1.6691151,0.4119034c-0.5411587,0.1203995-1.0861073,0.2230453-1.6133041,0.4080734
	c-0.3092556,0.1077118-0.4499207-0.0519409-0.4017696-0.3827438c0.0430851-0.3054199,0.1977139-0.5614243,0.3751221-0.7996674
	c0.3447208-0.4600525,0.7046432-0.9074249,1.0341644-1.3801651c0.1748943-0.2522049,0.3649883-0.5170593,0.6742439-0.6526642
	c0.1355991-0.0595551,0.2179813-0.193924,0.3104935-0.3130417c0.2078476-0.2686844,0.4917316-0.5082092,0.7844715-0.5969315
	c0.4727402-0.144455,0.7363205-0.4828339,1.0265465-0.8110809c0.1356373-0.1533508,0.2572746-0.3029099,0.4448547-0.4042816
	c0.2471428-0.1343613,0.4499226-0.3460007,0.5918636-0.5817337c0.4131413-0.6830978,0.9619179-1.2660675,1.4029427-1.9314117
	c0.3878098-0.5842438,0.9555779-1.0202103,1.4815369-1.482811c0.054493-0.0481567,0.1216354-0.1051636,0.1888161-0.1140594
	c0.3840179-0.0494308,0.6095772-0.3358231,0.855442-0.576622c0.2509346-0.2458649,0.4866638-0.4955215,0.7857857-0.6920013
	c0.2230492-0.147007,0.4055214-0.3713303,0.570282-0.6032333c0.4955215-0.6919556,1.0278244-1.3585815,1.51828-2.0569191
	c0.3041878-0.4321327,0.7287369-0.7794075,1.106411-1.1583557c0.0912361-0.089962,0.2027817-0.1926079,0.3193512-0.2167053
	c0.3143234-0.0620728,0.5158272-0.2750244,0.7375946-0.4701881c0.3181114-0.2788162,0.6083412-0.5855179,0.9707756-0.817421
	c0.4626083-0.2978477,0.669178-0.8351784,1.059536-1.2077827c0.2952576-0.2825699,0.4980354-0.6374664,0.713501-0.9846992
	c0.3637123-0.5855598,0.8706818-1.0582619,1.3218422-1.5728111c0.0608368-0.0696945,0.1330833-0.1419411,0.2141876-0.1761322
	c0.523407-0.2192192,0.9416122-0.5728722,1.3117065-0.9948311c0.1470108-0.1686287,0.3814659-0.2129517,0.5639381-0.3473129
	c0.4321709-0.3142853,0.6476364-0.808567,1.0341682-1.1570396c0.3320351-0.3003616,0.5550804-0.6882057,0.8072891-1.0570259
	c0.3548546-0.519577,0.7629662-1.0049629,1.1697655-1.4865608c0.3041496-0.3561325,0.7743378-0.5006256,1.1139908-0.8238068
	c0.2915039-0.2787781,0.6057892-0.5322609,0.9707756-0.7312126c0.479084-0.2610664,0.7338066-0.7730637,1.1203384-1.1444321
	c0.6450806-0.6222229,1.0683937-1.4156303,1.5994186-2.1253395c0.3459587-0.4625702,0.7679939-0.7996712,1.240696-1.098793
	c0.1166115-0.0747223,0.2522087-0.088726,0.3650284,0.003788C55.4130058,43.8810387,55.4282036,43.9925804,55.3940125,44.1256294"/>
<path d="M64.0191803,84.701088c-0.0608406,0.1596985-0.1090317,0.3637543-0.2104034,0.5360947
	c-0.3206253,0.5386429-0.5601463,1.1406403-1.1266785,1.4967346c-0.1685524,0.1077499-0.1951599,0.3105316-0.2788162,0.4740143
	c-0.186306,0.3586426-0.3193512,0.7502441-0.7033691,0.9720535c-0.2243233,0.1292572-0.2306633,0.4131393-0.3878059,0.6007156
	c-0.2940178,0.3510284-0.5424347,0.7388382-0.8364525,1.0911789c-0.425827,0.5132751-0.6906815,1.1431503-1.1824112,1.6095123
	c-0.1178856,0.1115417-0.186306,0.2750244-0.2750282,0.4169693c-0.1698265,0.2661285-0.3345871,0.529747-0.572834,0.7490082
	c-0.3067055,0.2800903-0.4144173,0.7097092-0.6641121,1.0202026c-0.2496567,0.3143234-0.6007195,0.5664902-0.7654419,0.9353104
	c-0.2205315,0.4879379-0.5830078,0.8389664-0.9340324,1.2179108c-0.2319412,0.2534866-0.3713684,0.5943832-0.5475006,0.896019
	c-0.086174,0.1457291-0.1584206,0.2965698-0.3029137,0.3966599c-0.3282471,0.2319412-0.5271988,0.5728378-0.7312546,0.9036331
	c-0.4701881,0.75914-0.9796677,1.4866028-1.6069984,2.1266174c-0.2788162,0.2838821-0.3776741,0.6767578-0.5778999,1.0087967
	c-0.0988579,0.1647568-0.1964378,0.2915039-0.3700562,0.3903198c-0.3611984,0.200264-0.6907196,0.4587784-0.809845,0.8770218
	c-0.0811043,0.2863998-0.3485107,0.3751221-0.5196152,0.5614243c-0.3548546,0.3865356-0.5842438,0.8516541-0.8896713,1.2673492
	c-0.4663963,0.6323929-0.9948692,1.1913071-1.6538734,1.6259842c-0.0912781,0.0608444-0.1622467,0.1508408-0.2496948,0.2180252
	c-0.3751221,0.2863922-0.6285667,0.7211151-1.1570816,0.8262787c-0.2065697,0.0405731-0.4600143,0.2572708-0.5373268,0.4549866
	c-0.1596947,0.4055557-0.4664001,0.6640701-0.76297,0.9251785c-0.3890419,0.3447189-0.5462227,0.8313446-0.8478203,1.2293243
	c-0.4524765,0.5956497-0.9353104,1.1481857-1.52845,1.6057205c-0.1165695,0.0912399-0.2179794,0.2002258-0.330761,0.2965317
	c-0.3472748,0.2978516-0.622261,0.6856537-1.1216125,0.7832336c-0.2357292,0.046875-0.4777679,0.2319412-0.5627022,0.4271011
	c-0.1634827,0.3840179-0.4549484,0.6286087-0.7540703,0.8630676c-0.3966637,0.3104935-0.5855217,0.7642059-0.8339005,1.1646957
	c-0.3688164,0.5956497-0.8377266,1.093689-1.3345261,1.5638733c-0.3104935,0.2927856-0.627327,0.5791779-0.9276886,0.8846054
	c-0.1596947,0.1609726-0.330761,0.292778-0.5576363,0.3510666c-0.4131393,0.1077118-0.7388687,0.3345871-0.9188309,0.7388687
	c-0.0456009,0.1039276-0.1077156,0.2015076-0.2078476,0.2560043c-0.6387367,0.3421631-0.9694977,0.9505081-1.3180084,1.5385437
	c-0.3168373,0.533577-0.7490082,0.9695358-1.1545677,1.4283142c-0.1178474,0.1330795-0.2699585,0.1926422-0.4499207,0.1748886
	c-0.282608-0.0291595-0.3738441-0.1761703-0.2762642-0.4448547c0.3282471-0.9061432,0.6679001-1.8046722,0.9099388-2.7412567
	c0.1343613-0.5145493,0.4321671-0.9821854,0.5525665-1.5094223c0.1799622-0.7958755,0.5437126-1.5284042,0.7882996-2.302742
	c0.0823822-0.2649002,0.0798302-0.5437164,0.2192574-0.8009491c0.2090836-0.3865738,0.3383789-0.8187408,0.8110809-0.9936371
	c0.0900002-0.0329132,0.1394272-0.1685486,0.2167397-0.2471008c0.2445908-0.2534866,0.4993134-0.5006256,0.8364143-0.626091
	c0.143219-0.0544968,0.286438-0.1064377,0.3688164-0.2344589c0.3219032-0.5031357,0.7274628-0.9365463,1.1254044-1.3763351
	c0.3776741-0.4156876,0.6767578-0.8871155,0.9669838-1.3623734c0.3460007-0.5677643,0.7844734-1.0240326,1.3953629-1.3015671
	c0.1393929-0.0633926,0.2509346-0.1584244,0.3408966-0.2813721c0.2572746-0.3548584,0.5969276-0.5981674,1.010067-0.7451782
	c0.140667-0.050705,0.2699623-0.1229477,0.3586845-0.2522049c0.3066635-0.4448547,0.6564522-0.849144,1.046814-1.2242584
	c0.472702-0.4549942,0.8110809-1.0176926,1.1317444-1.5829086c0.2927437-0.5158234,0.7033691-0.9010773,1.2115746-1.1913071
	c0.1482849-0.0849304,0.2813301-0.1748962,0.378952-0.3168335c0.2521667-0.3637161,0.6095772-0.5893173,1.0163727-0.7338104
	c0.1255035-0.0456009,0.2509727-0.0785522,0.3270073-0.1913681c0.3560944-0.5246811,0.806015-0.9682236,1.2546616-1.4042206
	c0.4232712-0.4118652,0.7274628-0.8960114,1.0050011-1.3978806c0.287674-0.5208511,0.6767578-0.9276886,1.1710434-1.2394562
	c0.147007-0.0937881,0.2572746-0.2103577,0.3573685-0.3447189c0.2636185-0.3523026,0.5994453-0.5981674,1.0303764-0.7033691
	c0.1761322-0.0418091,0.2914619-0.1546326,0.3966637-0.2889481c0.4207573-0.5398865,0.9454422-0.9809494,1.4219704-1.4675751
	c0.3383789-0.3460007,0.5943794-0.7616882,0.8250427-1.188797c0.2129135-0.3953857,0.4625702-0.7515182,0.8275566-1.0328827
	c0.2915039-0.2243271,0.569046-0.4689178,0.7743416-0.7933731c0.1381493-0.2179794,0.3928719-0.380188,0.629879-0.4384689
	c0.4119034-0.1026459,0.7021294-0.3472748,0.9239006-0.6615601c0.2750282-0.386528,0.6679001-0.6374588,0.999939-0.953064
	c0.437233-0.4194794,0.7781258-0.8960114,1.0759735-1.4080048c0.2078476-0.3573685,0.4372368-0.6868973,0.7439384-0.9669876
	c0.2889519-0.2610626,0.5753479-0.5246811,0.7806816-0.8668518c0.1165695-0.1951599,0.3193512-0.3460007,0.523407-0.4030075
	c0.572834-0.1622467,0.9365845-0.572876,1.2952309-0.994873c0.1622086-0.1901321,0.3497849-0.1888504,0.5538445-0.1305313
	C63.9380341,84.4869385,63.9938049,84.5654907,64.0191803,84.701088"/>
<path d="M44.0770187,70.4373856c-0.2420731,0-0.3941498,0.0164795-0.5386429-0.0037918
	c-0.1799622-0.0240555-0.2522087-0.1596909-0.1672783-0.3256912c0.092514-0.1812363,0.178688-0.3916016,0.330761-0.5107574
	c0.4993515-0.3916016,0.8820915-0.8909531,1.3256683-1.333252c0.2002296-0.2014999,0.3586464-0.4232712,0.515789-0.6526642
	c0.1875801-0.2750244,0.3447227-0.5664902,0.6108513-0.7870255c0.1875801-0.1546249,0.2699623-0.3966599,0.378952-0.6108475
	c0.1723404-0.3371429,0.3890839-0.615921,0.7604141-0.7806854c0.3180733-0.1407013,0.6247787-0.3345871,0.8301086-0.6387405
	c0.1571426-0.2319412,0.4410286-0.2585449,0.6501503-0.4131775c0.3738441-0.2762604,0.6970253-0.6082993,1.0138588-0.9365463
	c0.3181152-0.3282433,0.6793098-0.6248131,0.9239006-1.0278206c0.1913719-0.3168373,0.3979416-0.6248169,0.6831017-0.8744736
	c0.1546288-0.1343613,0.2065697-0.347271,0.2927399-0.532299c0.1673126-0.3586464,0.378952-0.6678619,0.761692-0.8516541
	c0.2978058-0.144455,0.580452-0.3383789,0.7743378-0.6247749c0.0874481-0.1292953,0.2065697-0.2066116,0.3422089-0.2737503
	c0.5867577-0.2940178,1.0569458-0.7426643,1.5081024-1.2014427c0.2965698-0.3016357,0.6260948-0.5741119,0.8605499-0.9403763
	c0.1799583-0.2775383,0.3700523-0.5550804,0.6374626-0.7705078c0.145771-0.1153336,0.1977119-0.3067017,0.2648926-0.4815979
	c0.1634865-0.425827,0.4144173-0.7845116,0.8301086-1.0126228c0.1609344-0.0887222,0.3206291-0.2027397,0.4346848-0.3422089
	c0.2648926-0.3206253,0.5905876-0.5499763,0.9403763-0.7718239c0.8009453-0.5106812,1.4903908-1.1557999,2.0784645-1.9010162
	c0.3421669-0.4359589,0.7692719-0.7996712,1.0480881-1.2862968c0.1736183-0.3003616,0.4537125-0.4220352,0.7984314-0.4119034
	c0.4891777,0.0126877,0.9454041-0.0849304,1.3775749-0.342205c0.2509308-0.1495247,0.5614624-0.225563,0.8554764-0.2052956
	c0.4118652,0.0266075,0.7870255-0.1102257,1.1203384-0.283886c0.3104935-0.1635208,0.6336746-0.2129517,0.9530258-0.2674065
	c0.3269653-0.0557709,0.6602783-0.0266075,0.959404-0.2243233c0.0798264-0.0545311,0.2167053-0.0392952,0.3256912-0.0329514
	c0.2052917,0.0126877,0.3104935,0.1431808,0.280098,0.3383408c-0.0367813,0.2357712-0.0748062,0.486702-0.2610703,0.6603584
	c-0.188858,0.1786842-0.3016357,0.4283028-0.5411606,0.5576363c-0.1178818,0.0658264-0.1825104,0.1786842-0.2344894,0.3015976
	c-0.2002258,0.4663582-0.4486084,0.8833656-0.9289322,1.1254005c-0.2141876,0.1077538-0.2952881,0.3624763-0.4854202,0.5246849
	c-0.6032333,0.5171013-1.3091583,0.8934975-1.9022598,1.4232101c-0.3751602,0.334549-0.7579002,0.6425667-0.9910774,1.1127167
	c-0.1191254,0.242115-0.3193512,0.4625702-0.5297508,0.6374626c-0.1951599,0.1622849-0.3117676,0.3459969-0.4169693,0.5703201
	c-0.1799583,0.3815041-0.3751221,0.7527962-0.7933273,0.9631958c-0.2763023,0.139389-0.4195213,0.4537506-0.6375008,0.6767578
	c-0.3168373,0.3244171-0.7084351,0.5259209-1.0556717,0.7920914c-0.4689484,0.3586426-0.9454422,0.7097092-1.389019,1.098793
	c-0.0823822,0.0722084-0.1723785,0.1571426-0.2078476,0.2559967c-0.1355972,0.3675041-0.4296532,0.6083031-0.6945076,0.8592339
	c-0.1812401,0.1736565-0.3104935,0.3536186-0.4068375,0.5779419c-0.1685524,0.3928719-0.3687782,0.7591362-0.7667198,0.9834595
	c-0.2775421,0.1571426-0.4068336,0.4701881-0.615921,0.6995773c-0.2940559,0.3244171-0.6679001,0.5246429-0.9910774,0.7920914
	c-0.4207611,0.3485107-0.8694038,0.6805496-1.3269081,0.9846954c-0.3890839,0.2598267-0.5145493,0.7147751-0.8757477,0.9923553
	c-0.3181114,0.2420425-0.5588722,0.558876-0.7071571,0.9669876c-0.1191597,0.333313-0.3599205,0.6184311-0.6780319,0.8541641
	c-0.2699623,0.1977158-0.4397888,0.5360947-0.6907234,0.7832336c-0.5335388,0.5271988-1.1329803,0.9061508-1.8997383,1.0125885
	c-0.6564941,0.0899963-1.3066406,0.2154617-1.9212837,0.4980698c-0.2268753,0.1039276-0.5082092,0.1280212-0.76297,0.1229553
	c-0.4625664-0.0101318-0.8642998,0.1863022-1.2774773,0.329483C44.5611305,70.379097,44.2873802,70.4678268,44.0770187,70.4373856"
	/>
<path d="M59.8681259,50.9024124c0.3332748-0.0024757,0.4359589,0.1660767,0.3839798,0.4638824
	c-0.049427,0.290226-0.2851601,0.4283791-0.4385109,0.6298828c-0.2648582,0.3484726-0.5779037,0.6539383-0.9618797,0.8883934
	c-0.5804558,0.3523407-1.2002029,0.6615982-1.5803909,1.2661095c-0.0709724,0.1153336-0.1825142,0.1812363-0.3067055,0.2306633
	c-0.3320351,0.134285-0.5703201,0.3865318-0.6679001,0.7109489c-0.1381111,0.4498825-0.4511604,0.7730637-0.7527962,1.0772133
	c-0.3421669,0.3447609-0.5462227,0.7845078-0.8909454,1.1152687c-0.3155594,0.3029137-0.5842438,0.6450806-0.9619179,0.8960152
	c-0.5614281,0.3738823-1.1862411,0.6856537-1.5829048,1.2698975c-0.0912399,0.1330452-0.2395248,0.1748924-0.3738861,0.2293892
	c-0.2749863,0.1127777-0.5043755,0.3180733-0.5854797,0.5690041c-0.1381531,0.429657-0.4220352,0.7414246-0.712265,1.0367203
	c-0.3409309,0.3459587-0.5360909,0.7908134-0.8706779,1.1406021c-0.1622086,0.1698265-0.3092194,0.3573685-0.4739799,0.5322609
	c-0.3852539,0.4042854-0.8047371,0.7401505-1.2964668,1.0126228c-0.2965698,0.1634865-0.5285149,0.4524345-0.7680359,0.7059212
	c-0.1064377,0.1127777-0.2091217,0.2217712-0.3561325,0.2509308c-0.3244133,0.0633545-0.5538025,0.2927399-0.6754799,0.5424347
	c-0.190094,0.3916016-0.4283791,0.7363205-0.7413864,1.0164185c-0.3269691,0.294014-0.5031395,0.6843338-0.7401466,1.0303345
	c-0.3915977,0.5728302-0.8706436,1.0557098-1.4105644,1.4637833c-0.4701881,0.3561249-0.9365463,0.7071915-1.3471718,1.1304703
	c-0.046875,0.0494232-0.1292572,0.0722427-0.1989899,0.0899963c-0.4334068,0.1064377-0.7274246,0.3928757-0.8744316,0.7857437
	c-0.1305733,0.3459625-0.3662682,0.4384766-0.6805878,0.4460983c-0.4296188,0.0101318-0.859272,0.0228195-1.2483177,0.2230453
	c-0.4917297,0.2534866-1.0202408,0.3206635-1.5562935,0.339653c-0.2927818,0.0088577-0.5158272,0.1913681-0.7883034,0.2559967
	c-0.3218994,0.0760422-0.6336708,0.1698303-0.9657059,0.2243271c-0.3422089,0.0557709-0.7021294,0.0785904-1.0278244,0.2331772
	c-0.0798645,0.0380173-0.1799583,0.0532608-0.2686844,0.0481873c-0.2800941-0.0126801-0.3954239-0.1863022-0.2990837-0.4537048
	c0.1013718-0.2826462,0.233181-0.5791779,0.4739799-0.7439423c0.6095772-0.4194794,1.1418762-0.9276886,1.7210541-1.3814011
	c0.043087-0.0329514,0.088726-0.0899963,0.135601-0.092514c0.4575005-0.0266113,0.672966-0.3738861,0.8833275-0.6957855
	c0.2484169-0.378952,0.6171951-0.6349487,0.9201088-0.9542999c0.3928757-0.4106293,0.6995773-0.86689,0.9733276-1.3497238
	c0.3079414-0.5449524,0.6919594-1.0075607,1.2381821-1.3231201c0.1318092-0.0747604,0.2445908-0.1748886,0.3244553-0.3016357
	c0.2369728-0.3852539,0.6070633-0.5918198,1.0138626-0.7350388c0.2027779-0.0709763,0.3523407-0.1736221,0.4752541-0.3548584
	c0.3168373-0.4587784,0.7401466-0.8250427,1.146946-1.196373c0.48032-0.4359589,0.8047752-0.9707756,1.1203346-1.5157623
	c0.1888199-0.3269691,0.4017334-0.623539,0.6945114-0.8642998c0.3130455-0.2585526,0.6349487-0.5044174,0.8643379-0.8567581
	c0.1431808-0.2192535,0.3941498-0.3865318,0.6336708-0.4346809c0.4093513-0.0823822,0.6564941-0.3434486,0.8757095-0.6349487
	c0.2927818-0.3903236,0.6881676-0.6691399,1.0354424-0.994873c0.4271011-0.4029655,0.7692719-0.8554039,1.046814-1.3585815
	c0.2661324-0.4802818,0.576664-0.9124527,1.0227547-1.2343941c0.1711044-0.1254654,0.283886-0.2927017,0.3979416-0.4613304
	c0.193924-0.2851219,0.4397888-0.5335007,0.7642059-0.6260147c0.5006256-0.1419411,0.816185-0.4968338,1.1203346-0.8656502
	c0.2496567-0.3053894,0.5778999-0.5221329,0.8833275-0.7387962c0.2686844-0.1926842,0.6603203-0.2179794,0.999939-0.3080177
	c1.0138969-0.2686462,2.0404434-0.5031013,3.0454483-0.809803c0.5322647-0.1635246,1.0658417-0.2788582,1.6120682-0.3586845
	C59.4904518,51.0811729,59.6640701,50.8948326,59.8681259,50.9024124"/>
<path d="M45.3641281,31.4695835c-0.3662643,0-0.4778061-0.1482086-0.3384171-0.4524364
	c0.1318092-0.2889118,0.3130455-0.5474243,0.5462227-0.7692719c0.240799-0.2306652,0.4461327-0.4752541,0.5905876-0.7945652
	c0.1748962-0.38274,0.4144173-0.7553482,0.7997093-0.9809856c0.1736183-0.1026478,0.2737541-0.2674084,0.3383789-0.4283009
	c0.2445908-0.6032734,0.712265-1.0367584,1.1216164-1.5094585c0.2813301-0.3244171,0.5398788-0.6628361,0.7743378-1.0176525
	c0.3282433-0.4980717,0.7401085-0.9340324,1.0772514-1.4130764c0.5208511-0.7388725,1.1595917-1.385231,1.6222-2.1633968
	c0.1533508-0.2572746,0.339653-0.4866257,0.5398788-0.7071571c0.7363205-0.811121,1.2926788-1.767971,2.0201416-2.5815659
	c0.6070633-0.6793118,1.002491-1.5208302,1.6893806-2.1354733c0.1343231-0.1204395,0.2217712-0.2978859,0.3269691-0.4511986
	c0.1039238-0.1520748,0.1812401-0.3320742,0.3117714-0.4600153c0.3852539-0.3802662,0.7211189-0.7920914,0.9403763-1.292717
	c0.0278854-0.0671425,0.0620728-0.147047,0.1178436-0.1875801c0.7566261-0.5411587,1.1862411-1.3648863,1.7527351-2.0657787
	c0.6184731-0.762928,1.3243904-1.4536095,1.8756828-2.2710724c0.0405731-0.0595608,0.100132-0.1191225,0.1634865-0.1482849
	c0.2915039-0.1355991,0.429615-0.3928738,0.5715561-0.6590443c0.1761703-0.3269691,0.3738861-0.6349096,0.7325287-0.8135939
	c0.1596947-0.0785904,0.3016396-0.2255607,0.4081154-0.3751607c0.5867577-0.8212523,1.3408279-1.4916673,2.0074539-2.2393575
	c0.2978439-0.3333125,0.6007233-0.6615968,0.9074249-0.9860134c0.1267395-0.1343617,0.2559967-0.2749887,0.4093475-0.3751602
	c0.2572784-0.1697888,0.4397888-0.392874,0.5905838-0.6551766c0.1977158-0.3447604,0.4549942-0.6286445,0.8275986-0.8022237
	c0.1292572-0.0621142,0.2648544-0.1584182,0.3434448-0.2763035c0.4980392-0.7337668,1.2090225-1.2584494,1.8211517-1.8795135
	c0.143219-0.1469699,0.286438-0.2914646,0.4347229-0.4334066c0.1470108-0.140627,0.3028717-0.2052938,0.4967957-0.0709323
	c0.1799622,0.1229133,0.1584167,0.2762261,0.0963058,0.4423022c-0.0443649,0.1216756-0.09758,0.2407986-0.1457367,0.3611593
	c-0.1863022,0.4651212-0.3624725,0.932795-0.4917297,1.4181824c-0.0316772,0.1254661-0.057045,0.2559597-0.1115417,0.3712926
	c-0.6247787,1.307955-0.9010773,2.7488792-1.5474014,4.0491762c-0.0659027,0.1305714-0.0950623,0.2800937-0.1368713,0.4232736
	c-0.1622467,0.5475016-0.4207611,1.0316515-0.906189,1.3637266c-0.1736145,0.1203604-0.2838821,0.283884-0.380188,0.470149
	c-0.1977081,0.380188-0.4955215,0.6527004-0.8364487,0.9290047c-0.9479599,0.7742996-2.0163498,1.4003916-2.8528061,2.3128424
	c-0.1786842,0.1952381-0.3168335,0.4132175-0.4144135,0.6564913c-0.135601,0.3396559-0.3599243,0.6096163-0.6463203,0.820015
	c-0.2053337,0.1495228-0.3270073,0.3396559-0.4397888,0.5601101c-0.1850281,0.3612366-0.3928757,0.7008924-0.7908134,0.8972902
	c-0.2053337,0.100172-0.3396568,0.3371029-0.5284729,0.4815979c-0.4397888,0.3396549-0.9036331,0.6489105-1.3408699,0.9911194
	c-0.6121292,0.4802818-1.2597237,0.9352684-1.5600853,1.7045403c-0.0278854,0.0671425-0.0697327,0.1381531-0.1242294,0.182476
	c-0.4625664,0.3865299-0.7844696,0.8757858-1.0734215,1.3953629c-0.1178856,0.2116375-0.2737503,0.380188-0.5119972,0.4891777
	c-0.2877121,0.1331234-0.4271011,0.4448547-0.669178,0.6501484c-0.3409309,0.28899-0.719841,0.5171032-1.0721817,0.7845097
	c-0.4144173,0.3155994-0.8212166,0.6374645-1.2204323,0.9720917c-0.1584167,0.1342831-0.2788162,0.2978077-0.3776741,0.4802818
	c-0.0342293,0.0646667-0.0532188,0.144495-0.1014099,0.196476c-0.5500145,0.6007195-1.0265465,1.2508678-1.4181442,1.9656067
	c-0.76548,0.5639782-1.3510017,1.3408298-2.2013779,1.8160839c-0.4486427,0.2509327-0.8212509,0.6336727-1.2242584,0.9631939
	c-0.0709686,0.0570869-0.1191216,0.1407051-0.1774063,0.2129517c-0.0114098,0.0139236-0.0203056,0.0316372-0.0278854,0.0481148
	c-0.1875801,0.4207973-0.5627022,0.680624-0.855484,1.0126228c-0.2927399,0.3295212-0.3421669,0.8224888-0.6539383,1.1469841
	c-0.239521,0.2483788-0.5703201,0.4004536-0.7375946,0.7325287C45.64925,31.4835835,45.4680138,31.454422,45.3641281,31.4695835"/>
<path d="M42.666687,112.5976486c0.2674103,0.0139618,0.3890457,0.1673126,0.3168373,0.3726044
	c-0.0596008,0.1698303-0.0900002,0.3649902-0.2699623,0.4689102c-0.0164757,0.0088959-0.0342255,0.0203094-0.0430832,0.0355072
	c-0.4385109,0.7984314-1.2039948,1.3547897-1.6095543,2.1760406c-0.1279793,0.2597885-0.3624344,0.4435425-0.5588722,0.603241
	c-0.4106255,0.3320312-0.5576324,0.8263168-0.8846054,1.1989212c-0.0697327,0.0798264-0.0963402,0.2015076-0.196434,0.2635803
	c-0.4245911,0.2636185-0.6286087,0.7059174-0.9213867,1.0823212c-0.4169312,0.5386429-0.7844696,1.1228867-1.2850571,1.5968628
	c-0.2712402,0.2559967-0.5120354,0.5360947-0.6704559,0.8820953c-0.1558647,0.340889-0.3497887,0.6552124-0.6919556,0.8516464
	c-0.1989899,0.1165695-0.3396568,0.3041534-0.4182091,0.512001c-0.196476,0.523407-0.5867958,0.8871155-0.9860115,1.2470779
	c-0.1115456,0.10009-0.1951637,0.2179794-0.276268,0.3446808c-0.3941498,0.619751-0.818737,1.2141266-1.3269043,1.7540131
	c-0.4004936,0.4258194-0.7743759,0.8934937-1.0265846,1.4346542c-0.0874481,0.1888199-0.1976757,0.3497925-0.3915977,0.4524384
	c-0.3256931,0.1748886-0.5271969,0.465126-0.6590061,0.8022232c-0.0748005,0.193924-0.1774464,0.3675385-0.3029118,0.5297546
	c-0.1051998,0.1381378-0.2433128,0.2192535-0.4118652,0.267395c-0.1571808,0.045639-0.3105316,0.032959-0.4233112-0.0659027
	c-0.1254654-0.11026-0.1140575-0.3054199-0.0392952-0.4156952c0.3041897-0.4537048,0.28895-0.9885254,0.433445-1.4802475
	c0.0937901-0.315567,0.2750263-0.6057892,0.4245491-0.902359c0.0684586-0.1343231,0.140667-0.2661362,0.1305332-0.420723
	c-0.0266094-0.4093857,0.1533508-0.76548,0.3282452-1.1064148c0.1546288-0.3016357,0.2712383-0.6083374,0.3561325-0.9314804
	c0.1127796-0.4321671,0.2737503-0.7832336,0.8098431-0.8554764c0.2813301-0.0380173,0.5373306-0.2572784,0.7249107-0.4930115
	c0.1863022-0.236969,0.4068336-0.4283371,0.6412888-0.6121292c0.4308929-0.3370972,0.7046432-0.8136292,1.049366-1.2267685
	c0.3193512-0.3852539,0.6184349-0.7882996,0.8719177-1.2229843c0.1470108-0.2522125,0.3219032-0.4739761,0.5829697-0.6514282
	c0.2686844-0.1824722,0.479084-0.4663544,0.6767578-0.7337646c0.1318092-0.1774445,0.2775803-0.2686844,0.4815979-0.3358688
	c0.3916359-0.1280136,0.7540703-0.3193817,0.9872513-0.6856079c0.0304375-0.0469208,0.0621147-0.1014099,0.1064758-0.1280212
	c0.813633-0.4739761,1.2508698-1.3079147,1.8769226-1.961853c0.1394272-0.1444626,0.2382851-0.3307648,0.342205-0.5069351
	c0.2090874-0.3497849,0.4080734-0.6894455,0.756588-0.9454422c0.2445869-0.1786804,0.433445-0.4651184,0.583004-0.7388687
	C41.9759674,112.6496277,42.3891068,112.73452,42.666687,112.5976486"/>
</svg>
