<?xml version="1.0" encoding="UTF-8" standalone="no"?>
<!DOCTYPE svg PUBLIC "-//W3C//DTD SVG 1.1//EN" "http://www.w3.org/Graphics/SVG/1.1/DTD/svg11.dtd">
<svg width="100%" height="100%" viewBox="0 0 1191 210" version="1.1" xmlns="http://www.w3.org/2000/svg" xmlns:xlink="http://www.w3.org/1999/xlink" xml:space="preserve" xmlns:serif="http://www.serif.com/" style="fill-rule:evenodd;clip-rule:evenodd;stroke-linejoin:round;stroke-miterlimit:1.41421;">
    <g id="Монтажная-область1" serif:id="Монтажная область1" transform="matrix(1.0038,0,0,0.821392,-393.306,-305.578)">
        <rect x="391.816" y="372.025" width="1185.97" height="254.781" style="fill:none;"/>
        <g id="path3724" transform="matrix(0.996212,0,0,1.21745,6.78966,-136.266)">
            <path d="M1443.62,624.042C1435.78,620.485 1430.66,615.675 1428.95,610.267C1427.92,607.029 1429.57,607.438 1435.44,611.887C1441.27,616.293 1446.11,618.017 1452.65,618.017C1460.11,618.017 1463.05,613.255 1465.32,597.517C1465.88,593.667 1466.34,589.02 1466.35,587.19L1466.37,583.862L1462.15,587.473C1457.1,591.796 1449.1,595.863 1444.02,596.688C1439.39,597.438 1436.58,595.189 1435.77,590.09L1435.19,586.499L1430.53,590.836C1423.67,597.22 1418.14,600.819 1413.14,602.156C1403.68,604.686 1396.55,597.232 1395.59,583.815L1395.09,576.857L1389.48,582.319C1381.28,590.308 1360.93,606.689 1356.26,609.074C1353.98,610.239 1350.84,610.999 1349.05,610.825C1346.25,610.554 1345.87,610.157 1345.87,607.517C1345.87,604.797 1346.58,604.145 1353.49,600.517C1366.43,593.724 1366.59,593.277 1359.77,582.517L1355.17,575.258L1348.02,582.505C1332.87,597.862 1316.29,604.176 1306.25,598.411C1302.12,596.042 1298.37,589.04 1298.37,583.705L1298.37,579.817L1292.62,585.087C1286.02,591.14 1278.74,596.017 1276.31,596.017C1273.93,596.017 1269.41,592.215 1268.14,589.136C1267.54,587.696 1266.55,583.668 1265.93,580.185L1264.82,573.853L1261.36,579.185C1256.51,586.676 1246.67,596.208 1240.93,598.988C1238.26,600.281 1233.94,601.545 1231.32,601.796C1227,602.212 1226.41,602.004 1224.76,599.482C1220.45,592.908 1224.7,577.714 1234.74,563.8C1242.08,553.622 1246,550.744 1253.25,550.22C1258.49,549.841 1259.27,550.039 1260.73,552.123C1261.63,553.402 1262.64,555.923 1262.98,557.724C1263.31,559.526 1263.94,560.785 1264.36,560.522C1265.25,559.974 1267.02,548.239 1267.98,536.517C1268.34,532.117 1269.04,527.73 1269.54,526.768C1270.53,524.857 1276.79,524.274 1277.86,525.994C1278.19,526.531 1277.09,534.453 1275.42,543.597C1273.19,555.772 1272.38,563.209 1272.38,571.371C1272.4,586.127 1272.77,587.388 1276.76,586.589C1280.54,585.835 1288.12,580.887 1294.87,574.778C1298.34,571.635 1300.4,568.739 1301.6,565.303C1305.05,555.455 1313.94,547.017 1320.88,547.017C1323.94,547.017 1328.02,550.787 1328.95,554.475C1330.47,560.536 1322.65,571.218 1309.46,581.081C1306.59,583.233 1306.16,584.049 1306.73,586.311C1308.32,592.63 1318.02,594.158 1327.88,589.643C1334.83,586.462 1340.31,582.643 1348.12,575.534C1353.09,571.016 1354.37,569.245 1354.37,566.901C1354.37,559.909 1360.97,551.017 1366.17,551.017C1367.97,551.017 1369.4,551.645 1369.76,552.599C1371.15,556.204 1370.21,558.762 1365.97,562.918C1362.09,566.726 1361.67,567.567 1362.38,570.045C1363.38,573.539 1371.32,587.017 1372.38,587.017C1373.73,587.017 1384.65,578.566 1390.62,572.9C1394.79,568.947 1396.37,566.717 1396.37,564.807C1396.37,561.23 1401.02,555.825 1403.75,556.215C1406.11,556.551 1406.05,555.564 1404.8,574.079C1403.7,590.438 1406.2,595.443 1414.13,592.714C1422.3,589.896 1436.83,577.641 1443.34,568.07C1447.63,561.757 1455.57,554.003 1460.16,551.624C1464.43,549.419 1471.56,549.542 1474.44,551.871L1476.73,553.724L1475.46,571.121C1472.73,608.493 1469.31,619.451 1458.69,624.898C1455.37,626.598 1448.37,626.2 1443.62,624.042L1443.62,624.042ZM1241.94,590.429C1247.06,587.028 1254.85,579.245 1258.16,574.216C1259.3,572.483 1259.39,571.631 1258.52,570.766C1257.89,570.134 1257.37,567.302 1257.37,564.472C1257.37,558.075 1254.84,555.028 1250.98,556.785C1246.21,558.958 1232.77,579.464 1230.95,587.353C1229.23,594.794 1233.54,596.002 1241.94,590.429ZM1453.87,585.912C1464.7,580.825 1468.3,575.066 1468.35,562.767C1468.37,557.049 1468.36,557.017 1465.39,557.017C1457.58,557.017 1439.44,584.859 1445.62,587.355C1447.92,588.283 1449.37,588.031 1453.87,585.912ZM1315.38,568.184C1321.83,561.957 1323.47,555.017 1318.49,555.017C1314.96,555.017 1308.86,564.163 1306.96,572.32C1306.35,574.931 1306.45,575.045 1308.43,573.987C1309.6,573.362 1312.73,570.751 1315.38,568.184ZM388.317,605.451C387.248,604.163 387.316,601.373 388.7,589.701C390.979,570.482 392.352,553.948 392.369,545.517C392.392,534.355 395.182,527.017 399.405,527.017C402.831,527.017 403.804,529.641 402.481,535.314C401.814,538.176 400.382,549.927 399.299,561.427C398.216,572.927 397.066,583.39 396.743,584.677C395.843,588.264 397.811,587.464 400.727,583.057C409.245,570.186 421.704,559.017 427.545,559.017C431.578,559.017 433.038,562.009 434.812,573.909C435.665,579.624 436.909,584.96 437.578,585.766C438.46,586.829 439.972,587.07 443.077,586.644C452.08,585.41 463.024,577.81 470.618,567.517C476.692,559.285 481.104,555.113 486.149,552.833C491.348,550.483 493.495,551.018 498.968,556.026C502.185,558.97 504.665,560.152 510.53,561.534C518.751,563.472 529.372,562.957 529.372,560.62C529.372,559.93 530.517,558.29 531.917,556.975C533.919,555.095 534.826,554.812 536.167,555.652C538.69,557.232 538.742,562.479 536.365,575.557C535.199,581.973 534.443,587.421 534.685,587.663C535.076,588.054 541.022,579.131 547.213,568.864C550.891,562.765 556.86,558.017 560.852,558.017C565.925,558.017 567.366,560.887 568.428,573.109C568.914,578.709 569.521,583.499 569.776,583.754C570.748,584.727 572.289,582.771 577.378,574.102C584.066,562.708 589.398,557.017 593.386,557.017C597.528,557.017 599.086,560.032 599.844,569.517C600.196,573.917 601.171,579.43 602.011,581.767C603.292,585.333 603.97,586.017 606.223,586.017C607.7,586.017 610.7,584.833 612.89,583.386C617.723,580.192 627.369,570.984 627.382,569.552C627.409,566.957 632.847,557.147 636.181,553.685C643.402,546.188 649.457,544.953 653.783,550.094C657.046,553.972 657.161,559.072 654.106,564.449C652.071,568.031 641.196,578.344 635.579,582.017C633.535,583.354 633.405,583.855 634.377,586.624C636.219,591.87 641.832,593.565 650.197,591.401C658.152,589.343 665.212,584.839 675.487,575.267C680.358,570.73 684.8,567.017 685.358,567.017C689.038,567.017 682.568,575.953 671.41,586.279C661.531,595.422 651.809,600.245 643.095,600.327C632.678,600.425 627.636,596.012 625.888,585.266L625.196,581.015L619.623,585.982C612.377,592.44 606.172,595.39 601.628,594.538C598.815,594.01 597.879,593.15 596.368,589.707C595.357,587.403 593.991,581.692 593.334,577.017C592.676,572.342 591.825,568.174 591.442,567.754C590.303,566.505 586.274,571.514 579.372,582.76C572.548,593.881 568.961,597.564 566.045,596.445C563.244,595.371 562.467,592.818 561.766,582.387C561.402,576.959 560.551,571.167 559.876,569.517L558.649,566.517L554.761,570.68C552.622,572.969 548.213,579.269 544.962,584.68C534.635,601.871 532.865,603.428 528.777,598.914C526.607,596.517 526.337,590.799 527.758,577.315L528.622,569.113L521.747,569.643C517.122,569.999 513.318,569.689 510.122,568.693L505.372,567.213L505.372,572.22C505.372,581.76 496.918,593.816 487.338,597.937C480.305,600.963 472.067,601.703 468.854,599.597C465.277,597.253 462.381,592.15 462.376,588.183L462.372,584.849L458.3,588.074C453.205,592.11 443.984,595.963 439.345,595.994C432.065,596.043 428.987,591.526 427.361,578.404C426.755,573.517 425.883,569.138 425.423,568.675C422.444,565.673 408.157,582.155 396.161,602.434C393.3,607.27 390.667,608.283 388.317,605.451L388.317,605.451ZM487.546,589.242C493.338,585.257 497.493,579.162 498.08,573.79C498.781,567.374 497.222,564.487 491.75,562.066L487.025,559.976L484.136,562.743C482.548,564.265 479.187,568.527 476.668,572.213C471.177,580.25 469.755,587.572 472.99,591.147C475.6,594.032 481.756,593.226 487.546,589.242ZM645.33,565.412C647.706,562.707 648.409,561.045 648.178,558.677C647.332,549.987 636.981,559.927 634.807,571.516L634.074,575.422L638.125,572.213C640.353,570.448 643.596,567.388 645.33,565.412ZM720.372,511.017L720.372,420.017L767.372,420.017L767.372,564.963L781.622,565.24L795.872,565.517L796.145,583.767L796.417,602.017L758.395,602.017L720.372,602.017L720.372,511.017ZM808.372,583.517L808.372,565.017L842.372,565.017L842.372,602.017L825.372,602.017L808.372,602.017L808.372,583.517ZM845.431,599.267C845.465,597.755 850.767,556.917 857.216,508.517L868.941,420.517L903.074,420.254L937.208,419.991L937.77,422.754C938.3,425.357 964.372,600.613 964.372,601.57C964.372,601.816 953.414,602.017 940.02,602.017L915.667,602.017L914.975,591.267C914.594,585.355 914.012,577.913 913.681,574.729L913.079,568.941L904.987,569.229C898.697,569.453 896.85,569.851 896.697,571.017C896.589,571.842 895.963,579.155 895.307,587.267L894.114,602.017L869.743,602.017L845.372,602.017L845.431,599.267L845.431,599.267ZM911.938,534.767C911.178,531.147 906.063,478.952 905.25,466.517C905.003,462.736 900.007,500.897 896.839,530.767L896.176,537.017L904.293,537.017C912.184,537.017 912.397,536.955 911.938,534.767ZM972.372,583.517L972.372,565.017L1007.37,565.017L1007.37,602.017L989.872,602.017L972.372,602.017L972.372,583.517ZM1020.37,510.982L1020.37,419.76L1054.12,420.31C1096.8,421.007 1104.11,422.368 1114.23,431.507C1122.67,439.13 1126.33,450.926 1126.36,470.586C1126.37,485.005 1124.85,491.2 1120.15,495.738C1116.64,499.124 1109.13,502.959 1105.92,502.996C1103.18,503.026 1105,504.367 1110.55,506.406C1126.82,512.392 1131.1,523.473 1130.09,557.017C1129.34,581.557 1126.87,589.56 1118.13,595.663C1110.83,600.765 1106.33,601.249 1061.62,601.746L1020.37,602.204L1020.37,510.982ZM1079.82,567.022C1081.7,565.135 1081.9,563.56 1082.19,547.765C1082.37,538.304 1082.23,529.087 1081.89,527.283C1081.15,523.302 1078.42,521.453 1072.12,520.656L1067.37,520.056L1067.37,570.719L1072.57,569.898C1075.59,569.421 1078.62,568.218 1079.82,567.022L1079.82,567.022ZM1079.83,488.973C1081.53,487.297 1081.85,485.312 1082.19,474.26C1082.76,456.054 1080.69,452.017 1070.81,452.017L1067.37,452.017L1067.37,492.275L1072.62,491.592C1075.72,491.189 1078.67,490.116 1079.83,488.973L1079.83,488.973ZM1141.37,583.517L1141.37,565.017L1175.37,565.017L1175.37,602.017L1158.37,602.017L1141.37,602.017L1141.37,583.517ZM1490.75,593.467C1489.34,591.326 1489.17,589.282 1489.7,580.717C1490.69,564.415 1494.16,554.563 1498.68,555.206C1501.74,555.641 1501.88,558.481 1499.37,568.51C1498.2,573.194 1497.38,578.263 1497.56,579.772C1497.85,582.298 1498.53,581.698 1506.19,572.248C1514.84,561.557 1517.03,559.606 1521.62,558.477C1528.78,556.717 1532.58,561.523 1533.93,574.017C1535.39,587.635 1538.47,590.163 1547.94,585.528C1551.58,583.747 1556.5,579.759 1562.26,573.914C1567.08,569.019 1571.33,565.314 1571.7,565.682C1574.3,568.275 1569.77,575.572 1559.63,585.137C1551.38,592.92 1545.52,596.017 1539.06,596.017C1531.67,596.017 1528.81,592.06 1526.37,578.517C1524.79,569.792 1523.89,568.017 1521.03,568.017C1518.49,568.017 1514.64,571.798 1508.81,580.017C1503.69,587.24 1495.43,596.017 1493.75,596.017C1493.02,596.017 1491.66,594.87 1490.75,593.467ZM1402.62,537.355C1400.38,536.451 1401.27,531.961 1404.29,528.941C1408.93,524.302 1414.37,525.411 1414.37,530.995C1414.37,535.364 1411.76,538.028 1407.56,537.939C1405.53,537.895 1403.31,537.633 1402.62,537.355Z" style="fill-rule:nonzero; fill:#fff"/>
        </g>
    </g>
</svg>
