<svg xmlns="http://www.w3.org/2000/svg" width="74" height="74" viewBox="0 0 74 74">
    <g fill="none" fill-rule="evenodd" transform="translate(1 1)">
        <circle cx="36" cy="36" r="36" stroke="#41B25D" stroke-width="2"/>
        <g fill="#102716">
            <path fill-rule="nonzero" d="M46.56 49.067h-1.32V47.2h-2.2v-4.77c0-1.26-.59-2.43-1.58-3.13L36.794 36l4.668-3.3c.989-.7 1.579-1.87 1.579-3.13V24.8h2.2v-1.867h1.32c.243 0 .44-.208.44-.466S46.803 22 46.56 22H25.44c-.243 0-.44.209-.44.467s.197.466.44.466h1.32V24.8h2.2v4.77c0 1.26.59 2.43 1.58 3.13l4.667 3.3-4.668 3.3c-.989.7-1.579 1.87-1.579 3.13v4.77h-2.2v1.867h-1.32c-.243 0-.44.208-.44.466s.197.467.44.467H46.56c.243 0 .44-.209.44-.467s-.197-.466-.44-.466zm-18.92-25.2v-.934h16.72v.934H27.64zm3.387 8.056c-.743-.526-1.187-1.405-1.187-2.353V24.8h12.32v4.77c0 .948-.444 1.827-1.187 2.353L36 35.44l-4.973-3.516zM29.84 42.43c0-.948.444-1.827 1.187-2.353L36 36.56l4.973 3.516c.743.526 1.187 1.405 1.187 2.353v4.77H29.84v-4.77zm-2.2 5.703h16.72v.934H27.64v-.934z"/>
            <path d="M32.458 30.503a1.047 1.047 0 0 1-.458-.87v-1.126a.503.503 0 0 0-.5-.507c-.276 0-.5.227-.5.507v1.127c0 .69.338 1.33.904 1.713l2.319 1.568a.494.494 0 0 0 .693-.14.512.512 0 0 0-.138-.704l-2.32-1.568zM40.096 41.653l-2.319-1.568a.495.495 0 0 0-.693.14.512.512 0 0 0 .138.704l2.32 1.568c.287.194.458.519.458.87v1.126c0 .28.224.507.5.507s.5-.227.5-.507v-1.127c0-.69-.338-1.33-.904-1.713z"/>
        </g>
    </g>
</svg>
