<svg xmlns="http://www.w3.org/2000/svg" width="74" height="74" viewBox="0 0 74 74">
    <g fill="none" fill-rule="evenodd" transform="translate(1 1)">
        <circle cx="36" cy="36" r="36" stroke="#41B25D" stroke-width="2"/>
        <g fill="#102716">
            <path fill-rule="nonzero" d="M26 46a1 1 0 1 0 0 2 1 1 0 0 0 0-2zm0 1.333a.333.333 0 1 1 0-.666.333.333 0 0 1 0 .666z"/>
            <path fill-rule="nonzero" d="M49.534 26.667h-1.4c-5.797 0-9.72-1.591-10.764-4.365A.495.495 0 0 0 36.93 22a.467.467 0 0 0-.436.311c-1.02 2.89-4.483 4.356-10.293 4.356h-1.867a.467.467 0 0 0-.466.466V36h-1.4a.467.467 0 0 0-.467.466v13.067c0 .258.209.467.466.467h23.477A4.061 4.061 0 0 0 50 45.944v-18.81a.467.467 0 0 0-.466-.467zm-21.467 22.4h-5.134V36.933h5.134v12.134zm19.135-1.054a1.23 1.23 0 0 1-1.259 1.054H29V36.933h6.067a.467.467 0 0 0 .44-.31l1.801-5.045a1.503 1.503 0 0 1 2.88.844l-.91 3.94a.466.466 0 0 0 .455.571h6.203a1.23 1.23 0 0 1 1.259 1.055c.06.623-.381 1.182-1 1.268a.482.482 0 0 0-.002.955 1.167 1.167 0 0 1-.153 2.323.467.467 0 0 0 .001.933 1.167 1.167 0 0 1 .153 2.322.482.482 0 0 0 0 .955 1.17 1.17 0 0 1 1.008 1.269zm1.865-2.07c0 .846-.344 1.654-.952 2.24.004-.028.014-.055.016-.084a2.1 2.1 0 0 0-.776-1.835A2.095 2.095 0 0 0 47.35 43a2.095 2.095 0 0 0 .003-3.265 2.101 2.101 0 0 0 .771-1.832A2.168 2.168 0 0 0 45.936 36H40.32l.777-3.369a2.436 2.436 0 0 0-2.071-2.965 2.415 2.415 0 0 0-2.597 1.599L34.738 36H24.8v-8.4h1.4c5.628 0 9.236-1.359 10.75-4.041 2.13 3.49 7.815 4.041 11.183 4.041h.934v18.344z"/>
            <path d="M35.434 27a9.076 9.076 0 0 1-5.817 2.117h-3.175a.443.443 0 0 0-.442.444V34h.883v-3.995h2.734A9.96 9.96 0 0 0 36 27.682L35.434 27zM47.559 29.117h-3.176A9.076 9.076 0 0 1 38.565 27l-.565.682a9.96 9.96 0 0 0 6.383 2.323h2.734V34H48v-4.44a.443.443 0 0 0-.441-.443z"/>
        </g>
    </g>
</svg>
