<svg xmlns="http://www.w3.org/2000/svg" width="74" height="74" viewBox="0 0 74 74">
    <g fill="none" fill-rule="evenodd" transform="translate(1 1)">
        <circle cx="36" cy="36" r="36" stroke="#41B25D" stroke-width="2"/>
        <g fill="#08200E">
            <path d="M31.819 29.114a.5.5 0 1 0-.637.77.5.5 0 0 0 .637-.77z"/>
            <path fill-rule="nonzero" d="M38.975 31.253a.508.508 0 0 0-.404-.355l-1.466-.222-.655-1.385A.5.5 0 0 0 36 29a.5.5 0 0 0-.45.291l-.655 1.385-1.466.222a.508.508 0 0 0-.404.355.538.538 0 0 0 .126.536l1.06 1.078-.25 1.522a.533.533 0 0 0 .2.511c.154.117.36.133.528.04L36 34.22l1.31.719a.484.484 0 0 0 .529-.04.533.533 0 0 0 .2-.511l-.25-1.522 1.06-1.078a.538.538 0 0 0 .126-.536zM36.9 32.311a.537.537 0 0 0-.144.462l.123.749-.644-.354a.483.483 0 0 0-.467 0l-.645.354.123-.749a.537.537 0 0 0-.144-.462l-.522-.53.721-.11a.503.503 0 0 0 .378-.286l.322-.68.322.68a.503.503 0 0 0 .378.286l.721.11-.522.53z"/>
            <path d="M36.5 26c-2.72 0-4.367 1.7-4.403 1.721a.542.542 0 1 0 .73.801c1.084-.983 2.374-1.439 3.673-1.439a5.423 5.423 0 0 1 5.417 5.417 5.42 5.42 0 0 1-5.417 5.417 5.422 5.422 0 0 1-5.39-5.966.542.542 0 1 0-1.077-.106A6.507 6.507 0 0 0 36.5 39c3.61 0 6.5-2.94 6.5-6.5 0-3.584-2.916-6.5-6.5-6.5z"/>
            <path fill-rule="nonzero" d="M45.887 31.8l-1.489-1.946.33-2.439a.548.548 0 0 0-.33-.58l-2.25-.931-.918-2.28a.538.538 0 0 0-.573-.334l-2.406.334-1.92-1.51a.534.534 0 0 0-.662 0l-1.92 1.51-2.406-.334a.539.539 0 0 0-.573.335l-.918 2.279-2.25.93a.548.548 0 0 0-.33.581l.33 2.439-1.489 1.945a.553.553 0 0 0 0 .67l1.489 1.946-.33 2.439a.548.548 0 0 0 .33.58l2.25.93.918 2.28c.093.231.329.37.573.335l.88-.122v8.596c0 .221.131.42.333.505a.535.535 0 0 0 .588-.118L36 46.945l2.856 2.895a.535.535 0 0 0 .588.118.547.547 0 0 0 .333-.505v-8.596l.88.122a.538.538 0 0 0 .573-.335l.918-2.28 2.25-.93a.548.548 0 0 0 .33-.58l-.33-2.44 1.489-1.945a.553.553 0 0 0 0-.67zm-7.189 16.333l-2.316-2.348a.535.535 0 0 0-.764 0l-2.316 2.348v-7.426l.447-.062 1.92 1.509a.534.534 0 0 0 .662 0l1.92-1.509.447.062v7.426zm4.708-14.207a.552.552 0 0 0-.108.41l.304 2.246-2.072.857a.543.543 0 0 0-.296.3l-.845 2.099-.94-.13a.527.527 0 0 0-.278-.04l-.999-.138a.534.534 0 0 0-.403.11L36 41.03l-1.769-1.39a.534.534 0 0 0-.403-.11l-2.217.308-.845-2.1a.543.543 0 0 0-.296-.3l-2.072-.856.304-2.246a.552.552 0 0 0-.108-.41l-1.371-1.792 1.37-1.791a.552.552 0 0 0 .109-.41l-.304-2.246 2.072-.858a.543.543 0 0 0 .295-.3l.846-2.098 2.217.308c.144.02.289-.02.404-.11L36 23.239l1.768 1.39c.115.09.26.13.404.11l2.217-.308.845 2.099a.543.543 0 0 0 .296.3l2.072.857-.304 2.246c-.02.146.02.293.108.41l1.371 1.791-1.37 1.792z"/>
        </g>
    </g>
</svg>
