<svg  width="15" height="17" viewBox="0 0 15 17">
    <path fill="#08200E" fill-rule="evenodd" d="M10.86 12.67c.416-.428.963-.642 1.64-.642.677 0 1.25.24 1.719.722.469.481.703 1.07.703 1.764 0 .695-.234 1.283-.703 1.764A2.308 2.308 0 0 1 12.5 17c-.677 0-1.25-.24-1.719-.722-.469-.48-.703-1.069-.703-1.764 0-.16.026-.347.078-.561L4.22 10.425a2.464 2.464 0 0 1-1.719.681c-.677 0-1.263-.254-1.758-.762A2.498 2.498 0 0 1 0 8.54c0-.695.24-1.296.723-1.804.481-.508 1.06-.762 1.738-.762.651 0 1.224.227 1.719.682l5.898-3.489A3.462 3.462 0 0 1 10 2.566c0-.695.247-1.296.742-1.804S11.822 0 12.5 0c.677 0 1.263.254 1.758.762.495.508.742 1.11.742 1.804 0 .695-.247 1.296-.742 1.804s-1.08.762-1.758.762a2.464 2.464 0 0 1-1.719-.682L4.883 7.94c.052.267.078.467.078.601 0 .134-.026.334-.078.602l5.976 3.528z"/>
</svg>
