<svg xmlns="http://www.w3.org/2000/svg" width="51" height="48" viewBox="0 0 51 48">
    <path fill="#F5CB9D" fill-rule="nonzero" d="M49.21 43.467h-.091v-1.164c0-.978-.804-1.774-1.791-1.774h-2.133v-1.605c0-.763-.605-1.386-1.364-1.428V22.409a1.438 1.438 0 0 0 1.364-1.428v-1.605h2.07c.788 0 1.43-.635 1.43-1.417v-1.512h1.087c.64 0 1.16-.516 1.16-1.15v-1.308c0-.422-.232-.81-.608-1.011l-17.133-9.18a.751.751 0 0 0-1.014.3.738.738 0 0 0 .302 1.005l16.957 9.085v.776H1.554v-.77L25.868 1.555l3.538 1.896a.751.751 0 0 0 1.014-.3.738.738 0 0 0-.302-1.004L26.58.251a1.5 1.5 0 0 0-1.4-.009L.678 12.975c-.383.199-.622.589-.622 1.018v1.304c0 .634.521 1.15 1.161 1.15h1.088v1.512c0 .781.641 1.417 1.43 1.417h2.069v1.605c0 .762.605 1.386 1.364 1.428v9.821c0 .41.335.742.748.742a.745.745 0 0 0 .748-.742v-9.817h2.395v15.079H8.666v-1.778a.745.745 0 0 0-.749-.74.745.745 0 0 0-.748.74v1.782a1.438 1.438 0 0 0-1.364 1.428v1.605H3.672c-.987 0-1.79.796-1.79 1.774v1.164H1.79C.803 43.467 0 44.263 0 45.24v1.55c0 .605.496 1.096 1.106 1.096h48.788c.61 0 1.106-.491 1.106-1.096v-1.55c0-.978-.803-1.774-1.79-1.774zM3.801 17.894v-1.447h43.396v1.447H3.802zM43.7 38.974v1.555h-5.123v-1.555H43.7zm-3.759-1.482V22.413h2.394v15.079H39.94zM38.576 20.93v-1.555H43.7v1.555h-5.123zm-5.17 16.565V22.409a1.438 1.438 0 0 0 1.364-1.428v-1.605h2.31v1.605c0 .762.605 1.386 1.364 1.428v15.087a1.438 1.438 0 0 0-1.364 1.428v1.605h-2.31v-1.605c0-.763-.605-1.386-1.364-1.428zm-.132 1.478v1.555H28.15v-1.555h5.123zm-3.759-1.482V22.413h2.395v15.079h-2.395zM28.151 20.93v-1.555h5.123v1.555H28.15zm-5.17 16.565V22.409a1.438 1.438 0 0 0 1.364-1.428v-1.605h2.31v1.605c0 .762.605 1.386 1.364 1.428v15.087a1.438 1.438 0 0 0-1.364 1.428v1.605h-2.31v-1.605c0-.763-.605-1.386-1.364-1.428zm-.748 1.478h.616v1.555h-5.123v-1.555h4.506zm-3.143-1.482V22.413h2.395v15.079H19.09zM17.726 20.93v-1.555h5.123v1.555h-5.123zm-5.17 16.565V22.409a1.438 1.438 0 0 0 1.364-1.428v-1.605h2.31v1.605c0 .762.605 1.386 1.364 1.428v15.087a1.438 1.438 0 0 0-1.364 1.428v1.605h-2.31v-1.605c0-.763-.605-1.386-1.364-1.428zM7.301 20.93v-1.555h5.123v1.555H7.3zm0 18.043H12.424v1.555H7.301v-1.555zm-3.923 3.329c0-.16.132-.292.294-.292h43.656c.162 0 .294.131.294.292v1.164H3.378v-1.164zm46.126 4.102H1.496V45.24c0-.16.132-.292.295-.292h47.418c.163 0 .295.131.295.292v1.164z"/>
</svg>
