<svg xmlns="http://www.w3.org/2000/svg" width="41" height="45" viewBox="0 0 41 45">
    <g fill="#E6792C" fill-rule="nonzero">
        <path d="M39.305 24.429a.869.869 0 0 0-.867.87v.033a.869.869 0 0 0 .864.873h.003a.869.869 0 0 0 .867-.867v-.04c0-.48-.388-.87-.867-.87z"/>
        <path d="M38.548 28.15a.867.867 0 0 0-1.042.649c-1.93 8.253-9.186 14.017-17.647 14.017-9.994 0-18.125-8.16-18.125-18.188C1.734 14.599 9.865 6.44 19.86 6.44c8.462 0 15.91 6.011 17.709 14.294a.868.868 0 1 0 1.695-.371 20.01 20.01 0 0 0-6.866-11.19 19.86 19.86 0 0 0-9.797-4.28A3.218 3.218 0 0 0 19.86 0a3.218 3.218 0 0 0-2.744 4.887c-4.264.588-8.203 2.541-11.3 5.648A19.833 19.833 0 0 0 0 24.628 19.833 19.833 0 0 0 5.817 38.72c3.75 3.764 8.738 5.836 14.042 5.836 4.505 0 8.916-1.554 12.422-4.378a20.022 20.022 0 0 0 6.913-10.982.87.87 0 0 0-.646-1.046zM18.385 3.22c0-.816.661-1.48 1.474-1.48s1.475.664 1.475 1.48-.662 1.48-1.475 1.48a1.478 1.478 0 0 1-1.474-1.48z"/>
        <path d="M19.887 9C11.041 9 3.844 16.222 3.844 25.1c0 8.877 7.197 16.099 16.043 16.099 8.847 0 16.044-7.222 16.044-16.1C35.93 16.223 28.734 9 19.887 9zm0 30.459c-7.89 0-14.309-6.442-14.309-14.36 0-7.917 6.42-14.359 14.31-14.359 7.89 0 14.309 6.442 14.309 14.36 0 7.917-6.42 14.359-14.31 14.359z"/>
        <path d="M20.086 14.008c.479 0 .867-.39.867-.87v-.696c0-.481-.388-.87-.867-.87a.869.869 0 0 0-.867.87v.696c0 .48.388.87.867.87zM20.086 36a.869.869 0 0 0-.867.87v.696c0 .481.388.87.867.87s.867-.389.867-.87v-.696c0-.48-.388-.87-.867-.87zM31.617 26.17h.694c.479 0 .867-.39.867-.871 0-.48-.388-.87-.867-.87h-.694a.869.869 0 0 0-.867.87c0 .48.388.87.867.87zM9.248 24.429h-.693a.869.869 0 0 0-.867.87c0 .48.388.87.867.87h.693c.48 0 .868-.39.868-.87s-.388-.87-.868-.87zM29.09 15.574l-10.32 6.874a.874.874 0 0 0-.243.244l-6.851 10.355a.872.872 0 0 0 .723 1.352.863.863 0 0 0 .48-.145l10.319-6.875a.874.874 0 0 0 .243-.243l6.85-10.356a.873.873 0 0 0-.109-1.097.866.866 0 0 0-1.093-.11zm-9.7 8.96l1.972 1.98-5.867 3.907 3.895-5.887zm3.196.746l-1.967-1.975 5.853-3.899-3.886 5.874z"/>
    </g>
</svg>
