<svg xmlns="http://www.w3.org/2000/svg" width="45" height="44" viewBox="0 0 45 44">
    <g fill="#E6792C" fill-rule="nonzero">
        <path d="M43.93 7.356L20.623.064a.89.89 0 0 0-.26-.04l-.007-.001h-9.675l-.014.002a.89.89 0 0 0-.52.175L.362 7.492A.902.902 0 0 0 0 8.216v3.646c0 .497.401.9.896.9h8.889v29.593c0 .498.401.901.896.901a.899.899 0 0 0 .897-.9v-2.43l7.882-7.99v10.42c0 .497.401.9.896.9a.899.899 0 0 0 .896-.9V12.761H39.91v7.526c0 .498.401.901.896.901a.899.899 0 0 0 .897-.9v-7.527h1.962a.899.899 0 0 0 .896-.9V8.216a.9.9 0 0 0-.63-.86zM9.785 10.96H1.793V8.669l7.992-5.956v8.248zm1.793 26.347V22.654l7.29 7.327-7.29 7.327zm7.882-9.28l-7.126-7.162 7.126-7.161v14.322zm-7.882-8.95v-6.316h6.284l-6.284 6.316zM19.46 6.956h-4.4V5.514h4.4v1.442zm0-3.243h-5.297a.899.899 0 0 0-.896.9v3.244c0 .497.401.9.896.9h5.297v2.204h-7.882V1.824h7.882v1.889zm1.793-1.565L27.14 3.99l-5.888 5.918v-7.76zm1.487 8.813l5.422-5.449 5.422 5.449H22.74zm7.366-6.044L37.62 7.27l-2.588 2.6-4.927-4.952zm6.377 6.044l2.812-2.826a.899.899 0 0 0 .19-.283l3.282 1.027v2.082h-6.284zM40.805 22.54a.899.899 0 0 0-.896.901v.63c0 .498.401.902.896.902a.899.899 0 0 0 .897-.901v-.63c0-.498-.402-.902-.897-.902zM44.104 26.429h-6.597a.899.899 0 0 0-.896.9v6.63c0 .497.401.9.896.9h6.597a.899.899 0 0 0 .896-.9v-6.63c0-.497-.401-.9-.896-.9zm-.897 6.629h-4.804V28.23h4.804v4.828z"/>
    </g>
</svg>
