<svg xmlns="http://www.w3.org/2000/svg" width="49" height="49" viewBox="0 0 49 49">
    <g fill="#E6792C" fill-rule="nonzero">
        <path d="M14.179 16.667c-.595 0-1.174.163-1.676.466a3.232 3.232 0 0 0-1.676-.466 3.255 3.255 0 0 0-3.251 3.251 3.255 3.255 0 0 0 3.251 3.252c.613 0 1.186-.17 1.676-.466.502.303 1.08.466 1.676.466a3.256 3.256 0 0 0 3.252-3.252 3.255 3.255 0 0 0-3.252-3.251zm-3.352 5.082a1.833 1.833 0 0 1-1.83-1.83c0-1.01.82-1.832 1.83-1.832 1.01 0 1.832.822 1.832 1.831 0 1.01-.822 1.831-1.832 1.831zm3.352 0c-.206 0-.408-.036-.6-.102.316-.501.5-1.094.5-1.729s-.184-1.227-.5-1.728a1.828 1.828 0 0 1 2.431 1.728c0 1.01-.821 1.831-1.831 1.831zM37.902 31.818h-6.889a.71.71 0 1 0 0 1.42h6.889a.71.71 0 1 0 0-1.42zM29.35 31.818h-1.367a.71.71 0 1 0 0 1.42h1.367a.71.71 0 1 0 0-1.42zM9.653 31.818H8.286a.71.71 0 1 0 0 1.42h1.367a.71.71 0 0 0 0-1.42z"/>
        <path d="M41.664 7.332a24.671 24.671 0 0 0-3.143-2.655.71.71 0 1 0-.822 1.158 23.252 23.252 0 0 1 2.96 2.501 22.677 22.677 0 0 1 6.685 16.139 22.676 22.676 0 0 1-6.684 16.138 22.676 22.676 0 0 1-16.138 6.684 22.675 22.675 0 0 1-16.137-6.684 23.685 23.685 0 0 1-.921-.977.71.71 0 0 0-1.139-.268.71.71 0 0 0-.09 1.022c.369.422.753.835 1.144 1.227a24.087 24.087 0 0 0 17.143 7.1 24.087 24.087 0 0 0 17.142-7.1 24.087 24.087 0 0 0 7.1-17.142 24.087 24.087 0 0 0-7.1-17.143z"/>
        <path d="M36.394 9.206a.71.71 0 0 0-.272-.516 19.342 19.342 0 0 0-12.024-4.145c-3.106 0-6.078.71-8.834 2.112a19.772 19.772 0 0 0-6.746 5.64 19.361 19.361 0 0 0-3.973 11.801 19.354 19.354 0 0 0 4.146 12.026.71.71 0 0 0 1.06.063l.215-.215 26.22-26.22a.71.71 0 0 0 .208-.546zM18.77 25.158H9.138v-.946h10.58l-.947.946zm2.367-2.366H8.428a.71.71 0 0 0-.71.71v2.366c0 .393.318.71.71.71h8.923l-1.623 1.624H8.323a.71.71 0 1 0 0 1.42h5.984l-4.98 4.98a17.935 17.935 0 0 1-3.361-10.504c0-3.867 1.2-7.546 3.474-10.66h21.052l-9.354 9.354zm10.774-10.775H10.588a17.977 17.977 0 0 1 13.51-6.051c3.81 0 7.425 1.16 10.505 3.36l-2.69 2.691zM39.999 12.619a13.05 13.05 0 0 0-.174-.226.71.71 0 0 0-1.06-.064l-.215.215-26.22 26.221a.71.71 0 0 0 .064 1.062 19.342 19.342 0 0 0 12.024 4.144 19.537 19.537 0 0 0 16.26-8.705 19.444 19.444 0 0 0 3.293-10.848c0-4.297-1.374-8.377-3.972-11.8zm-6.512 8.314c0-.17.139-.31.31-.31h2.898v.653h-3.208v-.343zm0 1.764h3.208v.414h-3.208v-.414zm0 1.834h3.208v.501h-2.899a.31.31 0 0 1-.31-.31v-.19zm-4.915 0h.581v.946h-1.527l.946-.946zm11.025 9.794a7.102 7.102 0 0 1-3.184.754H25.49a.71.71 0 1 0 0 1.42h10.922c.558 0 1.115-.055 1.66-.163a18.1 18.1 0 0 1-13.655 6.214c-3.81 0-7.425-1.159-10.505-3.36l2.69-2.69h6.047a.71.71 0 1 0 0-1.421h-4.626l5.138-5.138h15.547a.71.71 0 1 0 0-1.42H24.582l1.623-1.623h3.659a.71.71 0 0 0 .71-.71V23.82a.71.71 0 0 0-.592-.7l2.085-2.084v3.686c0 .954.776 1.73 1.73 1.73h5.198c.954 0 1.73-.776 1.73-1.73v-3.79c0-.954-.776-1.73-1.73-1.73H33.9l5.289-5.289a17.936 17.936 0 0 1 3.361 10.504c0 3.535-1.02 6.956-2.953 9.907zm-1.482-9.293v-4.409h.88c.17 0 .31.14.31.31v3.79a.31.31 0 0 1-.31.31h-.88z"/>
        <path d="M35.687 2.86A24.256 24.256 0 0 0 24.242 0 24.087 24.087 0 0 0 7.1 7.1 24.087 24.087 0 0 0 0 24.242c0 4.897 1.445 9.606 4.18 13.617a.71.71 0 1 0 1.173-.8C2.78 33.284 1.42 28.852 1.42 24.242A22.676 22.676 0 0 1 8.104 8.104 22.676 22.676 0 0 1 24.242 1.42c3.77 0 7.496.931 10.773 2.691a.71.71 0 0 0 .672-1.25z"/>
    </g>
</svg>
