<svg xmlns="http://www.w3.org/2000/svg" width="50" height="47" viewBox="0 0 50 47">
    <path fill="#E6792C" fill-rule="nonzero" d="M48.778 39.559c-.4 0-.725.325-.725.725v4.845a.122.122 0 0 1-.122.122h-2.756V34.657a.725.725 0 1 0-1.45 0V45.25H38.4l1.442-1.585a1.16 1.16 0 0 0 .277-.952l-1.62-9.571.298-.45.078.056a1.134 1.134 0 0 0 1.673-.419l1.648-3.303 3.765 1.458c.149.064 2.091.955 2.091 3.272V36.9a.725.725 0 0 0 1.45 0v-3.143c0-3.346-2.87-4.564-2.992-4.615a.411.411 0 0 0-.013-.005l-6.412-2.483v-1.321A5.295 5.295 0 0 0 42 22.044a2.53 2.53 0 0 0 1.346-.593 2.493 2.493 0 0 0 .304-3.471v-1.957a6.952 6.952 0 0 0-6.944-6.945c-1.72 0-3.293.63-4.507 1.668a2.493 2.493 0 0 0-.561-1.509V7.281A6.952 6.952 0 0 0 24.693.336a6.952 6.952 0 0 0-6.945 6.945v2.007a2.365 2.365 0 0 0-.56 1.452 6.913 6.913 0 0 0-2.735-1.432.725.725 0 1 0-.37 1.402 5.496 5.496 0 0 1 4.091 5.313v1.084a6.49 6.49 0 0 0-.136-.024.835.835 0 0 0-.173-.49c-.185-.267-.519-.6-1.591-1.752-.382-.41-1-.485-1.47-.179-1.836 1.2-4.067 1.811-6.138 1.69-.674-.04-1.095.257-1.275.742l-.205.041v-1.112a5.53 5.53 0 0 1 3.907-5.26.725.725 0 1 0-.418-1.39 7 7 0 0 0-3.541 2.47 6.882 6.882 0 0 0-1.399 4.18v2.008a2.363 2.363 0 0 0-.563 1.528c0 1.242.915 2.324 2.218 2.486a5.356 5.356 0 0 0 2.02 3.373v1.236l-6.404 2.483-.013.005C2.87 29.192 0 30.411 0 33.757V45.13c0 .867.705 1.573 1.573 1.573h22.331c.312 0 .602-.093.848-.25.244.157.535.25.847.25H47.93c.867 0 1.572-.706 1.572-1.573v-4.845c0-.4-.325-.725-.725-.725zM7.319 20.546a1.047 1.047 0 0 1-.696-.987c0-.427.309-.777.696-.944v1.931zM40.838 28.5l-1.424 2.853-1.603-1.139 1.78-2.196 1.247.482zm-4.075.704l-1.876-2.315v-.695c.61.21 1.266.308 1.885.308.64 0 1.286-.122 1.862-.338v.73l-1.871 2.31zm.851 2.65l-.267.401h-1.169l-.267-.401.852-.605.851.605zM24.75 20.462l-1.876-2.315v-.696c.607.21 1.263.308 1.885.308a5.36 5.36 0 0 0 1.862-.338v.73l-1.871 2.31zm.85 2.65l-.266.4h-1.169l-.267-.4.852-.605.85.604zm-6.56-9.88c.118.033.24.055.363.07a5.356 5.356 0 0 0 2.02 3.374v1.236l-1.479.573a2.485 2.485 0 0 0-.32-.505v-1.957c0-.984-.207-1.93-.585-2.79zm9.563-.767a3.85 3.85 0 0 1-3.844 3.844c-2.383 0-3.976-1.847-3.976-3.844V9.068c2.29.092 4.668-.587 6.613-1.797.654.7 1.043 1.108 1.207 1.297v3.897zm1.384.837c.123-.016.244-.038.362-.07a6.903 6.903 0 0 0-.588 2.791v2.008a2.474 2.474 0 0 0-.287.423l-1.402-.543v-1.32a5.296 5.296 0 0 0 1.915-3.29zm-8.068 5.974l1.78 2.198-1.214.862-.002.001-.385.274-1.423-2.853 1.244-.482zm4.5 1.43l1.159-1.43 1.247.482-1.424 2.853-.386-.274-.001-.001-1.216-.864.62-.766zm.365 3.245l.078.056a1.134 1.134 0 0 0 1.673-.419l1.223-2.453c.42.518 1.03.834 1.655.912a5.272 5.272 0 0 0 2.024 3.371v1.236l-6.165 2.39-.786-4.644.298-.449zm7.148 4.068l1.78 2.197-1.6 1.137-1.424-2.852 1.244-.482zm6.684-6.812c0 2.071-1.682 3.844-3.844 3.844-2.465 0-3.976-1.93-3.976-3.844v-3.396c2.273.09 4.655-.58 6.613-1.798.654.701 1.043 1.109 1.207 1.298v3.896zm2.147-1.648c0 .44-.272.833-.696.987v-1.972c.438.16.696.56.696.985zm-11.551-3.536a5.5 5.5 0 0 1 5.494-5.494 5.5 5.5 0 0 1 5.494 5.494v1.084a4.967 4.967 0 0 0-.136-.024.835.835 0 0 0-.173-.49c-.19-.274-.52-.6-1.591-1.752a1.147 1.147 0 0 0-1.47-.179c-1.786 1.167-4.044 1.827-6.192 1.687-.603-.04-1.04.256-1.221.745l-.205.042v-1.113zm.134 2.592v1.93a1.045 1.045 0 0 1-.697-.986c0-.427.309-.777.697-.944zm-.596-7.798a1.043 1.043 0 0 1-.697.987V9.831c.434.158.697.556.697.986zm-6.057-9.03a5.5 5.5 0 0 1 5.494 5.494v1.084a5.222 5.222 0 0 0-.136-.024c-.01-.222-.075-.359-.205-.536-.194-.262-.552-.624-1.56-1.706a1.147 1.147 0 0 0-1.469-.18c-1.886 1.233-4.175 1.833-6.25 1.685a1.152 1.152 0 0 0-1.163.748c-.016.002-.195.039-.206.041V7.281a5.5 5.5 0 0 1 5.495-5.495zm-5.36 8.086v1.931a1.047 1.047 0 0 1-.697-.987c0-.425.307-.776.696-.944zm-1.293 8.7c.406.148.666.502.692.923.033.468-.255.89-.692 1.05v-1.972zm-.067 3.474a2.543 2.543 0 0 0 1.723-1l1.269 2.541a1.133 1.133 0 0 0 1.673.419l.077-.056.298.45-.785 4.642-6.17-2.39v-1.32a5.3 5.3 0 0 0 1.915-3.286zm-5.237 7.157l-1.875-2.315v-.695c.607.21 1.263.308 1.884.308.65 0 1.295-.125 1.863-.338v.73l-1.872 2.31zm.852 2.65l-.267.401h-1.169l-.267-.401.852-.605.85.605zm1.976-3.836l1.248.483-1.424 2.852-.386-.274h-.001l-1.216-.865 1.78-2.196zm-6.794-6.81V17.81c2.302.092 4.682-.596 6.613-1.798.648.695 1.043 1.109 1.207 1.298v3.896a3.852 3.852 0 0 1-3.844 3.844c-2.365 0-3.976-1.826-3.976-3.844zm1.136 6.81l1.78 2.198-1.214.862-.002.002-.385.273-1.424-2.852 1.245-.482zM5.778 45.252V34.657a.725.725 0 1 0-1.45 0V45.25H1.573a.122.122 0 0 1-.123-.122V33.757c0-2.329 1.963-3.217 2.09-3.272l3.763-1.458L8.95 32.33a1.133 1.133 0 0 0 1.674.419l.077-.055.298.449-1.62 9.571-.003.022a1.16 1.16 0 0 0 .28.93l1.442 1.585h-5.32zm5.058-2.445l1.54-9.1h.721l1.54 9.1-1.9 2.09-1.901-2.09zm13.19 2.323a.122.122 0 0 1-.122.122H21.15V34.657a.725.725 0 1 0-1.45 0V45.25h-5.325l1.441-1.585a1.16 1.16 0 0 0 .278-.952l-1.62-9.571.298-.45.077.056a1.134 1.134 0 0 0 1.673-.419l1.649-3.303 3.765 1.458c1.098.477 2.091 1.709 2.091 3.272V45.13zm.725-14.007c-.3-.484-.7-.932-1.182-1.314l.82-4.845h.721l.82 4.848c-.494.393-.889.845-1.179 1.311zm5.053 14.13V34.656a.725.725 0 1 0-1.45 0V45.25H25.6a.122.122 0 0 1-.122-.122V33.757c0-.862.27-1.656.846-2.323.384-.44.893-.797 1.243-.949l3.763-1.459 1.649 3.304a1.133 1.133 0 0 0 1.673.419l.077-.055.299.449-1.62 9.571a1.16 1.16 0 0 0 .278.952l1.44 1.585h-5.32zm5.058-2.446l1.54-9.1h.721l1.54 9.1-1.9 2.09-1.901-2.09z"/>
</svg>
