<svg xmlns="http://www.w3.org/2000/svg" xmlns:xlink="http://www.w3.org/1999/xlink" width="171" height="40" viewBox="0 0 171 40">
    <defs>
        <path id="a" d="M0 .311h94.933v39.112H0z"/>
    </defs>
    <g fill="none" fill-rule="evenodd">
        <g transform="translate(0 .477)">
            <mask id="b" fill="#fff">
                <use xlink:href="#a"/>
            </mask>
            <path fill="#FFF" d="M94.019 20.374a1.645 1.645 0 0 0-.613-.117c-.44 0-1.096.177-1.668 1.051-.833 1.25-1.427 1.575-1.625 1.575-.093 0-.195-.21-.248-.524-.058-.306.082-.821.373-1.408.056-.101.206-.404.038-.684a.542.542 0 0 0-.467-.254c-.15 0-.309.059-.526.176-.749.443-2.188 1.312-3.405 2.262a8.615 8.615 0 0 1-1.514.914c-.2-1.21-.712-3.376-2.523-3.376-.08 0-.154 0-.238.01-.605.066-1.263.302-1.95.697l-.023-.37a1.465 1.465 0 0 0-1.461-1.373c-.509 0-.989.27-1.247.705-.11.094-.77.698-2.388 1.091-.326-.467-.952-.894-2.177-1.131-.342-.068-.861-.01-.597.38.268.411.635 1.422.402 2.125-.953 2.923-3.856 1.118-2.05-.918.33-.379.866-1.125.481-1.419-.304-.236-.617-.298-1.055-.179-.49.142-1 .512-1.421 1.009-.214.211-.436.452-.68.719-.716.79-1.573 1.742-2.6 2.138.036-.274.063-.519.063-.526.066-.612.155-1.527-.478-2.235-.269-.29-.755-.632-1.58-.632-.67 0-1.461.242-2.36.723.232-1.037.563-2.412.948-3.936 3.187.209 6.737.48 10.81.83.526.05.708.063.762.063.144.008.273.01.388.01.374 0 1.15 0 1.209-.604.062-.772-1.446-1.047-1.462-1.055-.084-.01-4.997-.652-11.187-1.298 1.479-5.754 3.391-12.645 3.99-13.669.64-1.085-.52-1.004-1.107-.36-1.102 1.223-3.284 4.697-5.509 13.059-.058.22-.117.46-.176.685a439.48 439.48 0 0 0-3.9-.355c.94-3.702 1.519-5.817 2.003-7.36.553-1.745.43-2.112.267-2.344a.598.598 0 0 0-.467-.237c-.478 0-1.05.677-1.709 2.016-.586 1.174-1.734 3.69-3.183 7.676-3.418-.257-6.704-.428-9.368-.428-.43 0-.844.002-1.217.012-.426.014-1.196.113-1.486.655-.122.226-.204.59.091 1.084.022.04.044.074.066.113.312.534.634.941 1.74.941l.09-.007a243.39 243.39 0 0 1 9.23.085c-.59 1.87-.974 3.7-.827 5.308-.2.142-.402.327-.593.51a2.73 2.73 0 0 1-.272.261c-.574.47-1.678 1.175-2.39 1.175a.537.537 0 0 1-.344-.1c-.154-.124-.24-.395-.256-.788l-.007-.156c-.015-.511-.041-1.28-.65-1.886-.427-.42-.996-.631-1.713-.631h-.078c-.697.01-1.56.269-2.372.683-.158-.217-.367-.429-.752-.641-.956-.526-2.547-.835-4.375-.835l.588-12.303a1.472 1.472 0 0 0-1.46-1.529c-.028 0-.054 0-.079.004-2.84.146-5.69 3.104-9.295 6.848-.408.43-.822.865-1.248 1.318C19.796 19.274 13.099 26.32 3.528 26.32h-.25c-.911-.013-1.624-.091-2.197-.15l-.296-.037c-.047 0-.094-.005-.129-.005-.442 0-.646.285-.656.546-.03.96 2.513 1.468 4.903 1.62.29.015.583.027.874.027 8.197 0 16.11-7.072 22.757-13.992 2.11-2.181 4.112-4.264 5.7-5.294l-.49 10.43c-4.484.577-9.75 1.361-11.866 2.297a.517.517 0 0 0-.3.461c0 .404.007.621 6.48 3.505a396.163 396.163 0 0 0 6.205 2.704c.185.083.378.12.577.12.276 0 .546-.074.773-.221.413-.256.67-.692.691-1.169l.238-5.002c1.064-.144 1.947-.217 2.63-.217.36 0 .618.023.798.045-.13.151-.265.297-.365.39-.117.136-.234.253-.301.332-.089.094-.154.16-.189.196a1.46 1.46 0 0 0 .042 2.027c.275.28.645.433 1.033.433a1.49 1.49 0 0 0 1-.393c.055-.06.144-.15.253-.265.668-.66 1.586-1.343 2.297-1.603.118.588.478 1.458 1.06 2.039.433.437.935.669 1.463.669.185 0 .379-.026.567-.085 1.697-.513 3.539-1.847 4.05-2.269.007-.009.018-.016.026-.024.174.392.383.762.662 1.105.431.518 1.007.785 1.716.785 1.175 0 2.545-.762 3.718-1.624-.004.022-.013.048-.018.071-.022.078-.031.128-.031.128-.197 1.266-.107 1.678.107 1.93.122.14.296.217.48.217.387 0 .72-.326 1.13-.729.103-.105.212-.21.314-.303.804-.73 1.992-1.524 2.97-1.866-.035.565-.004 1.285.558 1.826.235.225.664.51 1.332.51.098 0 .196-.008.296-.02.99-.113 2.166-.917 3.159-1.7.238.704.915 1.704 2.82 1.89.208.03.42.035.623.035 1.533 0 2.792-.596 3.548-1.684.302-.435.475-1.159.524-1.67a14.466 14.466 0 0 0 2.12-.464c-.047.25-.1.532-.148.825-.22 1.381-.226 2.059.328 2.204l.062.011h.055c.216 0 .316-.072.983-.57.736-.542 2.456-1.824 3.105-1.824.069 0 .242.18.329.756.157.993.462 1.615.908 1.834.218.11.472.164.751.164 1.242 0 2.959-1.103 3.966-1.781.249 1.09 1.172 1.795 1.866 2.028.145.045.317.075.506.075.324 0 1.27-.089 2.405-.974-.835 5.1-2.476 9.998-4.725 13.894-.532.931.156.931.398.9 4.723-.566 6.472-9.218 7.18-15.94.158-1.575-.326-2.878-.884-3.1zm-60.494 5.71l-6.797-2.751c1.996-.278 5.213-.722 6.884-.914l-.087 3.665zm20.196-2.843c-.124 0-.235-.015-.34-.048 0 0-.229-.127-.046-1.318.15-1.016.546-2.495.995-4.19l.316-1.187c1.264.05 2.583.122 3.962.202a91.098 91.098 0 0 0-.915 4.154c-.79.814-2.7 2.387-3.972 2.387z" mask="url(#b)"/>
        </g>
        <path fill="#FFF" d="M106.626 11.292c.283-2.452.247-2.873-.252-2.997a.894.894 0 0 0-.192-.023c-.868 0-1.16 1.331-1.315 2.05-.014.056-.056.24-.127.531-2.002 8.174-2.96 13.416-2.859 15.58.04.82.684 1.461 1.46 1.461h.081c.803-.046 1.427-.772 1.383-1.615-.065-1.298.542-5.623 1.08-9.444.292-2.087.568-4.049.741-5.543"/>
        <path fill="#FFF" d="M142.936 21.153c.313 0 1.058.03 1.125-.357.066-.396.033-.791-.383-1.236a1.08 1.08 0 0 0-.808-.34c-.147 0-.3.027-.465.078-.887.26-1.666.675-2.528 1.368-.12-.193-.3-.34-.515-.423a1.873 1.873 0 0 0-.615-.104c-.219 0-.926.037-1.262.516l-.084.121v.142c-.005.382-.114.806-.227 1.202-.026.09-.092.265-.161.462-.73.99-1.997 2.04-2.411 2.056-.225-.155-.248-1.401-.083-2.153a1.474 1.474 0 0 0-.917-1.682c-.114-.042-.356-.02-.573.3-.3.446-2.225 2.762-4.434 2.472-.227-.027-.581-.503.182-1.128 1.438-1.169 2.543-1.579 3.288-1.854.639-.236.518-.724-.532-.724-1.1 0-2.527.509-3.7 1.224a.83.83 0 0 0-.336-.078c-.304-.002-1.07-.036-1.957-.074-1.2-.053-2.648-.11-3.615-.13l.252-2.204c.526-4.549.677-8.476.762-10.591.019-.544.04-.984.057-1.299.018-.374-.195-3.102-1.022-3.155l-.062-.002c-.982 0-1.213 1.415-1.397 3.125-.104.956-.344 2.642-.649 4.772-.373 2.673-.847 5.98-1.268 9.37-4.735.071-10.272.62-11.883 1.042-.84.22-1.337.59-1.484 1.108-.134.48.064 1.012.6 1.556.019.03.047.058.07.1.38.477 1.378 1.745 6.527 4.223 1.325.639 2.68 1.262 3.8 1.715 1.304.522 1.96.716 2.423.716.291 0 .489-.076.651-.153l.033-.013c.702-.32 1.364-.626 2.228-7.39.856.008 2.068.026 3.144.047.253 0 .493.01.722.01-.22.606-.24 1.131-.01 1.57.341.642 1.112.97 2.287.97.325 0 .685-.022 1.07-.073 1.198-.16 2.48-.578 3.406-1.092.029.04.063.073.09.117.363.428 1.055.947 2.3.962h.036c.508 0 1.055-.182 1.626-.513.026.178.069.342.152.461.151.212.381.33.65.33.027 0 .064-.005.096-.005 1.477-.154 2.079-1.512 2.618-2.703 1.036-2.318 2.443-2.659 3.186-2.659m-24.918 4.419c-.169 1.377-.34 2.794-.47 3.675-1.776-.88-6.938-3.788-9.287-5.151 1.577-.151 4.508-.345 9.079-.345h.898c-.072.582-.15 1.202-.22 1.82M146.904 20.239c.062-.639.086-1.382.022-2.01-.102-1.109-.469-1.779-1.01-1.715-.434.054-.496.15-1.096 2.62-1.05 4.348-4.73 16.013-5.006 16.914-.204.647-.065 1.122.321 1.1 2.22-.136 3.878-2.924 5.192-8.313.042-.193.104-.433.175-.712.204-.815.79-5.462 2.007-5.928.799-.316 2.916-.075 2.558 1.246-.168.66-1.227 1.312-2.375.693-.506-.275-1.413.585-.227 1.188 2.87 1.445 5.426-1.247 4.459-3.413-1.093-2.427-4.27-1.876-5.02-1.67"/>
        <path fill="#FFF" d="M170.42 19.805c-.184-.417-.638-.72-1.281-.87a2.413 2.413 0 0 0-.431-.044c-1.213 0-2.724 1.031-3.773 1.941-.448-.589-1.216-.629-1.438-.635-.218-.004-.696.032-.76.497-.072.46-.839 3.037-5.776 3.164-2.326.059-2.512-1.532-1.286-2.316 2.69-1.737 3.68.698 1.088.691-1.184 0-.955 1.02.147.997.588-.014 2.061-.161 3.325-1.166.775-.618.829-1.237.64-1.792-.653-1.875-5.594-1.656-7.835.78-1.433 1.549-.883 4.51 3.458 4.66 2.34.084 4.387-.825 5.657-2.026-.759.96-.6 2.109-.407 2.353.121.147.295.23.493.23 1.233 0 1.853-1.252 2.297-2.028.063-.102.116-.198.171-.288.584-.953.965-1.524 2.108-2.159.774-.429 1.466-.65 2.044-.65.524 0 .535.073.76.183.225.11.582.11.719-.09.134-.204.345-.831.08-1.432"/>
    </g>
</svg>
