<svg xmlns="http://www.w3.org/2000/svg" width="48" height="48" viewBox="0 0 48 48">
    <g fill="#E6792C" fill-rule="nonzero">
        <path d="M24 11.25a.938.938 0 1 0 0 1.876.938.938 0 0 0 0-1.876z"/>
        <path d="M.462 22.37c.31.183.698.172.997-.028 3.033-2.03 7.596-2.058 10.674-.085.166.15.386.242.627.242h.01a.934.934 0 0 0 .54-.157 9.113 9.113 0 0 1 9.752-.261v21.232a4.686 4.686 0 1 0 9.375 0v-3.75a.938.938 0 0 0-1.875 0v3.75a2.812 2.812 0 1 1-5.625 0V22.08a9.112 9.112 0 0 1 9.753.26c.158.106.34.159.521.159l.02-.001h.009a.933.933 0 0 0 .627-.242c3.078-1.973 7.641-1.944 10.674.085a.937.937 0 0 0 1.456-.857C47.007 9.49 36.335 0 24 0 11.672 0 .993 9.482.003 21.485a.938.938 0 0 0 .46.886zm24.476-2.41v-4.023a.938.938 0 0 0-1.875 0v4.023a10.971 10.971 0 0 0-9.295-.021c.606-9.482 4.545-17.08 9.294-17.975v6.473a.938.938 0 0 0 1.875 0V1.965c4.75.894 8.69 8.493 9.295 17.975a10.97 10.97 0 0 0-9.294.02zm20.964-.084a12.174 12.174 0 0 0-4.746-.953h-.018c-1.776 0-3.51.374-5.024 1.07-.347-5.888-2.146-13.214-6.294-17.325 8.132 2.245 14.651 9.016 16.082 17.208zM18.18 2.668c-4.148 4.112-5.946 11.436-6.294 17.324-3.027-1.39-6.74-1.42-9.788-.116C3.53 11.684 10.048 4.913 18.18 2.668z"/>
        <path d="M10.406 40.433c-.4 0-.833-.251-1.217-.709a.937.937 0 1 0-1.435 1.207c.5.596 1.09 1.011 1.715 1.22v1.095a.938.938 0 0 0 1.875 0v-1.099a2.817 2.817 0 0 0 1.875-2.651 2.816 2.816 0 0 0-2.813-2.813.939.939 0 0 1 0-1.875c.332 0 .683.17 1.014.49a.938.938 0 1 0 1.304-1.347c-.476-.46-.952-.72-1.38-.863v-1.092a.938.938 0 0 0-1.875 0v1.099a2.817 2.817 0 0 0-1.875 2.65 2.816 2.816 0 0 0 2.812 2.813.939.939 0 0 1 0 1.875z"/>
        <path d="M10.313 48c5.686 0 10.312-4.626 10.312-10.313 0-5.686-4.626-10.312-10.313-10.312C4.627 27.375 0 32.001 0 37.688 0 43.373 4.626 48 10.313 48zm0-18.75c4.652 0 8.437 3.785 8.437 8.438 0 4.652-3.785 8.437-8.438 8.437-4.652 0-8.437-3.785-8.437-8.438 0-4.652 3.785-8.437 8.438-8.437z"/>
    </g>
</svg>
