<svg xmlns="http://www.w3.org/2000/svg" width="47" height="44" viewBox="0 0 47 44">
    <g fill="#E6792C" fill-rule="nonzero">
        <path d="M46.64 40.427l-1.832-1.834a.916.916 0 1 0-1.296 1.297l.268.268h-2.708V29.293a.917.917 0 1 0-1.832 0v10.865h-4.031v-20.17h4.03v2.796a.917.917 0 1 0 1.833 0V19.07a.917.917 0 0 0-.916-.917h-5.864a.917.917 0 0 0-.916.917v21.087h-1.841v-15.22a.917.917 0 0 0-.916-.916h-5.864a.917.917 0 0 0-.916.916v15.22h-1.842V30.073a.917.917 0 0 0-.916-.917h-5.863a.917.917 0 0 0-.917.917v10.085h-1.84V33.74a.917.917 0 0 0-.917-.917H5.68a.917.917 0 0 0-.916.917v6.418h-1.1V3.13l.27.269a.913.913 0 0 0 1.295 0 .917.917 0 0 0 0-1.297L3.396.27a.916.916 0 0 0-1.295 0L.268 2.102A.917.917 0 0 0 1.564 3.4l.268-.269v37.945c0 .506.41.917.917.917H43.78l-.268.268a.917.917 0 0 0 1.296 1.297l1.832-1.834a.917.917 0 0 0 0-1.296zm-36.012-.269H6.597v-5.5h4.03v5.5zm9.537 0h-4.031V30.99h4.031v9.168zm9.537 0h-4.03V25.855h4.03v14.303z"/>
        <path d="M40.804 25.345a.923.923 0 0 0-.648-.269.92.92 0 0 0-.648 1.565c.17.17.407.269.648.269a.924.924 0 0 0 .648-.269.924.924 0 0 0 .268-.648.924.924 0 0 0-.268-.648zM9.55 24.831a.916.916 0 0 0-1.014-.807l-.028.003a.917.917 0 0 0 .208 1.822l.028-.003a.917.917 0 0 0 .807-1.015zM40.252 1.826a.916.916 0 0 0-.914-.063l-4.751 2.32a.917.917 0 0 0-.11 1.585l1.497 1.01c-.908 1.22-3.054 3.928-6.22 6.837-3.912 3.597-10.232 8.249-18.118 9.989a.917.917 0 0 0 .394 1.79c3.673-.81 7.325-2.277 10.854-4.36 2.812-1.66 5.554-3.714 8.148-6.103 3.338-3.073 5.543-5.875 6.465-7.125l1.364.92a.915.915 0 0 0 1.426-.697l.367-5.279a.917.917 0 0 0-.402-.824zM38.57 6.217l-1.753-1.182 1.9-.928-.147 2.11zM9.712 11.384c-1.112 0-2.016-.783-2.016-1.746S8.6 7.892 9.712 7.892c1.111 0 2.015.783 2.015 1.746a.917.917 0 1 0 1.833 0c0-1.68-1.251-3.093-2.932-3.476v-.294a.917.917 0 1 0-1.833 0v.294c-1.68.383-2.931 1.796-2.931 3.476 0 1.974 1.726 3.58 3.848 3.58 1.111 0 2.015.783 2.015 1.746 0 .962-.904 1.745-2.015 1.745-1.112 0-2.016-.783-2.016-1.746a.917.917 0 1 0-1.832 0c0 1.68 1.25 3.093 2.931 3.477v.262a.917.917 0 1 0 1.833 0v-.262c1.68-.384 2.932-1.796 2.932-3.477 0-1.973-1.727-3.58-3.848-3.58z"/>
    </g>
</svg>
