<svg xmlns="http://www.w3.org/2000/svg" width="48" height="48" viewBox="0 0 48 48">
    <g fill="#E6792C" fill-rule="nonzero">
        <path d="M33.424 33.648a.943.943 0 0 0-.663-.275c-.247 0-.488.1-.663.275a.944.944 0 0 0-.275.663c0 .246.1.488.275.663a.942.942 0 0 0 1.326 0 .94.94 0 0 0 0-1.326zM43.6 36.743a.944.944 0 0 0-.663-.274c-.246 0-.488.1-.662.274a.945.945 0 0 0-.275.663c0 .247.1.489.275.663a.945.945 0 0 0 .663.275c.246 0 .488-.1.662-.275a.944.944 0 0 0 .275-.663c0-.246-.1-.488-.275-.663zM8.585 18.645v-.395l-.001-.016h.041a.938.938 0 0 0 0-1.875H6.669a.938.938 0 0 0 0 1.875h.041V18.645A5.445 5.445 0 0 0 2.21 24a.938.938 0 0 0 1.875 0 3.567 3.567 0 0 1 3.562-3.563A3.567 3.567 0 0 1 11.21 24a.938.938 0 0 0 1.875 0 5.445 5.445 0 0 0-4.5-5.355z"/>
        <path d="M47.063 24.938h-3.938V17.65a4.184 4.184 0 0 0-3.112-4.041l-3.485-.922v-2.166a.936.936 0 0 0-.014-.152c.496-.72.787-1.592.787-2.531v-6.9A.938.938 0 0 0 36.364 0H29.26a.938.938 0 0 0-.937.938v6.9c0 .939.29 1.81.786 2.531a.945.945 0 0 0-.013.152v2.166l-3.485.922a4.183 4.183 0 0 0-3.112 4.04v7.288H.937a.938.938 0 0 0-.937.938v4.5c0 .518.42.938.938.938h3.187v15.75c0 .517.42.937.938.937h37.874c.518 0 .938-.42.938-.938v-6.085a.938.938 0 0 0-1.875 0v5.148H6V35.248h23.261a.938.938 0 0 0 0-1.875H6v-2.06h36v2.156a.938.938 0 0 0 1.875 0v-2.157h3.188c.517 0 .937-.42.937-.937v-4.5a.938.938 0 0 0-.938-.938zm-7.53-9.517a2.307 2.307 0 0 1 1.717 2.229v7.288h-1.875v-6a.938.938 0 0 0-1.875 0v6h-3.75V15.3l1.99-.881 3.794 1.002zM33.75 13.25v-1.027c.314-.067.616-.168.903-.297v.925l-.903.4zM30.199 1.875h5.227v2.67H30.2v-2.67zm0 4.545h5.227v1.418a2.614 2.614 0 0 1-5.227 0V6.42zm1.676 5.802v1.027l-.903-.4v-.924c.287.13.589.23.903.297zm-7.5 5.428c0-1.045.706-1.962 1.716-2.229l3.793-1.002 1.991.88v9.639h-3.564v-6a.938.938 0 0 0-1.875 0v6h-2.061V17.65zm21.75 11.788H1.875v-2.625h44.25v2.625z"/>
        <path d="M36.663 17.587a.943.943 0 0 0-1.326 0 .947.947 0 0 0-.275.663c0 .247.1.489.275.663a.945.945 0 0 0 .663.275c.247 0 .488-.1.663-.275a.945.945 0 0 0 .275-.663c0-.247-.1-.488-.275-.663z"/>
    </g>
</svg>
