<svg xmlns="http://www.w3.org/2000/svg" width="48" height="62" viewBox="0 0 48 62">
    <g fill="#E6792C" fill-rule="nonzero">
        <path d="M12.384 28.278c0 2.22 1.824 7.43 4.896 7.43s4.896-5.21 4.896-7.43c0-2.8-2.208-5.115-4.896-5.115-2.688 0-4.896 2.316-4.896 5.115zm4.896 5.5c-1.152 0-2.592-2.798-2.88-4.825h5.76c-.288 2.027-1.728 4.826-2.88 4.826zm2.688-6.755h-5.472c.576-1.158 1.632-1.93 2.784-1.93s2.208.772 2.688 1.93zM3.648 16.503c-.48.097-.864.676-.672 1.158L7.68 37.253v23.549c0 .579.384.965.96.965s.96-.386.96-.965V37.157v-.193L4.8 17.179c-.096-.483-.672-.869-1.152-.676zM32.64 17.661a.857.857 0 0 0-.672-1.158.852.852 0 0 0-1.152.676l-5.76 19.785V45.36c0 .58.384.965.96.965s.96-.386.96-.965v-8.107h-.096l5.76-19.592zM20.832 44.684a3.553 3.553 0 0 0-3.552-3.57c-1.92 0-3.552 1.64-3.552 3.57s1.536 3.571 3.552 3.571 3.552-1.544 3.552-3.57zm-3.552 1.641c-.96 0-1.632-.675-1.632-1.64 0-.966.768-1.641 1.632-1.641.864 0 1.632.772 1.632 1.64 0 .869-.672 1.641-1.632 1.641zM14.688 49.606l-2.592 1.159c-.384.193-.576.482-.576.868v9.169c0 .579.384.965.96.965s.96-.386.96-.965v-8.493l2.016-.869c.48-.193.672-.772.48-1.254-.192-.58-.768-.773-1.248-.58zM22.464 50.765l-2.592-1.159c-.48-.193-1.056 0-1.248.483-.192.483 0 1.062.48 1.255l2.016.868v8.59c0 .579.384.965.96.965s.96-.386.96-.965v-9.169c0-.386-.192-.772-.576-.868zM47.424 41.596l-3.264-1.351v-8.396c0-2.703-2.112-4.826-4.8-4.826-2.688 0-4.8 2.123-4.8 4.826v8.01l-4.224 1.64c-.288.194-.576.483-.576.966v18.337c0 .579.384.965.96.965s.96-.386.96-.965V43.044l3.552-1.351 3.36 4.246c.192.193.48.386.768.386.288 0 .576-.096.768-.386l3.168-3.957 2.784 1.062v12.932c0 .58.384.965.96.965s.96-.386.96-.965V42.465c0-.386-.288-.772-.576-.869zM39.36 28.953c1.344 0 2.304.772 2.688 1.93h-5.472c.48-1.158 1.44-1.93 2.784-1.93zm2.784 3.86c-.384 1.834-1.536 3.861-2.688 3.861-1.152 0-2.496-2.027-2.88-3.86h5.568zm.096 7.432l-2.88 3.57-2.88-3.667v-3.28c.864.964 1.824 1.736 2.976 1.736 1.056 0 2.016-.579 2.784-1.447v3.088zM34.56 14.477V.965c0-.579-.384-.965-.96-.965H16.32c-.576 0-.96.386-.96.965 0 .58.384.965.96.965h16.32v11.581H1.92V1.931h4.8c.576 0 .96-.387.96-.966S7.296 0 6.72 0H.96C.384 0 0 .386 0 .965v13.512c0 .579.384.965.96.965H33.6c.576 0 .96-.386.96-.965z"/>
        <path d="M10.56 1.93h1.92c.576 0 .96-.386.96-.965S13.056 0 12.48 0h-1.92c-.576 0-.96.386-.96.965 0 .58.384.965.96.965zM11.52 27.699L8.64 17.082c-.192-.482-.672-.772-1.248-.675-.48.096-.768.675-.672 1.158L9.6 28.18c.096.386.48.676.96.676h.288c.48-.097.768-.676.672-1.158zM28.128 16.503c-.48-.193-1.056.097-1.248.58l-3.84 10.616c-.192.482.096 1.061.576 1.254.096 0 .192.097.288.097.384 0 .768-.29.864-.676l3.84-10.616c.288-.58.096-1.158-.48-1.255zM5.76 4.826V7.72c0 .579.384.965.96.965h1.92v.965H6.72c-.576 0-.96.386-.96.965 0 .58.384.965.96.965H9.6c.576 0 .96-.386.96-.965V7.721c0-.58-.384-.965-.96-.965H7.68V5.79H9.6c.576 0 .96-.386.96-.965 0-.58-.384-.966-.96-.966H6.72c-.576 0-.96.386-.96.966zM23.04 9.651c-.576 0-.96.386-.96.965 0 .58.384.965.96.965h2.88c.576 0 .96-.386.96-.965V7.721c0-.58-.384-.965-.96-.965H24V5.79h1.92c.576 0 .96-.386.96-.965 0-.58-.384-.966-.96-.966h-2.88c-.576 0-.96.386-.96.966V7.72c0 .579.384.965.96.965h1.92v.965h-1.92zM13.44 10.616c0 .58.384.965.96.965h3.84c.576 0 .96-.386.96-.965v-5.79c0-.58-.384-.966-.96-.966H14.4c-.576 0-.96.386-.96.966v5.79zm1.92-4.825h1.92v3.86h-1.92v-3.86zM25.92 47.29c-.576 0-.96.386-.96.965v1.93c0 .58.384.966.96.966s.96-.386.96-.965v-1.93c0-.58-.384-.966-.96-.966zM47.04 57.906c-.576 0-.96.386-.96.965v1.93c0 .58.384.966.96.966s.96-.386.96-.965v-1.93c0-.58-.384-.966-.96-.966z"/>
    </g>
</svg>
