<svg xmlns="http://www.w3.org/2000/svg" width="42" height="42" viewBox="0 0 42 42">
    <g fill="#E6792C" fill-rule="nonzero">
        <path d="M21 9.352C14.577 9.352 9.352 14.577 9.352 21S14.577 32.648 21 32.648 32.648 27.423 32.648 21 27.423 9.352 21 9.352zm0 21.656c-5.518 0-10.008-4.49-10.008-10.008 0-5.518 4.49-10.008 10.008-10.008 5.518 0 10.008 4.49 10.008 10.008 0 5.518-4.49 10.008-10.008 10.008zM41.564.096a.82.82 0 0 0-.844.045 14.594 14.594 0 0 0-6.43 12.107v10.644c0 1.141.444 2.215 1.25 3.022l1.538 1.537V39.54A2.464 2.464 0 0 0 39.54 42 2.464 2.464 0 0 0 42 39.54V.82a.82.82 0 0 0-.436-.724zM40.36 39.539a.821.821 0 0 1-1.64 0V27.111a.82.82 0 0 0-.24-.58L36.7 24.754a2.616 2.616 0 0 1-.771-1.862V12.248c0-3.772 1.63-7.317 4.43-9.763V39.54z"/>
        <path d="M19.118 14.494a.82.82 0 0 0-1.077-.432A7.534 7.534 0 0 0 13.46 21a.82.82 0 0 0 1.64 0c0-2.368 1.408-4.5 3.587-5.43a.82.82 0 0 0 .432-1.076zM21 13.46h-.041a.82.82 0 0 0 .005 1.64H21a.82.82 0 1 0 0-1.64zM32.371 10.211A15.621 15.621 0 0 0 21 5.325c-2.5 0-4.89.571-7.104 1.699a.82.82 0 1 0 .745 1.461A13.884 13.884 0 0 1 21 6.965a13.91 13.91 0 0 1 10.181 4.376.818.818 0 0 0 1.16.03.82.82 0 0 0 .03-1.16zM33.168 29.562a.82.82 0 0 0-1.152.135A13.967 13.967 0 0 1 21 35.034c-2.703 0-5.327-.77-7.588-2.226a.82.82 0 0 0-.888 1.38A15.62 15.62 0 0 0 21 36.675c4.823 0 9.308-2.172 12.302-5.96a.82.82 0 0 0-.134-1.153zM11.153 31.002l-.012-.014-.013-.016a.82.82 0 1 0-1.255 1.056l.008.01a.818.818 0 0 0 1.184.12.82.82 0 0 0 .088-1.156zM10.172 0a.82.82 0 0 0-.82.82v8.86H7.874l.001-.014V.82a.82.82 0 1 0-1.64 0v8.86H4.757V.82a.82.82 0 1 0-1.64 0v8.86H1.642V.82A.82.82 0 1 0 0 .82v10.008a5.052 5.052 0 0 0 3.035 4.613V39.54A2.464 2.464 0 0 0 5.496 42a2.464 2.464 0 0 0 2.461-2.46V15.44a5.052 5.052 0 0 0 3.035-4.613V.82a.82.82 0 0 0-.82-.82zM6.909 14.078a.82.82 0 0 0-.593.788V39.54a.821.821 0 0 1-1.64 0V14.866a.82.82 0 0 0-.593-.788 3.4 3.4 0 0 1-2.405-2.758h7.636a3.4 3.4 0 0 1-2.405 2.758z"/>
    </g>
</svg>
