<svg xmlns="http://www.w3.org/2000/svg" width="47" height="53" viewBox="0 0 47 53">
    <g fill="#E6792C" fill-rule="nonzero">
        <path d="M45.638 50.283h-1.435V4.385a.87.87 0 0 0-.861-.877H27.268a.869.869 0 0 0-.86.877v3.8h-1.723v-3.8a.87.87 0 0 0-.86-.877h-3.732V.877A.87.87 0 0 0 19.232 0a.87.87 0 0 0-.861.877v2.631h-3.732a.869.869 0 0 0-.86.877v3.8h-2.584a.869.869 0 0 0-.86.878v7.308H3.158a.869.869 0 0 0-.862.877v33.035H.862a.869.869 0 0 0-.86.877.87.87 0 0 0 .86.877h44.776a.869.869 0 0 0 .86-.877.87.87 0 0 0-.86-.877zM15.5 5.263h7.463v2.923H15.5V5.262zm-2.87 45.02h-.574V48.82a.87.87 0 0 0-.861-.877.87.87 0 0 0-.861.877v1.462H9.76v-2.924h2.87v2.924zm5.74-22.51V50.282h-4.018v-3.8a.87.87 0 0 0-.86-.878H8.898a.869.869 0 0 0-.861.877v3.8H4.019V18.126h14.352v9.647zm.862-11.402h-7.176V9.94h14.351v16.955h-6.314v-2.923h2.583a.869.869 0 0 0 .861-.877.87.87 0 0 0-.861-.877h-2.583v-2.923h2.583a.869.869 0 0 0 .861-.877.87.87 0 0 0-.861-.877h-2.583v-.293a.87.87 0 0 0-.861-.877zm15.212 33.912H20.093V28.65h14.35v21.633zm8.037 0h-6.315v-23.68a.87.87 0 0 0-.861-.877.87.87 0 0 0-.861.877v.292h-1.722v-.292a.87.87 0 0 0-.861-.877.87.87 0 0 0-.861.877v.292h-2.87V5.263h14.35v45.02z"/>
        <path d="M23.824 48.529a.87.87 0 0 0 .861-.877V31.281a.87.87 0 0 0-.86-.877.87.87 0 0 0-.862.877v16.371a.87.87 0 0 0 .861.877zM27.268 48.529a.87.87 0 0 0 .861-.877V31.281a.87.87 0 0 0-.86-.877.87.87 0 0 0-.862.877v16.371c0 .484.386.877.861.877zM30.713 48.529a.87.87 0 0 0 .86-.877V31.281a.87.87 0 0 0-.86-.877.87.87 0 0 0-.861.877v16.371a.87.87 0 0 0 .86.877zM31.86 11.109a.869.869 0 0 0 .862-.877v-1.17a.87.87 0 0 0-.861-.876.87.87 0 0 0-.861.877v1.17c0 .483.385.876.86.876zM35.305 11.109a.869.869 0 0 0 .861-.877v-1.17a.87.87 0 0 0-.861-.876.87.87 0 0 0-.861.877v1.17c0 .483.385.876.861.876zM38.75 11.109a.869.869 0 0 0 .86-.877v-1.17a.87.87 0 0 0-.86-.876.87.87 0 0 0-.862.877v1.17c0 .483.386.876.861.876zM31.86 16.956a.869.869 0 0 0 .862-.877v-1.17a.87.87 0 0 0-.861-.877.87.87 0 0 0-.861.877v1.17c0 .484.385.877.86.877zM35.305 16.956a.869.869 0 0 0 .861-.877v-1.17a.87.87 0 0 0-.861-.877.87.87 0 0 0-.861.877v1.17c0 .484.385.877.861.877zM38.75 16.956a.869.869 0 0 0 .86-.877v-1.17a.87.87 0 0 0-.86-.877.87.87 0 0 0-.862.877v1.17c0 .484.386.877.861.877zM31.86 22.803a.869.869 0 0 0 .862-.877v-1.17a.87.87 0 0 0-.861-.877.87.87 0 0 0-.861.877v1.17a.87.87 0 0 0 .86.877zM35.305 22.803a.869.869 0 0 0 .861-.877v-1.17a.87.87 0 0 0-.861-.877.87.87 0 0 0-.861.877v1.17a.87.87 0 0 0 .861.877zM38.75 22.803a.869.869 0 0 0 .86-.877v-1.17a.87.87 0 0 0-.86-.877.87.87 0 0 0-.862.877v1.17a.87.87 0 0 0 .861.877zM7.75 25.141a.869.869 0 0 0 .862-.877v-1.169a.87.87 0 0 0-.861-.877.87.87 0 0 0-.861.877v1.17a.87.87 0 0 0 .86.876zM11.195 25.141a.869.869 0 0 0 .861-.877v-1.169a.87.87 0 0 0-.861-.877.87.87 0 0 0-.861.877v1.17a.87.87 0 0 0 .861.876zM14.64 25.141a.869.869 0 0 0 .86-.877v-1.169a.87.87 0 0 0-.86-.877.87.87 0 0 0-.862.877v1.17a.87.87 0 0 0 .861.876zM7.75 30.988a.869.869 0 0 0 .862-.877v-1.17a.87.87 0 0 0-.861-.876.87.87 0 0 0-.861.877v1.17a.87.87 0 0 0 .86.876zM11.195 30.988a.869.869 0 0 0 .861-.877v-1.17a.87.87 0 0 0-.861-.876.87.87 0 0 0-.861.877v1.17a.87.87 0 0 0 .861.876zM14.64 30.988a.869.869 0 0 0 .86-.877v-1.17a.87.87 0 0 0-.86-.876.87.87 0 0 0-.862.877v1.17a.87.87 0 0 0 .861.876zM7.75 36.835a.869.869 0 0 0 .862-.877v-1.17a.87.87 0 0 0-.861-.876.87.87 0 0 0-.861.877v1.17a.87.87 0 0 0 .86.876zM11.195 36.835a.869.869 0 0 0 .861-.877v-1.17a.87.87 0 0 0-.861-.876.87.87 0 0 0-.861.877v1.17c0 .484.385.876.861.876zM14.64 36.835a.869.869 0 0 0 .86-.877v-1.17a.87.87 0 0 0-.86-.876.87.87 0 0 0-.862.877v1.17c0 .484.386.876.861.876zM7.75 42.682a.869.869 0 0 0 .862-.877v-1.17a.87.87 0 0 0-.861-.876.87.87 0 0 0-.861.877v1.169a.87.87 0 0 0 .86.877zM11.195 42.682a.869.869 0 0 0 .861-.877v-1.17a.87.87 0 0 0-.861-.876.87.87 0 0 0-.861.877v1.169c0 .484.385.877.861.877zM14.64 42.682a.869.869 0 0 0 .86-.877v-1.17a.87.87 0 0 0-.86-.876.87.87 0 0 0-.862.877v1.169c0 .484.386.877.861.877zM38.75 28.65a.869.869 0 0 0 .86-.877v-1.17a.87.87 0 0 0-.86-.877.87.87 0 0 0-.862.877v1.17a.87.87 0 0 0 .861.877zM38.75 34.496a.869.869 0 0 0 .86-.877V32.45a.87.87 0 0 0-.86-.877.87.87 0 0 0-.862.877v1.17a.87.87 0 0 0 .861.876zM38.75 40.343a.869.869 0 0 0 .86-.877v-1.17a.87.87 0 0 0-.86-.876.87.87 0 0 0-.862.877v1.17a.87.87 0 0 0 .861.876zM38.75 46.19a.869.869 0 0 0 .86-.877v-1.17a.87.87 0 0 0-.86-.876.87.87 0 0 0-.862.877v1.17a.87.87 0 0 0 .861.876zM23.537 13.74a.87.87 0 0 0-.861-.877h-6.889a.869.869 0 0 0-.86.877.87.87 0 0 0 .86.877h6.889a.869.869 0 0 0 .861-.877z"/>
    </g>
</svg>
