<svg xmlns="http://www.w3.org/2000/svg" width="51" height="33" viewBox="0 0 51 33">
    <g fill="#E6792C" fill-rule="nonzero">
        <path d="M35.567 10.714H15.43a.807.807 0 0 0 0 1.614h20.136a.807.807 0 1 0 0-1.614zM7.019 14.372H4.037a.807.807 0 0 0 0 1.614h2.982a3.184 3.184 0 0 1 3.074 2.372h-5.85a.807.807 0 0 0 0 1.614h6.76a.807.807 0 0 0 .808-.807 4.797 4.797 0 0 0-4.792-4.793zM43.98 15.986h2.981a.807.807 0 0 0 0-1.614H43.98a4.798 4.798 0 0 0-4.792 4.793c0 .445.361.807.807.807h6.76a.807.807 0 0 0 0-1.614h-5.85a3.184 3.184 0 0 1 3.075-2.372z"/>
        <path d="M49.351 10.826a5.927 5.927 0 0 0-4.325-1.834.805.805 0 0 0-.215.03l-2.593.716-3.82-7.34c-.685-1.313-2.38-2.343-3.862-2.343H16.462c-1.481 0-3.177 1.03-3.861 2.344l-3.82 7.34-2.594-.717a.805.805 0 0 0-.215-.03 5.927 5.927 0 0 0-4.325 1.834 5.93 5.93 0 0 0-1.64 4.407l.585 11.676c.021.429.376.766.806.766h.269V31.2c0 .446.361.807.807.807h8.49a.807.807 0 0 0 .807-.807v-1.103a.807.807 0 0 0-1.614 0v.296H3.281v-2.717h44.436v2.717h-6.876v-.296a.807.807 0 0 0-1.614 0V31.2c0 .446.361.807.807.807h8.49a.807.807 0 0 0 .807-.807v-3.524h.27c.43 0 .784-.337.805-.766l.586-11.681a5.927 5.927 0 0 0-1.64-4.402zm.029 4.326l-.547 10.91H2.165l-.547-10.905a4.32 4.32 0 0 1 4.249-4.549l3.104.858.006.001 3.011.832a.807.807 0 0 0 .43-1.556l-2.047-.565 3.661-7.034c.41-.785 1.544-1.474 2.43-1.474h18.074c.886 0 2.021.689 2.43 1.474l3.661 7.034-2.047.565a.807.807 0 1 0 .43 1.556l6.121-1.691a4.322 4.322 0 0 1 4.249 4.544z"/>
        <path d="M45.026 7.379h2.811a.807.807 0 0 0 0-1.614h-2.811a.807.807 0 0 0 0 1.614zM3.16 7.379h2.812a.807.807 0 0 0 0-1.614H3.16a.807.807 0 0 0 0 1.614zM34.45 20.677H16.548a.807.807 0 0 0-.807.807v2.156a.807.807 0 0 0 1.614 0v-1.35h16.286v1.35a.807.807 0 0 0 1.614 0v-2.156a.807.807 0 0 0-.807-.807zM29.974 16.632a.807.807 0 0 0 0-1.614h-8.95a.807.807 0 0 0 0 1.614h8.95z"/>
    </g>
</svg>
