<svg aria-hidden="true" style="position: absolute; width: 0; height: 0; overflow: hidden;" version="1.1" xmlns="http://www.w3.org/2000/svg" xmlns:xlink="http://www.w3.org/1999/xlink">
<defs>
<symbol id="bank" viewBox="0 0 34 32">
<path fill="#f5cb9d" style="fill: var(--color1, #f5cb9d)" d="M32.807 28.978h-0.061v-0.776c0-0.652-0.536-1.183-1.194-1.183h-1.422v-1.070c0-0.509-0.403-0.924-0.909-0.952v-10.058c0.506-0.027 0.906-0.442 0.909-0.952v-1.070h1.38c0.525 0 0.953-0.423 0.953-0.945v-1.008h0.725c0.427 0 0.773-0.344 0.773-0.767v-0.872c0-0.281-0.155-0.54-0.405-0.674l-11.422-6.12c-0.069-0.038-0.15-0.060-0.237-0.060-0.188 0-0.352 0.104-0.438 0.257l-0.001 0.003c-0.038 0.068-0.060 0.149-0.060 0.235 0 0.187 0.105 0.35 0.259 0.433l0.003 0.001 11.305 6.057v0.517h-31.928v-0.513l16.209-8.426 2.359 1.264c0.069 0.038 0.15 0.060 0.237 0.060 0.188 0 0.352-0.104 0.438-0.257l0.001-0.003c0.038-0.068 0.060-0.149 0.060-0.235 0-0.187-0.105-0.35-0.258-0.433l-0.003-0.001-2.359-1.264c-0.137-0.075-0.299-0.119-0.472-0.119-0.168 0-0.327 0.042-0.466 0.115l0.005-0.003-16.335 8.489c-0.255 0.133-0.415 0.393-0.415 0.679v0.869c0 0.423 0.347 0.767 0.774 0.767h0.725v1.008c0 0.521 0.427 0.945 0.953 0.945h1.379v1.070c0 0.508 0.403 0.924 0.909 0.952v6.547c0 0.273 0.223 0.495 0.499 0.495 0.001 0 0.001 0 0.002 0 0.274 0 0.496-0.221 0.497-0.495v-6.545h1.597v10.053h-1.595v-1.185c-0.002-0.273-0.224-0.493-0.497-0.493-0.001 0-0.002 0-0.003 0h0c-0.001 0-0.001 0-0.002 0-0.273 0-0.495 0.22-0.497 0.493v1.188c-0.506 0.027-0.906 0.442-0.909 0.952v1.070h-1.422c-0.658 0-1.193 0.531-1.193 1.183v0.776h-0.061c-0.658 0-1.193 0.531-1.193 1.182v1.033c0 0.403 0.331 0.731 0.737 0.731h32.525c0.407 0 0.737-0.327 0.737-0.731v-1.033c0-0.652-0.535-1.183-1.193-1.183zM2.534 11.929v-0.965h28.931v0.965h-28.93zM29.133 25.983v1.037h-3.415v-1.037h3.415zM26.627 24.995v-10.053h1.596v10.053h-1.597zM25.717 13.953v-1.037h3.416v1.037h-3.415zM22.271 24.997v-10.057c0.506-0.027 0.906-0.442 0.909-0.952v-1.070h1.54v1.070c0 0.508 0.403 0.924 0.909 0.952v10.058c-0.506 0.027-0.906 0.442-0.909 0.952v1.070h-1.54v-1.070c0-0.509-0.403-0.924-0.909-0.952zM22.183 25.982v1.037h-3.416v-1.037h3.415zM19.677 24.994v-10.052h1.597v10.053h-1.597zM18.767 13.953v-1.037h3.415v1.037h-3.416zM15.321 24.997v-10.057c0.506-0.027 0.906-0.442 0.909-0.952v-1.070h1.54v1.070c0 0.508 0.403 0.924 0.909 0.952v10.058c-0.506 0.027-0.906 0.442-0.909 0.952v1.070h-1.54v-1.070c0-0.509-0.403-0.924-0.909-0.952zM14.822 25.982h0.411v1.037h-3.415v-1.037h3.004zM12.727 24.994v-10.052h1.597v10.053h-1.597zM11.817 13.953v-1.037h3.415v1.037h-3.415zM8.371 24.997v-10.057c0.506-0.027 0.906-0.442 0.909-0.952v-1.070h1.54v1.070c0 0.508 0.403 0.924 0.909 0.952v10.058c-0.506 0.027-0.906 0.442-0.909 0.952v1.070h-1.54v-1.070c0-0.509-0.403-0.924-0.909-0.952zM4.867 13.953v-1.037h3.415v1.037h-3.416zM4.867 25.982h3.415v1.037h-3.415v-1.037zM2.252 28.201c0-0.107 0.088-0.195 0.196-0.195h29.104c0.108 0 0.196 0.087 0.196 0.195v0.776h-29.496v-0.776zM33.003 30.936h-32.005v-0.776c0-0.107 0.088-0.195 0.197-0.195h31.612c0.109 0 0.197 0.087 0.197 0.195v0.776z"></path>
</symbol>
<symbol id="compass" viewBox="0 0 29 32">

<path fill="#e6792c" style="fill: var(--color2, #e6792c)" d="M27.95 17.372c-0.341 0.001-0.617 0.277-0.617 0.618 0 0 0 0 0 0.001v-0 0.023c0 0.001 0 0.002 0 0.003 0 0.34 0.275 0.616 0.614 0.618h0.002c0.34-0.001 0.616-0.276 0.617-0.616v-0.028c0-0.341-0.276-0.619-0.617-0.619z"></path>
<path fill="#e6792c" style="fill: var(--color2, #e6792c)" d="M27.412 20.018c-0.042-0.010-0.091-0.016-0.14-0.016-0.291 0-0.535 0.202-0.6 0.474l-0.001 0.004c-1.372 5.869-6.532 9.968-12.549 9.968-7.107 0-12.889-5.803-12.889-12.934s5.782-12.934 12.89-12.934c6.017 0 11.314 4.274 12.593 10.165 0.055 0.289 0.306 0.504 0.607 0.504 0.341 0 0.617-0.276 0.617-0.617 0-0.054-0.007-0.106-0.020-0.155l0.001 0.004c-0.725-3.226-2.463-5.966-4.858-7.938l-0.024-0.020c-1.916-1.573-4.289-2.659-6.891-3.035l-0.076-0.009c0.21-0.339 0.334-0.751 0.334-1.191 0-1.262-1.022-2.286-2.283-2.288h-0c-1.262 0.003-2.283 1.026-2.283 2.288 0 0.439 0.123 0.849 0.338 1.197l-0.006-0.010c-3.032 0.418-5.833 1.807-8.036 4.016-2.555 2.553-4.136 6.081-4.136 9.978 0 0.015 0 0.031 0 0.046v-0.002c-0 0.013-0 0.028-0 0.043 0 3.897 1.581 7.426 4.136 9.978l0 0c2.667 2.677 6.214 4.15 9.985 4.15 3.204 0 6.34-1.105 8.833-3.113 2.406-1.953 4.15-4.637 4.896-7.712l0.020-0.097c0.010-0.043 0.017-0.092 0.017-0.142 0-0.291-0.201-0.535-0.472-0.601l-0.004-0.001zM13.074 2.29c0-0.58 0.47-1.052 1.048-1.052s1.049 0.472 1.049 1.052-0.471 1.052-1.049 1.052c-0.579-0.002-1.048-0.472-1.048-1.051 0-0.001 0-0.001 0-0.002v0z"></path>
<path fill="#e6792c" style="fill: var(--color2, #e6792c)" d="M14.142 6.4c-6.29 0-11.408 5.136-11.408 11.449s5.118 11.448 11.408 11.448c6.291 0 11.409-5.136 11.409-11.449-0.001-6.312-5.118-11.448-11.409-11.448zM14.142 28.060c-5.611 0-10.175-4.581-10.175-10.212s4.565-10.211 10.176-10.211 10.175 4.581 10.175 10.212c0 5.63-4.565 10.211-10.176 10.211z"></path>
<path fill="#e6792c" style="fill: var(--color2, #e6792c)" d="M14.283 9.961c0.341 0 0.617-0.277 0.617-0.619v-0.495c0-0.342-0.276-0.619-0.617-0.619s-0.617 0.277-0.617 0.618c0 0 0 0.001 0 0.001v-0 0.495c0 0.341 0.276 0.619 0.617 0.619zM14.283 25.6c-0.341 0.001-0.617 0.277-0.617 0.618 0 0 0 0 0 0.001v-0 0.495c0 0.342 0.276 0.619 0.617 0.619s0.617-0.277 0.617-0.619v-0.495c0-0.341-0.276-0.619-0.617-0.619zM22.483 18.61h0.494c0.341 0 0.617-0.277 0.617-0.619s-0.276-0.619-0.617-0.619h-0.494c-0.341 0.001-0.617 0.277-0.617 0.618 0 0 0 0 0 0.001v-0c0 0.341 0.276 0.619 0.617 0.619zM6.576 17.372h-0.493c-0.341 0.001-0.617 0.277-0.617 0.618 0 0 0 0 0 0.001v-0c0 0.341 0.276 0.619 0.617 0.619h0.493c0.341 0 0.617-0.277 0.617-0.619s-0.276-0.619-0.617-0.619zM20.686 11.075l-7.339 4.888c-0.069 0.047-0.127 0.104-0.171 0.171l-0.001 0.002-4.872 7.364c-0.064 0.096-0.102 0.214-0.102 0.341 0 0.341 0.276 0.618 0.616 0.62h0c0 0 0.001 0 0.001 0 0.127 0 0.245-0.039 0.343-0.105l-0.002 0.001 7.338-4.889c0.069-0.046 0.126-0.104 0.171-0.171l0.001-0.002 4.871-7.364c0.065-0.096 0.103-0.215 0.103-0.342 0-0.171-0.069-0.325-0.181-0.438l0 0c-0.112-0.112-0.266-0.181-0.436-0.181-0.127 0-0.245 0.038-0.343 0.104l0.002-0.001zM13.788 17.446l1.402 1.408-4.172 2.778 2.77-4.186zM16.061 17.977l-1.399-1.404 4.162-2.773-2.763 4.177z"></path>
</symbol>
<symbol id="crane" viewBox="0 0 33 32">

<path fill="#e6792c" style="fill: var(--color2, #e6792c)" d="M31.949 5.35l-16.951-5.303c-0.056-0.018-0.121-0.029-0.189-0.029h-0l-0.005-0.001-7.047 0.001c-0.143 0.002-0.274 0.049-0.38 0.129l0.002-0.001-7.116 5.303c-0.161 0.121-0.263 0.311-0.263 0.525 0 0 0 0.001 0 0.001v-0 2.652c0 0.361 0.292 0.655 0.652 0.655h6.465v21.522c0 0.362 0.292 0.655 0.652 0.655s0.652-0.293 0.652-0.654c0-0 0-0 0-0.001v0-1.767l5.732-5.811v7.578c0 0.361 0.292 0.655 0.652 0.655 0.36-0.001 0.652-0.294 0.652-0.654 0-0 0-0 0-0.001v0-21.524h13.569v5.473c0 0.362 0.292 0.655 0.652 0.655s0.652-0.293 0.652-0.654c0-0 0-0.001 0-0.001v0-5.474h1.427c0.36-0.001 0.652-0.293 0.652-0.654 0-0 0-0.001 0-0.001v0-2.651c0-0 0-0.001 0-0.001 0-0.291-0.19-0.538-0.454-0.623l-0.005-0.001zM7.116 7.971h-5.812v-1.666l5.812-4.332v5.999zM8.42 27.132v-10.657l5.302 5.329-5.302 5.329zM14.153 20.383l-5.183-5.209 5.183-5.208v10.416zM8.42 13.874v-4.593h4.57l-4.57 4.593zM14.153 5.059h-3.2v-1.049h3.2v1.049zM14.153 2.7h-3.852c-0.36 0.001-0.652 0.293-0.652 0.654 0 0 0 0.001 0 0.001v-0 2.359c0 0.361 0.292 0.655 0.652 0.655h3.852v1.603h-5.732v-6.645h5.732v1.374zM15.457 1.562l4.281 1.34-4.282 4.304v-5.644zM16.538 7.972l3.943-3.963 3.943 3.963h-7.887zM21.895 3.576l5.465 1.711-1.882 1.891-3.583-3.601zM26.533 7.972l2.045-2.055c0.057-0.058 0.104-0.126 0.137-0.202l0.002-0.004 2.387 0.747v1.514h-4.57zM29.676 16.393c-0.36 0.001-0.652 0.294-0.652 0.654 0 0 0 0.001 0 0.002v-0 0.458c0 0.362 0.292 0.656 0.652 0.656s0.652-0.293 0.652-0.654c0-0 0-0.001 0-0.002v0-0.458c0-0.362-0.292-0.656-0.652-0.656zM32.076 19.221h-4.798c-0.36 0.001-0.652 0.294-0.652 0.654 0 0 0 0 0 0.001v-0 4.822c0 0.361 0.292 0.655 0.652 0.655h4.798c0.36-0.001 0.652-0.294 0.652-0.654 0-0 0-0 0-0.001v0-4.822c0-0.361-0.292-0.655-0.652-0.655zM31.423 24.042h-3.494v-3.511h3.494v3.511z"></path>
</symbol>
<symbol id="credit-card" viewBox="0 0 32 32">

<path fill="#e6792c" style="fill: var(--color2, #e6792c)" d="M9.26 10.885c-0.389 0-0.767 0.106-1.095 0.304-0.311-0.191-0.688-0.304-1.092-0.304-0.001 0-0.002 0-0.003 0h0c-1.172 0.002-2.122 0.951-2.123 2.123v0c0.001 1.172 0.951 2.122 2.123 2.124h0c0.4 0 0.775-0.111 1.095-0.304 0.328 0.198 0.705 0.304 1.095 0.304 1.172-0.002 2.122-0.951 2.124-2.124v-0c-0.002-1.172-0.952-2.122-2.124-2.123h-0zM7.071 14.203c-0.66-0.001-1.194-0.536-1.195-1.195v-0c0-0.66 0.535-1.196 1.195-1.196s1.196 0.537 1.196 1.196c0 0.66-0.537 1.196-1.196 1.196zM9.26 14.203c-0.135 0-0.266-0.024-0.392-0.067 0.206-0.327 0.327-0.714 0.327-1.129s-0.12-0.801-0.327-1.129c0.117-0.042 0.253-0.067 0.394-0.067 0.659 0 1.194 0.534 1.194 1.194 0 0.001 0 0.001 0 0.002v-0c0 0.66-0.536 1.196-1.196 1.196zM24.752 20.779h-4.499c-0.256 0-0.464 0.208-0.464 0.464s0.208 0.464 0.464 0.464h4.499c0.256 0 0.464-0.208 0.464-0.464s-0.208-0.464-0.464-0.464v0zM19.167 20.779h-0.893c-0.256 0-0.464 0.208-0.464 0.464s0.208 0.464 0.464 0.464h0.893c0.256 0 0.464-0.208 0.464-0.464s-0.208-0.464-0.464-0.464v0zM6.304 20.779h-0.893c-0.256 0-0.464 0.208-0.464 0.464s0.208 0.464 0.464 0.464h0.893c0.256 0 0.464-0.208 0.464-0.464s-0.208-0.464-0.464-0.464v0z"></path>
<path fill="#e6792c" style="fill: var(--color2, #e6792c)" d="M27.209 4.788c-0.62-0.619-1.29-1.189-2.004-1.701l-0.048-0.033c-0.075-0.054-0.168-0.086-0.268-0.086-0.256 0-0.464 0.208-0.464 0.464 0 0.155 0.076 0.293 0.194 0.377l0.001 0.001c0.718 0.514 1.349 1.050 1.933 1.633l-0-0c2.697 2.683 4.366 6.396 4.366 10.5 0 0.014-0 0.028-0 0.042v-0.002c0 0.012 0 0.026 0 0.040 0 4.103-1.669 7.816-4.364 10.498l-0.001 0.001c-2.683 2.696-6.396 4.365-10.499 4.365-0.014 0-0.028-0-0.042-0h0.002c-0.012 0-0.026 0-0.040 0-4.103 0-7.816-1.669-10.498-4.364l-0.001-0.001c-0.202-0.202-0.398-0.41-0.588-0.623l-0.013-0.015c-0.069-0.174-0.237-0.295-0.432-0.295-0.12 0-0.23 0.046-0.312 0.121l0-0c-0.106 0.086-0.174 0.216-0.174 0.362 0 0.117 0.044 0.224 0.115 0.306l-0-0.001c0.241 0.276 0.492 0.545 0.747 0.801 2.85 2.864 6.794 4.637 11.152 4.637 0.015 0 0.030-0 0.045-0h-0.002c0.013 0 0.027 0 0.042 0 4.358 0 8.303-1.773 11.152-4.636l0.001-0.001c2.864-2.85 4.637-6.794 4.637-11.152 0-0.015-0-0.030-0-0.045v0.002c0-0.013 0-0.028 0-0.043 0-4.358-1.773-8.303-4.636-11.152l-0.001-0.001z"></path>
<path fill="#e6792c" style="fill: var(--color2, #e6792c)" d="M23.767 6.012c-0.009-0.137-0.076-0.257-0.177-0.336l-0.001-0.001c-2.128-1.687-4.852-2.707-7.814-2.707-0.014 0-0.027 0-0.040 0h0.002c-2.028 0-3.969 0.464-5.769 1.379-1.762 0.912-3.233 2.152-4.383 3.652l-0.023 0.031c-1.619 2.103-2.595 4.774-2.595 7.673 0 0.012 0 0.023 0 0.035v-0.002c-0 0.011-0 0.023-0 0.036 0 2.963 1.020 5.689 2.728 7.844l-0.020-0.026c0.086 0.108 0.217 0.177 0.364 0.177 0.128 0 0.244-0.052 0.328-0.136l17.264-17.264c0.084-0.084 0.137-0.2 0.137-0.329 0-0.010-0-0.020-0.001-0.029l0 0.001zM12.258 16.43h-6.29v-0.618h6.909l-0.618 0.618zM13.804 14.885h-8.3c-0.256 0-0.464 0.208-0.464 0.464v0 1.545c0 0.257 0.208 0.464 0.464 0.464h5.827l-1.060 1.061h-4.836c-0.256 0-0.464 0.208-0.464 0.464s0.208 0.464 0.464 0.464h3.908l-3.252 3.252c-1.372-1.894-2.195-4.264-2.195-6.826 0-0.012 0-0.023 0-0.035v0.002c0-2.525 0.784-4.928 2.269-6.962h13.748l-6.109 6.109zM20.84 7.848h-13.925c2.161-2.429 5.295-3.952 8.785-3.952 0.013 0 0.027 0 0.040 0h-0.002c2.488 0 4.849 0.758 6.86 2.194l-1.757 1.757zM26.122 8.241c-0.052-0.070-0.089-0.118-0.127-0.165l0.014 0.018c-0.086-0.108-0.217-0.177-0.365-0.177-0.128 0-0.244 0.052-0.328 0.136v0l-17.264 17.264c-0.084 0.084-0.136 0.2-0.136 0.328 0 0.148 0.069 0.28 0.177 0.364l0.001 0.001c2.128 1.687 4.851 2.706 7.813 2.706 0.014 0 0.028-0 0.041-0h-0.002c0 0 0 0 0.001 0 4.41 0 8.298-2.238 10.589-5.639l0.029-0.045c1.347-1.985 2.151-4.434 2.151-7.070 0-0.005 0-0.010 0-0.015v0.001c0-2.806-0.897-5.471-2.594-7.706zM21.869 13.671c0-0.111 0.091-0.202 0.202-0.202h1.893v0.426h-2.095v-0.224zM21.869 14.823h2.095v0.27h-2.095v-0.27zM21.869 16.020h2.095v0.327h-1.893c-0.112 0-0.202-0.091-0.202-0.202v0-0.124zM18.659 16.020h0.379v0.618h-0.997l0.618-0.618zM25.859 22.416c-0.606 0.31-1.321 0.492-2.079 0.492h-7.133c-0.256 0-0.464 0.208-0.464 0.464s0.208 0.464 0.464 0.464h7.133c0.364 0 0.728-0.036 1.084-0.106-2.179 2.492-5.364 4.058-8.915 4.058-0.001 0-0.002 0-0.003 0h0c-2.488 0-4.849-0.757-6.86-2.194l1.757-1.757h3.949c0.256 0 0.464-0.208 0.464-0.464s-0.208-0.464-0.464-0.464v0h-3.021l3.355-3.355h10.153c0.256 0 0.464-0.208 0.464-0.464s-0.208-0.464-0.464-0.464h-9.225l1.060-1.060h2.39c0.256 0 0.464-0.208 0.464-0.464v0-1.546c-0-0.229-0.166-0.419-0.384-0.457l-0.003-0 1.362-1.361v2.407c0 0.623 0.507 1.13 1.13 1.13h3.395c0.623 0 1.13-0.507 1.13-1.13v-2.475c0-0.623-0.507-1.13-1.13-1.13h-3.327l3.454-3.454c1.372 1.894 2.195 4.264 2.195 6.827 0 0.012-0 0.023-0 0.035v-0.002c0 2.309-0.666 4.543-1.928 6.47zM24.891 16.347v-2.879h0.575c0.111 0 0.202 0.091 0.202 0.202v2.475c0 0.112-0.091 0.202-0.202 0.202v0h-0.575z"></path>
<path fill="#e6792c" style="fill: var(--color2, #e6792c)" d="M23.306 1.868c-2.16-1.176-4.73-1.868-7.462-1.868-0.004 0-0.008 0-0.013 0h0.001c-0.013-0-0.027-0-0.042-0-4.358 0-8.303 1.773-11.152 4.636l-0.001 0.001c-2.864 2.85-4.637 6.794-4.637 11.152 0 0.015 0 0.030 0 0.045v-0.002c0 3.198 0.944 6.273 2.73 8.893 0.084 0.126 0.226 0.208 0.387 0.208 0.256 0 0.464-0.208 0.464-0.464 0-0.1-0.032-0.193-0.086-0.268l0.001 0.001c-1.68-2.465-2.568-5.36-2.568-8.37-0-0.012-0-0.026-0-0.040 0-4.103 1.669-7.816 4.364-10.498l0.001-0.001c2.683-2.696 6.396-4.365 10.499-4.365 0.014 0 0.028 0 0.042 0h-0.002c2.462 0 4.895 0.608 7.035 1.757 0.060 0.030 0.131 0.048 0.206 0.048 0.256 0 0.464-0.208 0.464-0.464 0-0.17-0.092-0.319-0.228-0.4l-0.002-0.001z"></path>
</symbol>
<symbol id="employee" viewBox="0 0 34 32">

<path fill="#e6792c" style="fill: var(--color2, #e6792c)" d="M33.211 26.934c-0.272 0-0.494 0.221-0.494 0.494v3.299c0 0.046-0.037 0.083-0.083 0.083v0h-1.876v-7.213c0-0.273-0.221-0.494-0.494-0.494s-0.494 0.221-0.494 0.494v7.212h-3.626l0.982-1.079c0.123-0.139 0.198-0.322 0.198-0.524 0-0.044-0.004-0.087-0.011-0.129l0.001 0.005-1.103-6.516 0.203-0.306 0.053 0.038c0.124 0.089 0.28 0.143 0.448 0.143 0.301 0 0.562-0.172 0.689-0.424l0.002-0.004 1.122-2.249 2.563 0.993c0.101 0.044 1.424 0.65 1.424 2.228v2.141c0 0.273 0.221 0.494 0.494 0.494s0.494-0.221 0.494-0.494v0-2.14c0-2.278-1.954-3.107-2.037-3.142-0.001-0.001-0.004-0.002-0.007-0.003l-0.002-0.001-4.366-1.691v-0.899c0.68-0.548 1.153-1.328 1.301-2.218l0.003-0.021c0.354-0.044 0.668-0.189 0.919-0.406l-0.002 0.002c0.363-0.313 0.591-0.774 0.591-1.288 0-0.41-0.145-0.785-0.387-1.079l0.002 0.003v-1.332c-0.003-2.61-2.118-4.725-4.728-4.729h-0c-1.171 0-2.242 0.429-3.069 1.136-0.011-0.392-0.153-0.749-0.384-1.030l0.002 0.003v-1.332c-0.003-2.61-2.118-4.726-4.728-4.729h-0c-2.61 0.003-4.726 2.118-4.729 4.728v1.367c-0.226 0.266-0.368 0.609-0.381 0.986l-0 0.003c-0.518-0.445-1.143-0.782-1.829-0.967l-0.033-0.008c-0.038-0.010-0.081-0.016-0.126-0.016-0.273 0-0.494 0.221-0.494 0.494 0 0.228 0.154 0.42 0.364 0.476l0.003 0.001c1.616 0.438 2.785 1.891 2.785 3.617v0.738c-0.004-0.002-0.035-0.007-0.066-0.013l-0.026-0.004c-0.003-0.126-0.047-0.242-0.119-0.335l0.001 0.001c-0.126-0.182-0.353-0.409-1.083-1.193-0.26-0.279-0.681-0.33-1.001-0.122-1.25 0.817-2.769 1.233-4.179 1.151-0.459-0.027-0.746 0.175-0.868 0.505l-0.14 0.028v-0.757c0.008-1.678 1.113-3.095 2.633-3.574l0.027-0.007c0.205-0.063 0.352-0.251 0.352-0.473 0-0.273-0.221-0.494-0.494-0.494-0.051 0-0.1 0.008-0.146 0.022l0.003-0.001c-0.986 0.306-1.811 0.895-2.402 1.67l-0.008 0.012c-0.594 0.777-0.953 1.763-0.953 2.832 0 0.005 0 0.010 0 0.015v-0.001 1.367c-0.238 0.278-0.383 0.642-0.383 1.040v0c0 0.846 0.623 1.582 1.51 1.693 0.159 0.941 0.66 1.743 1.367 2.29l0.008 0.006v0.842l-4.369 1.694c-0.084 0.034-2.038 0.864-2.038 3.142v7.743c0 0.59 0.48 1.071 1.071 1.071h15.204c0.212 0 0.41-0.063 0.577-0.17 0.166 0.107 0.364 0.17 0.577 0.17h15.204c0.59 0 1.070-0.481 1.070-1.071v-3.299c0-0.272-0.221-0.494-0.494-0.494zM4.983 13.989c-0.279-0.101-0.474-0.364-0.474-0.672 0-0 0-0 0-0v0c0-0.291 0.21-0.529 0.474-0.643v1.315zM27.805 19.404l-0.97 1.942-1.091-0.776 1.212-1.495 0.849 0.328zM25.030 19.884l-1.277-1.576v-0.473c0.415 0.143 0.862 0.21 1.283 0.21 0.436 0 0.876-0.083 1.268-0.23v0.497l-1.274 1.573zM25.61 21.688l-0.182 0.273h-0.796l-0.182-0.273 0.58-0.412 0.579 0.412zM16.851 13.932l-1.277-1.576v-0.474c0.413 0.143 0.86 0.21 1.283 0.21 0.456-0.001 0.891-0.085 1.293-0.239l-0.025 0.008v0.497l-1.274 1.573zM17.43 15.736l-0.181 0.272h-0.796l-0.182-0.272 0.58-0.412 0.579 0.411zM12.963 9.009c0.080 0.022 0.163 0.037 0.247 0.048 0.159 0.941 0.66 1.743 1.367 2.291l0.008 0.006v0.842l-1.007 0.39c-0.063-0.131-0.136-0.244-0.22-0.347l0.002 0.003v-1.332c0-0.67-0.141-1.314-0.398-1.9zM19.474 8.487c-0.002 1.444-1.173 2.615-2.617 2.617h-0c-1.622 0-2.707-1.258-2.707-2.617v-2.313c1.559 0.063 3.178-0.4 4.502-1.224 0.445 0.477 0.71 0.754 0.822 0.883v2.653zM20.417 9.057c0.084-0.011 0.166-0.026 0.246-0.048-0.253 0.559-0.4 1.211-0.4 1.898 0 0.001 0 0.002 0 0.002v-0 1.367c-0.071 0.084-0.136 0.179-0.191 0.279l-0.004 0.009-0.955-0.37v-0.899c0.68-0.549 1.153-1.329 1.301-2.219l0.003-0.021zM14.924 13.124l1.212 1.496-1.090 0.774-0.969-1.942 0.847-0.328zM17.987 14.098l0.789-0.974 0.849 0.328-0.97 1.942-1.091-0.775 0.422-0.522zM18.236 16.307l0.053 0.038c0.124 0.089 0.28 0.143 0.448 0.143 0.301 0 0.562-0.172 0.689-0.424l0.002-0.004 0.833-1.67c0.286 0.353 0.701 0.568 1.127 0.621 0.155 0.942 0.657 1.746 1.369 2.289l0.009 0.006v0.842l-4.197 1.627-0.535-3.162 0.203-0.306zM23.103 19.077l1.212 1.496-1.089 0.774-0.97-1.942 0.847-0.328zM27.653 14.439c0 1.41-1.145 2.617-2.617 2.617-1.678 0-2.707-1.314-2.707-2.617v-2.312c1.548 0.061 3.169-0.395 4.502-1.224 0.445 0.477 0.71 0.755 0.822 0.884v2.653zM29.115 13.317c0 0.3-0.185 0.567-0.474 0.672v-1.343c0.298 0.109 0.474 0.381 0.474 0.671zM21.251 10.909c0.002-2.065 1.676-3.738 3.74-3.741h0c2.065 0.002 3.738 1.676 3.741 3.74v0.738c-0.010-0.003-0.041-0.008-0.073-0.014l-0.020-0.003c-0.003-0.126-0.047-0.242-0.119-0.335l0.001 0.001c-0.129-0.187-0.354-0.409-1.083-1.193-0.143-0.154-0.347-0.25-0.573-0.25-0.159 0-0.308 0.048-0.431 0.13l0.003-0.002c-1.216 0.795-2.753 1.244-4.216 1.149-0.411-0.027-0.708 0.174-0.831 0.507l-0.14 0.029v-0.758zM21.342 12.674v1.314c-0.279-0.101-0.475-0.363-0.475-0.671 0-0 0-0 0-0v0c0-0.291 0.21-0.529 0.475-0.643zM20.936 7.365c0 0.001 0 0.001 0 0.002 0 0.308-0.196 0.57-0.47 0.668l-0.005 0.002v-1.343c0.296 0.108 0.475 0.379 0.475 0.671zM16.812 1.217c2.065 0.002 3.738 1.676 3.741 3.74v0.738c-0.009-0.002-0.040-0.008-0.072-0.013l-0.021-0.003c-0.007-0.151-0.051-0.244-0.14-0.365-0.132-0.178-0.376-0.425-1.062-1.162-0.143-0.154-0.347-0.25-0.573-0.25-0.159 0-0.307 0.048-0.43 0.129l0.003-0.002c-1.284 0.84-2.843 1.248-4.255 1.147-0.017-0.001-0.037-0.002-0.057-0.002-0.335 0-0.621 0.21-0.733 0.506l-0.002 0.005c-0.011 0.001-0.133 0.027-0.14 0.028v-0.757c0.002-2.065 1.676-3.739 3.741-3.741h0zM13.163 6.722v1.315c-0.279-0.101-0.475-0.364-0.475-0.672 0-0 0-0 0-0v0c0-0.289 0.209-0.528 0.474-0.643zM12.283 12.645c0.276 0.101 0.453 0.342 0.471 0.628 0.022 0.319-0.174 0.606-0.471 0.715v-1.343zM12.237 15.011c0.482-0.061 0.896-0.313 1.17-0.676l0.003-0.004 0.864 1.73c0.129 0.256 0.39 0.429 0.691 0.429 0.168 0 0.324-0.054 0.45-0.145l-0.002 0.002 0.052-0.038 0.203 0.306-0.534 3.16-4.201-1.627v-0.899c0.679-0.548 1.153-1.327 1.301-2.216l0.003-0.021zM8.671 19.884l-1.277-1.576v-0.473c0.413 0.143 0.86 0.21 1.283 0.21 0.443 0 0.882-0.085 1.268-0.23v0.497l-1.275 1.573zM9.251 21.688l-0.182 0.273h-0.796l-0.182-0.273 0.58-0.412 0.579 0.412zM10.597 19.076l0.85 0.329-0.97 1.942-0.263-0.187h-0.001l-0.828-0.589 1.212-1.495zM5.971 14.44v-2.314c1.567 0.063 3.188-0.406 4.502-1.224 0.441 0.473 0.71 0.755 0.822 0.884v2.653c-0.003 1.444-1.173 2.614-2.617 2.617h-0c-1.61 0-2.707-1.243-2.707-2.617zM6.745 19.076l1.212 1.497-1.090 0.774-0.97-1.942 0.848-0.328zM3.934 30.81v-7.214c0-0.273-0.221-0.494-0.494-0.494s-0.494 0.221-0.494 0.494v7.212h-1.876c-0 0-0 0-0.001 0-0.046 0-0.083-0.037-0.083-0.083 0 0 0 0 0 0v0-7.742c0-1.586 1.336-2.19 1.423-2.228l2.562-0.993 1.121 2.249c0.129 0.256 0.39 0.429 0.691 0.429 0.168 0 0.324-0.054 0.451-0.145l-0.002 0.002 0.052-0.037 0.203 0.306-1.103 6.516-0.002 0.015c-0.005 0.033-0.008 0.071-0.008 0.11 0 0.201 0.075 0.385 0.199 0.524l-0.001-0.001 0.982 1.079h-3.622zM7.378 29.145l1.049-6.196h0.491l1.049 6.196-1.294 1.423-1.294-1.423zM16.358 30.727c0 0.046-0.037 0.083-0.083 0.083v0h-1.875v-7.214c0-0.273-0.221-0.494-0.494-0.494s-0.494 0.221-0.494 0.494v0 7.212h-3.626l0.981-1.079c0.124-0.139 0.199-0.323 0.199-0.524 0-0.044-0.004-0.087-0.010-0.128l0.001 0.005-1.103-6.516 0.203-0.306 0.052 0.038c0.124 0.089 0.28 0.143 0.448 0.143 0.301 0 0.562-0.172 0.689-0.424l0.002-0.004 1.123-2.249 2.563 0.993c0.748 0.325 1.424 1.164 1.424 2.228v7.744zM16.852 21.19c-0.204-0.33-0.477-0.635-0.805-0.895l0.558-3.299h0.491l0.558 3.301c-0.336 0.268-0.605 0.575-0.803 0.893zM20.292 30.811v-7.215c0-0.273-0.221-0.494-0.494-0.494s-0.494 0.221-0.494 0.494v7.213h-1.875c-0.046 0-0.083-0.037-0.083-0.083v0-7.742c0-0.587 0.184-1.128 0.576-1.582 0.261-0.3 0.608-0.543 0.846-0.646l2.562-0.993 1.123 2.25c0.129 0.256 0.39 0.429 0.691 0.429 0.168 0 0.324-0.054 0.45-0.145l-0.002 0.002 0.052-0.037 0.204 0.306-1.103 6.516c-0.006 0.037-0.010 0.080-0.010 0.124 0 0.202 0.076 0.385 0.2 0.525l-0.001-0.001 0.98 1.079h-3.622zM23.736 29.145l1.049-6.196h0.491l1.049 6.196-1.294 1.423-1.294-1.423z"></path>
</symbol>
<symbol id="insurance-1" viewBox="0 0 32 32">

<path fill="#e6792c" style="fill: var(--color2, #e6792c)" d="M16 7.5c-0.345 0-0.625 0.28-0.625 0.625s0.28 0.625 0.625 0.625v0c0.345 0 0.625-0.28 0.625-0.625s-0.28-0.625-0.625-0.625v0z"></path>
<path fill="#e6792c" style="fill: var(--color2, #e6792c)" d="M0.308 14.913c0.207 0.122 0.465 0.115 0.665-0.019 2.022-1.353 5.064-1.372 7.116-0.057 0.111 0.1 0.257 0.161 0.418 0.161h0.007c0.004 0 0.009 0 0.014 0 0.129 0 0.249-0.039 0.348-0.106l-0.002 0.001c0.951-0.647 2.124-1.032 3.388-1.032 1.149 0 2.224 0.319 3.14 0.874l-0.027-0.015v14.155c0 1.726 1.399 3.125 3.125 3.125s3.125-1.399 3.125-3.125v0-2.5c-0.011-0.336-0.287-0.605-0.625-0.605s-0.614 0.268-0.625 0.604l-0 0.001v2.5c0 1.036-0.839 1.875-1.875 1.875s-1.875-0.839-1.875-1.875v0-14.155c0.889-0.54 1.965-0.859 3.114-0.859 1.264 0 2.437 0.386 3.409 1.046l-0.021-0.014c0.105 0.071 0.227 0.106 0.347 0.106l0.013-0.001h0.006c0 0 0 0 0 0 0.161 0 0.308-0.061 0.418-0.162l-0 0c2.052-1.315 5.094-1.296 7.116 0.057 0.098 0.066 0.218 0.106 0.348 0.106 0.345 0 0.625-0.28 0.625-0.625 0-0.019-0.001-0.037-0.002-0.055l0 0.002c-0.66-7.996-7.775-14.323-15.998-14.323-8.219 0-15.338 6.321-15.998 14.323-0.001 0.015-0.002 0.033-0.002 0.051 0 0.229 0.123 0.429 0.306 0.538l0.003 0.002zM16.625 13.307v-2.682c-0.011-0.336-0.287-0.605-0.625-0.605s-0.614 0.268-0.625 0.604l-0 0.001v2.682c-0.912-0.439-1.983-0.696-3.113-0.696-1.119 0-2.179 0.251-3.128 0.701l0.044-0.019c0.404-6.321 3.030-11.387 6.196-11.983v4.315c0.011 0.336 0.287 0.605 0.625 0.605s0.614-0.268 0.625-0.604l0-0.001v-4.315c3.167 0.596 5.793 5.662 6.197 11.983-0.904-0.431-1.965-0.682-3.084-0.682-1.13 0-2.201 0.256-3.156 0.714l0.044-0.019zM30.601 13.251c-0.929-0.402-2.011-0.635-3.148-0.635-0.006 0-0.011 0-0.017 0h-0.011c-1.184 0-2.34 0.249-3.349 0.713-0.231-3.925-1.431-8.809-4.196-11.55 5.421 1.497 9.767 6.011 10.721 11.472zM12.12 1.779c-2.765 2.741-3.964 7.624-4.196 11.549-2.018-0.927-4.493-0.947-6.525-0.077 0.955-5.461 5.3-9.975 10.721-11.472z"></path>
<path fill="#e6792c" style="fill: var(--color2, #e6792c)" d="M6.937 26.955c-0.267 0-0.555-0.167-0.811-0.473-0.115-0.137-0.287-0.223-0.478-0.223-0.345 0-0.625 0.28-0.625 0.625 0 0.154 0.055 0.294 0.147 0.403l-0.001-0.001c0.333 0.397 0.727 0.674 1.143 0.813v0.73c0.011 0.336 0.287 0.605 0.625 0.605s0.614-0.268 0.625-0.604l0-0.001v-0.733c0.734-0.266 1.249-0.956 1.25-1.767v-0c-0.001-1.035-0.84-1.874-1.875-1.875h-0c-0.33-0.019-0.591-0.292-0.591-0.625s0.26-0.606 0.589-0.625l0.002-0c0.221 0 0.455 0.113 0.676 0.327 0.114 0.118 0.274 0.192 0.451 0.192 0.345 0 0.625-0.28 0.625-0.625 0-0.184-0.080-0.35-0.206-0.464l-0.001-0c-0.317-0.307-0.635-0.48-0.92-0.575v-0.728c-0.011-0.336-0.287-0.605-0.625-0.605s-0.614 0.268-0.625 0.604l-0 0.001v0.733c-0.734 0.266-1.249 0.956-1.25 1.767v0c0.001 1.035 0.84 1.874 1.875 1.875h0c0.33 0.019 0.591 0.292 0.591 0.625s-0.26 0.606-0.589 0.625l-0.002 0z"></path>
<path fill="#e6792c" style="fill: var(--color2, #e6792c)" d="M6.875 32c3.791 0 6.875-3.084 6.875-6.875s-3.084-6.875-6.875-6.875c-3.79 0-6.875 3.084-6.875 6.875 0 3.79 3.084 6.875 6.875 6.875zM6.875 19.5c3.101 0 5.625 2.523 5.625 5.625s-2.523 5.625-5.625 5.625c-3.101 0-5.625-2.523-5.625-5.625s2.523-5.625 5.625-5.625z"></path>
</symbol>
<symbol id="profits" viewBox="0 0 34 32">

<path fill="#e6792c" style="fill: var(--color2, #e6792c)" d="M33.92 29.401l-1.332-1.334c-0.121-0.121-0.287-0.195-0.471-0.195-0.368 0-0.667 0.299-0.667 0.667 0 0.184 0.075 0.351 0.195 0.472l0.195 0.195h-1.969v-7.902c0-0.009 0.001-0.020 0.001-0.031 0-0.368-0.299-0.667-0.667-0.667s-0.667 0.299-0.667 0.667c0 0.011 0 0.022 0.001 0.033l-0-0.002v7.902h-2.932v-14.669h2.931v2.033c-0 0.007-0 0.014-0 0.022 0 0.368 0.299 0.667 0.667 0.667s0.667-0.299 0.667-0.667c0-0.008-0-0.015-0-0.023l0 0.001v-2.701c0-0.368-0.298-0.666-0.666-0.667h-4.265c-0.368 0-0.666 0.299-0.666 0.667 0 0 0 0 0 0v0 15.336h-1.339v-11.069c-0-0.368-0.298-0.666-0.666-0.666h-4.265c-0.368 0-0.666 0.298-0.666 0.666v11.069h-1.34v-7.334c0-0.368-0.298-0.666-0.666-0.667h-4.264c-0.368 0-0.667 0.299-0.667 0.667v0 7.335h-1.338v-4.668c0-0.368-0.299-0.667-0.667-0.667v0h-4.265c-0.368 0-0.666 0.299-0.666 0.667 0 0 0 0 0 0v0 4.668h-0.8v-26.929l0.196 0.196c0.12 0.121 0.287 0.196 0.471 0.196s0.351-0.075 0.471-0.196l0-0c0.121-0.121 0.195-0.287 0.195-0.472s-0.075-0.351-0.195-0.472l-1.333-1.332c-0.121-0.12-0.287-0.195-0.471-0.195s-0.35 0.074-0.471 0.195l-1.333 1.332c-0.121 0.121-0.196 0.288-0.196 0.472 0 0.368 0.299 0.667 0.667 0.667 0.184 0 0.351-0.075 0.471-0.195v0l0.195-0.196v27.596c0 0.368 0.298 0.667 0.667 0.667h29.841l-0.195 0.195c-0.114 0.12-0.185 0.282-0.185 0.461 0 0.368 0.299 0.667 0.667 0.667 0.179 0 0.341-0.070 0.461-0.185l-0 0 1.332-1.334c0.12-0.121 0.195-0.287 0.195-0.471s-0.075-0.351-0.195-0.471v0zM7.729 29.206h-2.932v-4h2.931v4zM14.665 29.206h-2.932v-6.668h2.932v6.668zM21.601 29.206h-2.931v-10.402h2.931v10.402z"></path>
<path fill="#e6792c" style="fill: var(--color2, #e6792c)" d="M29.676 18.433c-0.121-0.12-0.287-0.195-0.471-0.196h-0c-0.367 0.003-0.663 0.302-0.663 0.669 0 0.183 0.073 0.348 0.192 0.469l-0-0c0.124 0.124 0.296 0.196 0.471 0.196 0.184-0.001 0.35-0.075 0.471-0.196l-0 0c0.12-0.121 0.194-0.287 0.195-0.471v-0c-0.001-0.184-0.075-0.35-0.195-0.471l0 0zM6.945 18.059c-0.039-0.334-0.32-0.591-0.662-0.591-0.027 0-0.053 0.002-0.079 0.005l0.003-0-0.020 0.002c-0.33 0.043-0.582 0.323-0.582 0.662 0 0.368 0.299 0.667 0.667 0.667 0.024 0 0.047-0.001 0.070-0.004l-0.003 0 0.020-0.002c0.334-0.039 0.591-0.321 0.591-0.663 0-0.027-0.002-0.053-0.005-0.079l0 0.003zM29.274 1.328c-0.104-0.071-0.233-0.114-0.372-0.114-0.107 0-0.207 0.025-0.297 0.069l0.004-0.002-3.455 1.687c-0.224 0.111-0.375 0.337-0.375 0.599 0 0.229 0.116 0.432 0.292 0.552l0.002 0.002 1.089 0.735c-0.66 0.887-2.221 2.857-4.524 4.972-2.845 2.616-7.441 5.999-13.177 7.265-0.29 0.077-0.501 0.337-0.501 0.646 0 0.368 0.299 0.667 0.667 0.667 0.043 0 0.084-0.004 0.124-0.012l-0.004 0.001c2.671-0.589 5.327-1.656 7.894-3.171 2.045-1.207 4.039-2.701 5.926-4.439 2.428-2.235 4.031-4.273 4.702-5.182l0.992 0.669c0.105 0.072 0.234 0.114 0.373 0.114 0.352 0 0.64-0.273 0.664-0.619l0-0.002 0.267-3.839c0.001-0.014 0.002-0.030 0.002-0.046 0-0.229-0.116-0.431-0.292-0.551l-0.002-0.001zM28.051 4.521l-1.275-0.86 1.382-0.675-0.107 1.535zM7.063 8.279c-0.809 0-1.466-0.569-1.466-1.27s0.657-1.27 1.466-1.27c0.808 0 1.465 0.569 1.465 1.27-0 0.007-0 0.014-0 0.022 0 0.368 0.299 0.667 0.667 0.667s0.667-0.299 0.667-0.667c0-0.008-0-0.015-0-0.023l0 0.001c0-1.222-0.91-2.249-2.132-2.528v-0.214c0-0.007 0-0.014 0-0.022 0-0.368-0.299-0.667-0.667-0.667s-0.667 0.299-0.667 0.667c0 0.008 0 0.015 0 0.023l-0-0.001v0.214c-1.222 0.279-2.132 1.306-2.132 2.528 0 1.436 1.255 2.604 2.799 2.604 0.808 0 1.465 0.569 1.465 1.27s-0.657 1.269-1.465 1.269c-0.809 0-1.466-0.569-1.466-1.27 0-0.009 0.001-0.020 0.001-0.031 0-0.368-0.299-0.667-0.667-0.667s-0.667 0.299-0.667 0.667c0 0.011 0 0.022 0.001 0.033l-0-0.002c0 1.222 0.909 2.249 2.132 2.529v0.191c-0 0.007-0 0.014-0 0.022 0 0.368 0.299 0.667 0.667 0.667s0.667-0.299 0.667-0.667c0-0.008-0-0.015-0-0.023l0 0.001v-0.191c1.222-0.279 2.132-1.306 2.132-2.529 0-1.435-1.256-2.604-2.799-2.604z"></path>
</symbol>
<symbol id="receptionist" viewBox="0 0 32 32">

<path fill="#e6792c" style="fill: var(--color2, #e6792c)" d="M22.283 22.432c-0.113-0.113-0.269-0.183-0.442-0.183h-0c-0.165 0-0.325 0.067-0.442 0.183-0.113 0.113-0.183 0.269-0.183 0.442v0c0 0.164 0.067 0.325 0.183 0.442 0.113 0.112 0.27 0.182 0.442 0.182s0.329-0.069 0.442-0.182l-0 0c0.113-0.113 0.182-0.27 0.182-0.442s-0.070-0.329-0.182-0.442l0 0zM29.067 24.495c-0.113-0.113-0.27-0.182-0.442-0.183h-0c-0.164 0-0.325 0.067-0.441 0.183-0.113 0.113-0.183 0.269-0.183 0.442v0c0 0.165 0.067 0.326 0.183 0.442 0.113 0.113 0.269 0.183 0.442 0.183h0c0.164 0 0.325-0.067 0.441-0.183 0.113-0.113 0.183-0.269 0.183-0.442v-0c0-0.164-0.067-0.325-0.183-0.442zM5.723 12.43v-0.263l-0.001-0.011h0.027c0.336-0.011 0.605-0.287 0.605-0.625s-0.268-0.614-0.604-0.625l-0.001-0h-1.304c-0.336 0.011-0.605 0.287-0.605 0.625s0.268 0.614 0.604 0.625l0.001 0h0.027v0.274c-1.714 0.31-2.998 1.79-3 3.57v0c0.011 0.336 0.287 0.605 0.625 0.605s0.614-0.268 0.625-0.604l0-0.001c0.002-1.311 1.064-2.373 2.374-2.375h0c1.311 0.002 2.374 1.064 2.375 2.375v0c0.011 0.336 0.287 0.605 0.625 0.605s0.614-0.268 0.625-0.604l0-0.001c-0.002-1.78-1.286-3.26-2.978-3.567l-0.022-0.003z"></path>
<path fill="#e6792c" style="fill: var(--color2, #e6792c)" d="M31.375 16.625h-2.625v-4.859c-0.001-1.286-0.872-2.367-2.055-2.689l-0.020-0.005-2.323-0.615v-1.444c-0-0.036-0.004-0.071-0.010-0.105l0.001 0.004c0.331-0.48 0.525-1.061 0.525-1.687v-4.6c0-0.345-0.28-0.625-0.625-0.625h-4.736c-0.345 0-0.625 0.28-0.625 0.625v0 4.6c0 0.626 0.193 1.207 0.524 1.687-0.005 0.030-0.009 0.065-0.009 0.101v1.444l-2.323 0.615c-1.203 0.326-2.074 1.408-2.075 2.693v4.859h-14.375c-0.345 0-0.625 0.28-0.625 0.625v0 3c0 0.345 0.28 0.625 0.625 0.625h2.125v10.5c0 0.345 0.28 0.625 0.625 0.625h25.249c0.345 0 0.625-0.28 0.625-0.625v-4.057c-0.011-0.336-0.287-0.605-0.625-0.605s-0.614 0.268-0.625 0.604l-0 0.001v3.432h-24v-7.251h15.507c0.336-0.011 0.605-0.287 0.605-0.625s-0.268-0.614-0.604-0.625l-0.001-0h-15.507v-1.373h24v1.437c0.011 0.336 0.287 0.605 0.625 0.605s0.614-0.268 0.625-0.604l0-0.001v-1.438h2.125c0.345 0 0.625-0.28 0.625-0.625v-3c0-0.345-0.28-0.625-0.625-0.625v0zM26.355 10.281c0.664 0.18 1.144 0.777 1.145 1.486v4.859h-1.25v-4c-0.011-0.336-0.287-0.605-0.625-0.605s-0.614 0.268-0.625 0.604l-0 0.001v4h-2.5v-6.425l1.327-0.587 2.529 0.668zM22.5 8.833v-0.685c0.209-0.045 0.411-0.112 0.602-0.198v0.617l-0.602 0.267zM20.133 1.25h3.485v1.78h-3.484v-1.78zM20.133 4.28h3.485v0.945c-0.019 0.948-0.792 1.709-1.742 1.709s-1.723-0.761-1.742-1.707l-0-0.002v-0.945zM21.25 8.148v0.685l-0.602-0.267v-0.616c0.191 0.087 0.393 0.153 0.602 0.198zM16.25 11.767c0-0.697 0.471-1.308 1.144-1.486l2.529-0.668 1.327 0.587v6.426h-2.376v-4c-0.011-0.336-0.287-0.605-0.625-0.605s-0.614 0.268-0.625 0.604l-0 0.001v4h-1.374v-4.859zM30.75 19.625h-29.5v-1.75h29.5v1.75z"></path>
<path fill="#e6792c" style="fill: var(--color2, #e6792c)" d="M24.442 11.725c-0.113-0.112-0.27-0.182-0.442-0.182s-0.328 0.069-0.442 0.182l0-0c-0.113 0.113-0.183 0.269-0.183 0.442v0c0 0.165 0.067 0.326 0.183 0.442 0.113 0.113 0.269 0.183 0.442 0.183h0c0.165 0 0.325-0.067 0.442-0.183 0.113-0.113 0.183-0.269 0.183-0.442v-0c0-0.165-0.067-0.325-0.183-0.442z"></path>
</symbol>
<symbol id="refugee" viewBox="0 0 25 32">

<path fill="#e6792c" style="fill: var(--color2, #e6792c)" d="M6.392 14.595c0 1.146 0.941 3.835 2.527 3.835s2.527-2.689 2.527-3.835c0-1.445-1.14-2.64-2.527-2.64s-2.527 1.195-2.527 2.64zM8.919 17.434c-0.595 0-1.338-1.444-1.486-2.49h2.973c-0.149 1.046-0.892 2.491-1.486 2.491zM10.306 13.947h-2.824c0.297-0.598 0.842-0.996 1.437-0.996s1.14 0.398 1.387 0.996zM1.883 8.518c-0.248 0.050-0.446 0.349-0.347 0.598l2.428 10.112v12.154c0 0.299 0.198 0.498 0.495 0.498s0.495-0.199 0.495-0.498v-12.303l-2.477-10.212c-0.050-0.249-0.347-0.449-0.595-0.349zM16.846 9.115c0.019-0.047 0.030-0.103 0.030-0.16 0-0.221-0.162-0.404-0.374-0.437l-0.002-0c-0.047-0.019-0.102-0.030-0.159-0.030-0.221 0-0.404 0.164-0.435 0.376l-0 0.002-2.973 10.212v4.333c0 0.299 0.198 0.498 0.495 0.498s0.495-0.199 0.495-0.498v-4.184h-0.050l2.973-10.112zM10.752 23.063c0-0.003 0-0.006 0-0.009 0-1.013-0.821-1.834-1.833-1.834h-0c-0.991 0-1.833 0.846-1.833 1.843s0.793 1.843 1.833 1.843 1.833-0.797 1.833-1.843zM8.919 23.91c-0.495 0-0.842-0.348-0.842-0.846s0.396-0.847 0.842-0.847 0.842 0.398 0.842 0.846c0 0.449-0.347 0.847-0.842 0.847zM7.581 25.603l-1.338 0.598c-0.198 0.1-0.297 0.249-0.297 0.448v4.732c0 0.299 0.198 0.498 0.495 0.498s0.495-0.199 0.495-0.498v-4.383l1.041-0.449c0.248-0.1 0.347-0.398 0.248-0.647-0.099-0.299-0.396-0.399-0.644-0.299zM11.594 26.201l-1.338-0.598c-0.248-0.1-0.545 0-0.644 0.249s0 0.548 0.248 0.648l1.041 0.448v4.434c0 0.299 0.198 0.498 0.495 0.498s0.495-0.199 0.495-0.498v-4.732c0-0.199-0.099-0.398-0.297-0.448zM24.477 21.469l-1.685-0.697v-4.333c0-1.395-1.090-2.491-2.477-2.491s-2.477 1.096-2.477 2.491v4.134l-2.18 0.846c-0.149 0.1-0.297 0.249-0.297 0.499v9.464c0 0.299 0.198 0.498 0.495 0.498s0.495-0.199 0.495-0.498v-9.165l1.833-0.697 1.734 2.191c0.099 0.1 0.248 0.199 0.396 0.199s0.297-0.050 0.396-0.199l1.635-2.042 1.437 0.548v6.675c0 0.299 0.198 0.498 0.495 0.498s0.495-0.199 0.495-0.498v-6.973c0-0.199-0.149-0.398-0.297-0.449zM20.315 14.943c0.694 0 1.189 0.398 1.387 0.996h-2.824c0.248-0.598 0.743-0.996 1.437-0.996zM21.752 16.936c-0.198 0.947-0.793 1.993-1.387 1.993s-1.288-1.046-1.486-1.992h2.874zM21.801 20.772l-1.486 1.843-1.486-1.893v-1.693c0.446 0.498 0.941 0.896 1.536 0.896 0.545 0 1.041-0.299 1.437-0.747v1.594zM17.837 7.472v-6.974c0-0.299-0.198-0.498-0.495-0.498h-8.919c-0.297 0-0.495 0.199-0.495 0.498s0.198 0.498 0.495 0.498h8.423v5.977h-15.855v-5.977h2.477c0.297 0 0.495-0.2 0.495-0.499s-0.198-0.498-0.495-0.498h-2.973c-0.297 0-0.495 0.199-0.495 0.498v6.974c0 0.299 0.198 0.498 0.495 0.498h16.846c0.297 0 0.495-0.199 0.495-0.498z"></path>
<path fill="#e6792c" style="fill: var(--color2, #e6792c)" d="M5.45 0.996h0.991c0.297 0 0.495-0.199 0.495-0.498s-0.198-0.498-0.495-0.498h-0.991c-0.297 0-0.495 0.199-0.495 0.498s0.198 0.498 0.495 0.498zM5.946 14.296l-1.486-5.48c-0.099-0.249-0.347-0.398-0.644-0.348-0.248 0.050-0.396 0.348-0.347 0.598l1.486 5.479c0.050 0.199 0.248 0.349 0.495 0.349h0.149c0.248-0.050 0.396-0.349 0.347-0.598zM14.518 8.518c-0.248-0.1-0.545 0.050-0.644 0.299l-1.982 5.479c-0.099 0.249 0.050 0.548 0.297 0.647 0.050 0 0.099 0.050 0.149 0.050 0.198 0 0.396-0.15 0.446-0.349l1.982-5.479c0.149-0.299 0.050-0.598-0.248-0.648zM2.973 2.491v1.494c0 0.299 0.198 0.498 0.495 0.498h0.991v0.498h-0.991c-0.297 0-0.495 0.199-0.495 0.498s0.198 0.498 0.495 0.498h1.486c0.297 0 0.495-0.199 0.495-0.498v-1.494c0-0.299-0.198-0.498-0.495-0.498h-0.991v-0.499h0.991c0.297 0 0.495-0.199 0.495-0.498s-0.198-0.499-0.495-0.499h-1.486c-0.297 0-0.495 0.199-0.495 0.499zM11.892 4.981c-0.297 0-0.495 0.199-0.495 0.498s0.198 0.498 0.495 0.498h1.486c0.297 0 0.495-0.199 0.495-0.498v-1.494c0-0.299-0.198-0.498-0.495-0.498h-0.991v-0.499h0.991c0.297 0 0.495-0.199 0.495-0.498s-0.198-0.499-0.495-0.499h-1.486c-0.297 0-0.495 0.199-0.495 0.499v1.494c0 0.299 0.198 0.498 0.495 0.498h0.991v0.498h-0.991zM6.937 5.479c0 0.299 0.198 0.498 0.495 0.498h1.982c0.297 0 0.495-0.199 0.495-0.498v-2.988c0-0.299-0.198-0.499-0.495-0.499h-1.982c-0.297 0-0.495 0.199-0.495 0.499v2.988zM7.928 2.989h0.991v1.992h-0.991v-1.992zM13.378 24.408c-0.297 0-0.495 0.199-0.495 0.498v0.996c0 0.299 0.198 0.499 0.495 0.499s0.495-0.199 0.495-0.498v-0.996c0-0.299-0.198-0.499-0.495-0.499zM24.279 29.887c-0.297 0-0.495 0.199-0.495 0.498v0.996c0 0.299 0.198 0.499 0.495 0.499s0.495-0.199 0.495-0.498v-0.996c0-0.299-0.198-0.499-0.495-0.499z"></path>
</symbol>
<symbol id="restaurant" viewBox="0 0 32 32">

<path fill="#e6792c" style="fill: var(--color2, #e6792c)" d="M16 7.125c-4.894 0-8.875 3.981-8.875 8.875s3.981 8.875 8.875 8.875 8.875-3.981 8.875-8.875-3.981-8.875-8.875-8.875zM16 23.625c-4.204 0-7.625-3.421-7.625-7.625s3.421-7.625 7.625-7.625c4.204 0 7.625 3.421 7.625 7.625s-3.421 7.625-7.625 7.625zM31.668 0.073c-0.085-0.046-0.186-0.073-0.293-0.073-0.131 0-0.252 0.040-0.352 0.109l0.002-0.001c-2.973 2.027-4.899 5.397-4.899 9.217 0 0.003 0 0.005 0 0.008v-0 8.11c0 0.869 0.338 1.688 0.952 2.302l1.172 1.171v9.211c0.002 1.035 0.841 1.873 1.876 1.874h0c1.034-0.002 1.873-0.84 1.874-1.874v-29.501c-0-0.238-0.133-0.445-0.329-0.55l-0.003-0.002zM30.75 30.125c-0.017 0.332-0.29 0.595-0.625 0.595s-0.608-0.263-0.625-0.593l-0-0.002v-9.469c0-0 0-0 0-0 0-0.172-0.070-0.329-0.183-0.442v0l-1.356-1.354c-0.363-0.361-0.587-0.861-0.587-1.413 0-0.002 0-0.004 0-0.006v0-8.11c0-2.874 1.242-5.575 3.375-7.438v28.232z"></path>
<path fill="#e6792c" style="fill: var(--color2, #e6792c)" d="M14.566 11.043c-0.098-0.225-0.318-0.38-0.575-0.38-0.089 0-0.173 0.019-0.25 0.052l0.004-0.002c-2.069 0.898-3.49 2.924-3.49 5.281 0 0.002 0 0.004 0 0.006v-0c0 0.345 0.28 0.625 0.625 0.625s0.625-0.28 0.625-0.625v0c0-1.804 1.073-3.429 2.733-4.137 0.225-0.098 0.379-0.318 0.379-0.575 0-0.089-0.018-0.173-0.052-0.249l0.002 0.004zM16 10.255h-0.031c-0.344 0.001-0.623 0.28-0.623 0.625s0.28 0.625 0.625 0.625c0.001 0 0.001 0 0.002 0h0.027c0.345 0 0.625-0.28 0.625-0.625s-0.28-0.625-0.625-0.625v0zM24.664 7.78c-2.174-2.295-5.243-3.723-8.646-3.723-0.006 0-0.012 0-0.018 0h0.001c-1.905 0-3.726 0.435-5.413 1.294-0.205 0.105-0.343 0.315-0.343 0.558 0 0.345 0.28 0.625 0.625 0.625 0.105 0 0.203-0.026 0.29-0.071l-0.003 0.002c1.399-0.73 3.056-1.158 4.813-1.158 0.011 0 0.023 0 0.034 0h-0.002c0.012-0 0.026-0 0.040-0 3.039 0 5.78 1.279 7.712 3.329l0.005 0.005c0.114 0.12 0.275 0.195 0.453 0.195 0.167 0 0.319-0.066 0.431-0.173l-0 0c0.12-0.114 0.195-0.275 0.195-0.453 0-0.167-0.066-0.319-0.172-0.431l0 0zM25.271 22.523c-0.105-0.084-0.241-0.135-0.387-0.135-0.198 0-0.375 0.092-0.489 0.236l-0.001 0.001c-1.966 2.486-4.982 4.066-8.367 4.066-0.009 0-0.018 0-0.027-0h0.001c-2.059 0-4.059-0.587-5.781-1.696-0.096-0.062-0.213-0.099-0.338-0.099-0.345 0-0.625 0.28-0.625 0.625 0 0.22 0.113 0.413 0.284 0.524l0.002 0.001c1.82 1.188 4.049 1.895 6.443 1.895 0.005 0 0.011 0 0.016 0h-0.001c3.675 0 7.092-1.655 9.373-4.541 0.084-0.106 0.135-0.241 0.135-0.388 0-0.198-0.092-0.375-0.236-0.489l-0.001-0.001zM8.498 23.621l-0.009-0.011-0.010-0.012c-0.115-0.136-0.287-0.223-0.478-0.223-0.345 0-0.625 0.28-0.625 0.625 0 0.154 0.055 0.294 0.147 0.403l-0.001-0.001 0.006 0.008c0.115 0.149 0.294 0.243 0.494 0.243 0.156 0 0.299-0.058 0.409-0.153l-0.001 0.001c0.134-0.115 0.218-0.285 0.218-0.474 0-0.156-0.057-0.298-0.151-0.408l0.001 0.001zM7.75 0c-0.345 0-0.625 0.28-0.625 0.625v0 6.75h-1.126l0.001-0.011v-6.74c0-0.345-0.28-0.625-0.625-0.625s-0.625 0.28-0.625 0.625v0 6.75h-1.126v-6.75c0-0.345-0.28-0.625-0.625-0.625s-0.625 0.28-0.625 0.625v6.75h-1.124v-6.75c0-0.345-0.28-0.626-0.626-0.626s-0.626 0.28-0.626 0.626v0 7.625c0.006 1.564 0.944 2.908 2.288 3.505l0.025 0.010v18.361c0.002 1.035 0.84 1.873 1.875 1.874h0c1.035-0.001 1.873-0.84 1.875-1.874v-18.362c1.368-0.607 2.306-1.95 2.312-3.514v-7.625c0-0.345-0.28-0.625-0.625-0.625v0zM5.264 10.726c-0.263 0.078-0.452 0.317-0.452 0.6 0 0 0 0 0 0v0 18.799c-0.017 0.332-0.29 0.595-0.625 0.595s-0.608-0.263-0.625-0.593l-0-0.002v-18.799c0 0 0-0 0-0 0-0.283-0.189-0.523-0.447-0.599l-0.004-0.001c-0.961-0.288-1.677-1.095-1.831-2.087l-0.002-0.014h5.818c-0.155 1.007-0.871 1.813-1.814 2.097l-0.018 0.005z"></path>
</symbol>
<symbol id="skyline-1" viewBox="0 0 28 32">

<path fill="#e6792c" style="fill: var(--color2, #e6792c)" d="M27.555 30.36h-0.866v-27.712c0-0.001 0-0.003 0-0.004 0-0.288-0.232-0.522-0.52-0.525h-9.705c-0.287 0.003-0.519 0.237-0.519 0.525 0 0.002 0 0.003 0 0.005v-0 2.294h-1.040v-2.294c0-0.001 0-0.003 0-0.004 0-0.288-0.232-0.522-0.519-0.525h-2.254v-1.589c0-0.001 0-0.003 0-0.004 0-0.288-0.232-0.522-0.52-0.525h-0c-0.288 0.003-0.52 0.237-0.52 0.525 0 0.001 0 0.003 0 0.004v-0 1.589h-2.253c-0.287 0.003-0.519 0.237-0.519 0.525 0 0.002 0 0.003 0 0.005v-0 2.294h-1.56c-0.287 0.003-0.519 0.237-0.519 0.525 0 0.002 0 0.004 0 0.006v-0 4.412h-4.333c-0.288 0.002-0.52 0.236-0.52 0.525 0 0.002 0 0.003 0 0.005v-0 19.946h-0.866c-0.287 0.003-0.519 0.237-0.519 0.525 0 0.002 0 0.003 0 0.005v-0c0 0.001-0 0.003-0 0.004 0 0.288 0.232 0.522 0.519 0.525h27.035c0.287-0.003 0.519-0.237 0.519-0.525 0-0.002 0-0.003-0-0.005v0c0-0.001 0-0.003 0-0.004 0-0.288-0.232-0.522-0.519-0.525h-0zM9.358 3.178h4.506v1.765h-4.506v-1.765zM7.626 30.36h-0.347v-0.883c0-0.001 0-0.003 0-0.004 0-0.288-0.232-0.522-0.52-0.525h-0c-0.288 0.003-0.52 0.237-0.52 0.525 0 0.002 0 0.003 0 0.004v-0 0.883h-0.347v-1.765h1.733v1.765zM11.091 16.769v13.59h-2.426v-2.294c0-0.001 0-0.003 0-0.005 0-0.288-0.232-0.522-0.519-0.525h-2.774c-0.288 0.003-0.52 0.237-0.52 0.525 0 0.002 0 0.003 0 0.005v-0 2.294h-2.426v-19.414h8.665v5.825zM11.612 9.884h-4.333v-3.883h8.665v10.237h-3.812v-1.765h1.56c0.288-0.003 0.52-0.237 0.52-0.525 0-0.002 0-0.003-0-0.005v0c0-0.001 0-0.003 0-0.004 0-0.288-0.232-0.522-0.52-0.525h-1.56v-1.765h1.56c0.288-0.003 0.52-0.237 0.52-0.525 0-0.002 0-0.003-0-0.005v0c0-0.001 0-0.003 0-0.004 0-0.288-0.232-0.522-0.52-0.525h-1.56v-0.177c0-0.001 0-0.003 0-0.004 0-0.288-0.232-0.522-0.52-0.525h-0zM20.796 30.36h-8.665v-13.061h8.664v13.061zM25.649 30.36h-3.813v-14.297c0-0.001 0-0.003 0-0.004 0-0.288-0.232-0.522-0.52-0.525h-0c-0.288 0.003-0.52 0.237-0.52 0.525 0 0.002 0 0.003 0 0.004v-0 0.176h-1.040v-0.176c0-0.001 0-0.003 0-0.004 0-0.288-0.232-0.522-0.52-0.525h-0c-0.288 0.003-0.52 0.237-0.52 0.525 0 0.002 0 0.003 0 0.004v-0 0.176h-1.733v-13.061h8.664v27.182z"></path>
<path fill="#e6792c" style="fill: var(--color2, #e6792c)" d="M14.384 29.301c0.288-0.003 0.52-0.237 0.52-0.525 0-0.002 0-0.003-0-0.004v0-9.884c0-0.001 0-0.003 0-0.004 0-0.288-0.232-0.522-0.519-0.525h-0c-0.288 0.003-0.52 0.237-0.52 0.525 0 0.002 0 0.003 0 0.004v-0 9.884c0 0.001-0 0.003-0 0.004 0 0.288 0.232 0.522 0.52 0.525h0zM16.464 29.301c0.288-0.003 0.52-0.237 0.52-0.525 0-0.002 0-0.003-0-0.004v0-9.884c0-0.001 0-0.003 0-0.004 0-0.288-0.232-0.522-0.519-0.525h-0c-0.288 0.003-0.52 0.237-0.52 0.525 0 0.002 0 0.003 0 0.004v-0 9.884c0 0.292 0.233 0.529 0.52 0.529zM18.544 29.301c0.288-0.003 0.519-0.237 0.519-0.525 0-0.002 0-0.003-0-0.005v0-9.884c0-0.001 0-0.003 0-0.004 0-0.288-0.232-0.522-0.519-0.525h-0c-0.288 0.003-0.52 0.237-0.52 0.525 0 0.002 0 0.003 0 0.004v-0 9.884c0 0.001-0 0.003-0 0.004 0 0.288 0.232 0.522 0.519 0.525h0zM19.236 6.707c0.288-0.002 0.52-0.236 0.52-0.525 0-0.002 0-0.003-0-0.005v0-0.706c0-0.001 0-0.002 0-0.004 0-0.288-0.232-0.522-0.52-0.525h-0c-0.288 0.003-0.52 0.237-0.52 0.525 0 0.002 0 0.003 0 0.004v-0 0.706c0 0.292 0.232 0.529 0.519 0.529zM21.316 6.707c0.288-0.003 0.52-0.237 0.52-0.525 0-0.002 0-0.003-0-0.005v0-0.706c0-0.001 0-0.002 0-0.004 0-0.288-0.232-0.522-0.52-0.525h-0c-0.288 0.003-0.52 0.237-0.52 0.525 0 0.002 0 0.003 0 0.004v-0 0.706c0 0.292 0.232 0.529 0.52 0.529zM23.396 6.707c0.287-0.003 0.519-0.237 0.519-0.525 0-0.002 0-0.003-0-0.005v0-0.706c0-0.001 0-0.002 0-0.004 0-0.288-0.232-0.522-0.519-0.525h-0c-0.288 0.003-0.52 0.237-0.52 0.525 0 0.002 0 0.003 0 0.004v-0 0.706c0 0.292 0.233 0.529 0.52 0.529zM19.236 10.238c0.288-0.002 0.52-0.236 0.52-0.525 0-0.002 0-0.003-0-0.005v0-0.706c0-0.001 0-0.003 0-0.004 0-0.288-0.232-0.522-0.52-0.525h-0c-0.288 0.003-0.52 0.237-0.52 0.525 0 0.002 0 0.003 0 0.004v-0 0.706c0 0.292 0.232 0.53 0.519 0.53zM21.316 10.238c0.288-0.003 0.52-0.237 0.52-0.525 0-0.002 0-0.003-0-0.005v0-0.706c0-0.001 0-0.003 0-0.004 0-0.288-0.232-0.522-0.52-0.525h-0c-0.288 0.003-0.52 0.237-0.52 0.525 0 0.002 0 0.003 0 0.004v-0 0.706c0 0.292 0.232 0.53 0.52 0.53zM23.396 10.238c0.287-0.003 0.519-0.237 0.519-0.525 0-0.002 0-0.003-0-0.005v0-0.706c0-0.001 0-0.003 0-0.004 0-0.288-0.232-0.522-0.519-0.525h-0c-0.288 0.003-0.52 0.237-0.52 0.525 0 0.002 0 0.003 0 0.004v-0 0.706c0 0.292 0.233 0.53 0.52 0.53zM19.236 13.768c0.288-0.002 0.52-0.236 0.52-0.525 0-0.002 0-0.003-0-0.005v0-0.706c0-0.001 0-0.003 0-0.004 0-0.288-0.232-0.522-0.52-0.525h-0c-0.288 0.003-0.52 0.237-0.52 0.525 0 0.002 0 0.003 0 0.004v-0 0.706c0 0.001-0 0.003-0 0.004 0 0.288 0.232 0.522 0.519 0.525h0zM21.316 13.768c0.288-0.003 0.52-0.237 0.52-0.525 0-0.002 0-0.003-0-0.005v0-0.706c0-0.001 0-0.003 0-0.004 0-0.288-0.232-0.522-0.52-0.525h-0c-0.288 0.003-0.52 0.237-0.52 0.525 0 0.002 0 0.003 0 0.004v-0 0.706c0 0.001-0 0.003-0 0.004 0 0.288 0.232 0.522 0.52 0.525h0zM23.396 13.768c0.287-0.003 0.519-0.237 0.519-0.525 0-0.002 0-0.003-0-0.005v0-0.706c0-0.001 0-0.003 0-0.004 0-0.288-0.232-0.522-0.519-0.525h-0c-0.288 0.003-0.52 0.237-0.52 0.525 0 0.002 0 0.003 0 0.004v-0 0.706c0 0.001-0 0.003-0 0.004 0 0.288 0.232 0.522 0.52 0.525h0zM4.679 15.179c0.288-0.002 0.52-0.236 0.52-0.525 0-0.002 0-0.003-0-0.005v0-0.706c0-0.001 0-0.003 0-0.004 0-0.288-0.232-0.522-0.52-0.525h-0c-0.288 0.003-0.52 0.237-0.52 0.525 0 0.002 0 0.003 0 0.004v-0 0.706c0 0.001 0 0.002 0 0.004 0 0.288 0.232 0.522 0.519 0.525h0zM6.759 15.179c0.288-0.003 0.52-0.237 0.52-0.525 0-0.002 0-0.003-0-0.005v0-0.706c0-0.001 0-0.003 0-0.004 0-0.288-0.232-0.522-0.52-0.525h-0c-0.288 0.003-0.52 0.237-0.52 0.525 0 0.002 0 0.003 0 0.004v-0 0.706c0 0.001 0 0.002 0 0.004 0 0.288 0.232 0.522 0.52 0.525h0zM8.839 15.179c0.287-0.003 0.519-0.237 0.519-0.525 0-0.002 0-0.003-0-0.005v0-0.706c0-0.001 0-0.003 0-0.004 0-0.288-0.232-0.522-0.519-0.525h-0c-0.288 0.003-0.52 0.237-0.52 0.525 0 0.002 0 0.003 0 0.004v-0 0.706c0 0.001 0 0.002 0 0.004 0 0.288 0.232 0.522 0.52 0.525h0zM4.679 18.71c0.288-0.002 0.52-0.236 0.52-0.525 0-0.002 0-0.003-0-0.005v0-0.706c0-0.001 0-0.002 0-0.004 0-0.288-0.232-0.522-0.52-0.525h-0c-0.288 0.003-0.52 0.237-0.52 0.525 0 0.002 0 0.003 0 0.004v-0 0.706c0 0.001 0 0.002 0 0.004 0 0.288 0.232 0.522 0.519 0.525h0zM6.759 18.71c0.288-0.003 0.52-0.237 0.52-0.525 0-0.002 0-0.003-0-0.005v0-0.706c0-0.001 0-0.002 0-0.004 0-0.288-0.232-0.522-0.52-0.525h-0c-0.288 0.003-0.52 0.237-0.52 0.525 0 0.002 0 0.003 0 0.004v-0 0.706c0 0.001 0 0.002 0 0.004 0 0.288 0.232 0.522 0.52 0.525h0zM8.839 18.71c0.287-0.003 0.519-0.237 0.519-0.525 0-0.002 0-0.003-0-0.005v0-0.706c0-0.001 0-0.002 0-0.004 0-0.288-0.232-0.522-0.519-0.525h-0c-0.288 0.003-0.52 0.237-0.52 0.525 0 0.002 0 0.003 0 0.004v-0 0.706c0 0.001 0 0.002 0 0.004 0 0.288 0.232 0.522 0.52 0.525h0zM4.679 22.24c0.288-0.002 0.52-0.236 0.52-0.525 0-0.002 0-0.003-0-0.005v0-0.706c0-0.001 0-0.002 0-0.004 0-0.288-0.232-0.522-0.52-0.525h-0c-0.288 0.003-0.52 0.237-0.52 0.525 0 0.002 0 0.003 0 0.004v-0 0.706c0 0.001 0 0.002 0 0.004 0 0.288 0.232 0.522 0.519 0.525h0zM6.759 22.24c0.288-0.003 0.52-0.237 0.52-0.525 0-0.002 0-0.003-0-0.005v0-0.706c0-0.001 0-0.002 0-0.004 0-0.288-0.232-0.522-0.52-0.525h-0c-0.288 0.003-0.52 0.237-0.52 0.525 0 0.002 0 0.003 0 0.004v-0 0.706c0 0.292 0.232 0.529 0.52 0.529zM8.839 22.24c0.287-0.003 0.519-0.237 0.519-0.525 0-0.002 0-0.003-0-0.005v0-0.706c0-0.001 0-0.002 0-0.004 0-0.288-0.232-0.522-0.519-0.525h-0c-0.288 0.003-0.52 0.237-0.52 0.525 0 0.002 0 0.003 0 0.004v-0 0.706c0 0.292 0.233 0.529 0.52 0.529zM4.679 25.77c0.288-0.002 0.52-0.236 0.52-0.525 0-0.002 0-0.003-0-0.005v0-0.706c0-0.001 0-0.002 0-0.004 0-0.288-0.232-0.522-0.52-0.525h-0c-0.288 0.003-0.52 0.237-0.52 0.525 0 0.002 0 0.003 0 0.004v-0 0.706c0 0.001-0 0.003-0 0.004 0 0.288 0.232 0.522 0.519 0.525h0zM6.759 25.77c0.288-0.003 0.52-0.237 0.52-0.525 0-0.002 0-0.003-0-0.005v0-0.706c0-0.001 0-0.002 0-0.004 0-0.288-0.232-0.522-0.52-0.525h-0c-0.288 0.003-0.52 0.237-0.52 0.525 0 0.002 0 0.003 0 0.004v-0 0.706c0 0.292 0.232 0.529 0.52 0.529zM8.839 25.77c0.287-0.003 0.519-0.237 0.519-0.525 0-0.002 0-0.003-0-0.005v0-0.706c0-0.001 0-0.002 0-0.004 0-0.288-0.232-0.522-0.519-0.525h-0c-0.288 0.003-0.52 0.237-0.52 0.525 0 0.002 0 0.003 0 0.004v-0 0.706c0 0.292 0.233 0.529 0.52 0.529zM23.396 17.298c0.287-0.003 0.519-0.237 0.519-0.525 0-0.002 0-0.003-0-0.005v0-0.706c0-0.001 0-0.003 0-0.004 0-0.288-0.232-0.522-0.519-0.525h-0c-0.288 0.003-0.52 0.237-0.52 0.525 0 0.002 0 0.003 0 0.004v-0 0.706c0 0.001-0 0.003-0 0.004 0 0.288 0.232 0.522 0.52 0.525h0zM23.396 20.828c0.287-0.003 0.519-0.237 0.519-0.525 0-0.002 0-0.003-0-0.005v0-0.706c0-0.001 0-0.003 0-0.004 0-0.288-0.232-0.522-0.519-0.525h-0c-0.288 0.003-0.52 0.237-0.52 0.525 0 0.002 0 0.003 0 0.004v-0 0.706c0 0.001 0 0.002 0 0.004 0 0.288 0.232 0.522 0.52 0.525h0zM23.396 24.358c0.287-0.003 0.519-0.237 0.519-0.525 0-0.002 0-0.003-0-0.005v0-0.706c0-0.001 0-0.002 0-0.004 0-0.288-0.232-0.522-0.519-0.525h-0c-0.288 0.003-0.52 0.237-0.52 0.525 0 0.002 0 0.003 0 0.004v-0 0.706c0 0.001 0 0.002 0 0.004 0 0.288 0.232 0.522 0.52 0.525h0zM23.396 27.888c0.287-0.003 0.519-0.237 0.519-0.525 0-0.002 0-0.003-0-0.005v0-0.706c0-0.001 0-0.002 0-0.004 0-0.288-0.232-0.522-0.519-0.525h-0c-0.288 0.003-0.52 0.237-0.52 0.525 0 0.002 0 0.003 0 0.004v-0 0.706c0 0.001 0 0.002 0 0.004 0 0.288 0.232 0.522 0.52 0.525h0zM14.211 8.296c0-0.001 0-0.003 0-0.004 0-0.288-0.232-0.522-0.52-0.525h-4.16c-0.287 0.003-0.519 0.237-0.519 0.525 0 0.002 0 0.003 0 0.005v-0c0 0.001-0 0.003-0 0.004 0 0.288 0.232 0.522 0.519 0.525h4.16c0.288-0.003 0.52-0.237 0.52-0.525 0-0.002 0-0.003-0-0.005v0z"></path>
</symbol>
<symbol id="sport-car" viewBox="0 0 49 32">

<path fill="#e6792c" style="fill: var(--color2, #e6792c)" d="M34.489 10.389h-19.527c-0.432 0-0.783 0.35-0.783 0.783s0.35 0.783 0.783 0.783v0h19.526c0.432 0 0.783-0.35 0.783-0.783s-0.35-0.783-0.783-0.783v0zM6.806 13.937h-2.892c-0.432 0-0.783 0.35-0.783 0.783s0.35 0.783 0.783 0.783v0h2.892c1.423 0.002 2.621 0.967 2.976 2.278l0.005 0.022h-5.673c-0.432 0-0.783 0.35-0.783 0.783s0.35 0.783 0.783 0.783v0h6.555c0 0 0.001 0 0.001 0 0.432 0 0.783-0.35 0.783-0.783v0c-0.002-2.566-2.081-4.645-4.647-4.648h-0zM42.647 15.502h2.891c0.432 0 0.783-0.35 0.783-0.783s-0.35-0.783-0.783-0.783v0h-2.891c-2.565 0.003-4.644 2.082-4.647 4.647v0c0 0.431 0.35 0.783 0.783 0.783h6.555c0.432 0 0.783-0.35 0.783-0.783s-0.35-0.783-0.783-0.783v0h-5.673c0.36-1.333 1.558-2.298 2.982-2.3h0z"></path>
<path fill="#e6792c" style="fill: var(--color2, #e6792c)" d="M47.855 10.498c-1.048-1.097-2.523-1.779-4.157-1.779-0.013 0-0.026 0-0.039 0h0.002c-0.074 0-0.146 0.011-0.214 0.030l0.005-0.001-2.514 0.694-3.704-7.118c-0.664-1.273-2.308-2.272-3.745-2.272h-17.526c-1.436 0-3.081 0.999-3.744 2.273l-3.704 7.118-2.515-0.695c-0.062-0.018-0.134-0.029-0.208-0.029h-0c-0.011-0-0.024-0-0.037-0-1.634 0-3.109 0.682-4.155 1.776l-0.002 0.002c-0.989 1.031-1.598 2.433-1.598 3.978 0 0.104 0.003 0.207 0.008 0.31l-0.001-0.014 0.567 11.322c0.020 0.416 0.365 0.743 0.782 0.743h0.261v3.418c0 0.433 0.35 0.783 0.783 0.783h8.233c0.432 0 0.783-0.35 0.783-0.783v0-1.070c0-0.432-0.35-0.783-0.783-0.783s-0.783 0.35-0.783 0.783v0 0.287h-6.668v-2.635h43.089v2.635h-6.668v-0.287c0-0.432-0.35-0.783-0.783-0.783s-0.783 0.35-0.783 0.783v0 1.070c0 0.433 0.35 0.783 0.783 0.783h8.233c0.432 0 0.783-0.35 0.783-0.783v0-3.417h0.262c0.417 0 0.76-0.327 0.781-0.743l0.568-11.327c0.005-0.087 0.007-0.189 0.007-0.292 0-1.544-0.609-2.946-1.6-3.979l0.002 0.002zM47.884 14.693l-0.53 10.579h-45.254l-0.53-10.575c-0.004-0.066-0.006-0.144-0.006-0.223 0-2.291 1.84-4.153 4.123-4.189l0.003-0 5.936 1.64c0.063 0.018 0.134 0.028 0.209 0.028 0.432 0 0.783-0.35 0.783-0.783 0-0.358-0.24-0.66-0.569-0.753l-0.006-0.001-1.985-0.548 3.55-6.821c0.398-0.761 1.497-1.429 2.356-1.429h17.526c0.859 0 1.96 0.668 2.356 1.429l3.55 6.821-1.985 0.548c-0.334 0.094-0.574 0.396-0.574 0.754 0 0.432 0.35 0.783 0.783 0.783 0.074 0 0.146-0.010 0.214-0.030l-0.006 0.001 5.935-1.64c2.286 0.037 4.126 1.899 4.126 4.191 0 0.076-0.002 0.151-0.006 0.226l0-0.010z"></path>
<path fill="#e6792c" style="fill: var(--color2, #e6792c)" d="M43.662 7.155h2.726c0.432 0 0.783-0.35 0.783-0.783s-0.35-0.783-0.783-0.783h-2.726c-0.432 0-0.783 0.35-0.783 0.783s0.35 0.783 0.783 0.783v0zM3.064 7.155h2.727c0.432 0 0.783-0.35 0.783-0.783s-0.35-0.783-0.783-0.783h-2.727c-0.432 0-0.783 0.35-0.783 0.783s0.35 0.783 0.783 0.783v0zM33.406 20.050h-17.36c-0.432 0-0.783 0.35-0.783 0.783v0 2.091c0 0.432 0.35 0.783 0.783 0.783s0.783-0.35 0.783-0.783v0-1.309h15.793v1.309c0 0.432 0.35 0.783 0.783 0.783s0.783-0.35 0.783-0.783v0-2.091c0-0.432-0.35-0.783-0.783-0.783v0zM29.066 16.128c0.432 0 0.783-0.35 0.783-0.783s-0.35-0.783-0.783-0.783v0h-8.679c-0.432 0-0.783 0.35-0.783 0.783s0.35 0.783 0.783 0.783v0h8.679z"></path>
</symbol>
</defs>
</svg>
